<ttFont>
          <CharString index="0">
            rmoveto
            73 68 25 68 53 hvcurveto
            -62 callgsubr
            62 312 -136 -15 -58 -316 rlineto
            -75 -40 -56 -38 -34 hhcurveto
            -17 0 11 21 hvcurveto
            46 77 318 21 vvcurveto
            14 -8 11 -18 -46 -85 -14 -20 -61 vhcurveto
            10 -41 67 -8 rlineto
            -21 -103 -47 -201 -63 vvcurveto
            -49 24 -26 48 vhcurveto
            return
          </CharString>
          <CharString index="1">
            rmoveto
            -203 -88 -180 -168 -130 71 -47 91 93 50 25 21 32 hvcurveto
            -12 49 rlineto
            -14 -37 -37 -4 -31 hhcurveto
            -63 -22 38 67 26 1 13 3 23 hvcurveto
            181 98 69 113 67 -51 32 -76 hvcurveto
            -29 -71 rmoveto
            34 6 -19 -22 -71 -64 -43 -92 hvcurveto
            98 17 43 57 56 hhcurveto
            return
          </CharString>
          <CharString index="2">
            rmoveto
            49 hlineto
            22 32 6 22 7 vhcurveto
            22 7 22 15 25 vvcurveto
            31 -33 18 -59 -28 -33 -4 -7 -33 vhcurveto
            -4 -53 rlineto
            40 hlineto
            12 27 rlineto
            1 11 9 1 8 hhcurveto
            24 10 -7 -11 hvcurveto
            -31 -72 3 -32 vvcurveto
            -3 0 -6 1 -9 vhcurveto
            return
          </CharString>
          <CharString index="3">
            -176 -117 -136 -237 -89 46 -63 104 -69 callsubr
            -40 callsubr
            hvcurveto
            -113 -459 rmoveto
            -38 -7 34 52 113 20 192 111 37 8 -34 -52 -135 -26 -170 -105 hvcurveto
            return
          </CharString>
          <CharString index="4">
            rmoveto
            14 -88 -66 -20 -23 callgsubr
            267 hlineto
            9 45 -63 24 -92 558 -9 callgsubr
            31 59 rmoveto
            111 211 32 -211 rlineto
            return
          </CharString>
          <CharString index="5">
            rmoveto
            143 121 44 212 39 hvcurveto
            85 457 -52 callgsubr
            -39 callgsubr
            -64 -347 rlineto
            -48 -31 -62 -34 -46 hhcurveto
            -60 -23 24 73 17 5 45 8 40 hvcurveto
            44 230 -93 callgsubr
            -44 -229 rlineto
            -7 -37 -6 -37 -32 vvcurveto
            -113 42 -56 130 67 55 19 28 45 vhcurveto
            -1 -5 rlineto
            -104 -18 -45 -66 -120 hhcurveto
            -38 -46 12 21 -30 hvcurveto
            -6 80 rlineto
            -52 hlineto
            -39 -144 rlineto
            -34 54 73 -16 74 hhcurveto
            endchar
          </CharString>
          <CharString index="6">
            rmoveto
            41 -34 32 -40 -41 -37 -32 -41 -42 37 -30 41 40 34 30 42 vhcurveto
            231 hmoveto
            41 -35 32 -38 -42 -35 -32 -41 -42 35 -30 42 38 35 30 42 vhcurveto
            return
          </CharString>
          <CharString index="7">
            rmoveto
            134 16 32 177 rlineto
            107 87 137 168 213 vvcurveto
            16 -3 20 -5 15 vhcurveto
            -55 -6 -64 -16 -50 -15 10 -42 rcurveline
            58 -7 rlineto
            2 -5 3 -10 -13 vvcurveto
            -91 -26 -96 -108 -114 vhcurveto
            153 -36 261 -22 -46 -84 -15 -23 -70 vhcurveto
            10 -42 71 -9 26 -60 27 -245 -3 -96 rlinecurve
            -1 -33 rlineto
            return
          </CharString>
          <CharString index="8">
            rmoveto
            52 260 rlineto
            80 5 84 41 70 vvcurveto
            -51 callsubr
            -20 -3 -36 -6 vhcurveto
            -136 -15 -58 -316 rlineto
            -75 -40 -56 -38 -34 hhcurveto
            -17 0 11 21 hvcurveto
            46 77 318 21 vvcurveto
            14 -8 11 -18 -46 -85 -14 -20 -61 vhcurveto
            10 -41 67 -8 rlineto
            -21 -103 -47 -201 -66 callsubr
            -62 callgsubr
            return
          </CharString>
          <CharString index="9">
            rmoveto
            189 80 98 127 67 -32 44 -63 30 hvcurveto
            -67 34 rlineto
            -40 19 -23 19 44 vvcurveto
            59 44 28 65 34 28 -8 -7 16 vhcurveto
            10 -89 rlineto
            52 hlineto
            31 142 rlineto
            18 -49 -53 13 -56 hhcurveto
            -160 -86 -79 -133 -82 58 -46 35 -16 hvcurveto
            62 -31 rlineto
            43 -20 21 -23 -43 vvcurveto
            -59 -47 -37 -74 -44 -32 10 6 -19 vhcurveto
            -8 87 rlineto
            -53 hlineto
            -30 -141 rlineto
            -21 48 67 -10 53 hhcurveto
            return
          </CharString>
          <CharString index="10">
            rmoveto
            7 -101 rlineto
            55 hlineto
            39 154 rlineto
            16 -40 -67 14 -81 hhcurveto
            -237 -119 -191 -219 -153 64 -75 170 90 80 21 23 45 hvcurveto
            37 189 61 19 9 47 rlineto
            -261 hlineto
            -9 -45 74 -23 -30 -155 rlineto
            -7 -27 -27 0 -17 hhcurveto
            -96 -15 69 83 140 32 209 164 48 30 -9 -6 21 hvcurveto
            return
          </CharString>
          <CharString index="11">
            177 hlineto
            8 45 -55 23 -32 183 -2 26 -60 22 rlinecurve
            81 25 82 56 108 vvcurveto
            78 -50 48 -130 vhcurveto
            -275 -91 callgsubr
            -93 -477 -29 callsubr
            284 hlineto
            8 45 -64 24 39 199 rlineto
            19 hlineto
            44 5 -34 -234 39 hvcurveto
            -62 323 rmoveto
            -35 hlineto
            44 225 rlineto
            3 10 18 2 13 hhcurveto
            50 23 -20 -47 -98 -50 -65 -73 hvcurveto
            return
          </CharString>
          <CharString index="12">
            rmoveto
            121 18 61 42 63 60 29 60 rlinecurve
            -45 -1 -76 -6 -59 vhcurveto
            119 18 rlineto
            116 73 142 166 233 vvcurveto
            14 -2 14 -3 13 vhcurveto
            -45 -6 -60 -10 -64 -21 10 -42 rcurveline
            56 -7 rlineto
            2 -7 2 -10 -10 vvcurveto
            -117 -58 -118 -88 -80 vhcurveto
            1 32 3 60 55 vvcurveto
            103 -5 120 -14 57 vhcurveto
            -129 -20 rlineto
            10 -48 5 -60 -27 vvcurveto
            -75 -24 -85 -113 -112 vhcurveto
            3 34 1 98 0 vvcurveto
            115 -10 179 -10 -64 -75 -17 -21 -65 vhcurveto
            10 -42 71 -9 rlineto
            0 19 -92 -169 vvcurveto
            -51 -3 -83 -5 -45 vhcurveto
            endchar
          </CharString>
          <CharString index="13">
            rmoveto
            -11 callsubr
            23 -30 134 68 rlineto
            return
          </CharString>
          <CharString index="14">
            rmoveto
            43 35 24 25 32 hvcurveto
            -17 61 rlineto
            -4 -17 -14 -1 -14 -75 -30 67 -94 hhcurveto
            299 374 -56 42 -30 -16 rlineto
            -301 hlineto
            13 -111 rlineto
            207 hlineto
            -298 -383 52 -38 rlineto
            0 25 39 33 vhcurveto
            69 44 -79 94 hhcurveto
            return
          </CharString>
          <CharString index="15">
            rmoveto
            25 30 -4 -8 13 hvcurveto
            9 -81 rlineto
            51 hlineto
            34 134 rlineto
            20 -43 -51 10 -48 hhcurveto
            -134 -77 -64 -107 -59 25 -44 55 -23 hvcurveto
            79 -35 rlineto
            41 -18 4 -16 -20 vvcurveto
            -47 -34 -23 -57 -39 -24 5 8 -15 vhcurveto
            -6 90 rlineto
            -50 hlineto
            -37 -143 rlineto
            -22 43 63 -7 48 hhcurveto
            137 84 67 125 52 -34 40 -48 21 hvcurveto
            -83 37 rlineto
            -30 13 -9 12 25 vvcurveto
            36 23 26 55 vhcurveto
            return
          </CharString>
          <CharString index="16">
            rmoveto
            115 68 58 72 35 -29 45 -45 29 hvcurveto
            76 31 29 38 57 vvcurveto
            45 -41 36 -85 -123 -44 -73 -57 -38 26 -33 30 -24 vhcurveto
            -61 -27 -51 -51 -59 vvcurveto
            -43 33 -41 102 vhcurveto
            67 266 rmoveto
            -24 14 -23 32 24 vvcurveto
            29 22 28 35 33 19 -16 -29 -36 -23 -25 -39 -21 vhcurveto
            -52 -214 rmoveto
            -28 -28 11 31 42 32 30 27 24 hvcurveto
            return
          </CharString>
          <CharString index="17">
            9 45 rlineto
            -296 -91 callgsubr
            return
          </CharString>
          <CharString index="18">
            rmoveto
            62 -20 -136 -211 -57 209 68 21 9 47 -265 -1 -9 -45 62 -24 81 -275 -39 -200 -85 -17 callsubr
            296 hlineto
            8 45 -75 24 36 187 188 289 71 25 9 44 rlineto
            -207 hlineto
            return
          </CharString>
          <CharString index="19">
            rmoveto
            -11 callgsubr
            hvcurveto
            14 -51 rlineto
            22 41 36 6 27 hhcurveto
            36 12 -12 -24 -37 -41 -49 -87 -9 hvcurveto
            -47 vlineto
            51 56 -7 -49 -68 -52 -23 -52 -20 -41 1 12 -37 hvcurveto
            -16 -59 rlineto
            -12 37 47 -2 34 hhcurveto
            113 99 39 112 43 -24 35 -47 15 hvcurveto
            51 25 43 49 52 vvcurveto
            53 -50 26 -67 vhcurveto
            return
          </CharString>
          <CharString index="20">
            15 -4 24 -9 18 vhcurveto
            -84 -14 -6 -13 rlineto
            3 -13 2 -16 -12 vvcurveto
            return
          </CharString>
          <CharString index="21">
            rmoveto
            36 23 -61 160 rlineto
            -92 hlineto
            -4 -22 rlineto
            282 -161 rmoveto
            36 23 -61 160 rlineto
            -92 hlineto
            -4 -22 rlineto
            return
          </CharString>
          <CharString index="22">
            rmoveto
            70 41 42 55 35 hvcurveto
            0 -4 -31 -13 vvcurveto
            -36 25 -17 41 38 49 6 22 55 -5 callsubr
            71 80 16 hvcurveto
            38 201 50 274 22 vvcurveto
            14 -8 10 -18 -46 -82 -15 -21 -60 vhcurveto
            10 -42 73 -8 -29 -144 rlineto
            5 -19 -20 2 -21 hhcurveto
            -168 -117 -140 -231 -119 66 -35 57 hvcurveto
            return
          </CharString>
          <CharString index="23">
            rmoveto
            10 -89 rlineto
            54 hlineto
            33 143 rlineto
            16 -34 -40 6 -40 hhcurveto
            -199 -95 -165 -199 -116 73 -45 94 48 59 12 34 49 hvcurveto
            -12 49 rlineto
            -12 -38 -31 -6 -26 hhcurveto
            -61 -19 39 68 133 29 137 104 14 15 -1 -4 13 hvcurveto
            endchar
          </CharString>
          <CharString index="24">
            15 -6 8 -17 -35 -92 -16 -20 -65 vhcurveto
            10 -41 66 -7 -87 -447 rlineto
            -72 -13 -40 -25 -45 hhcurveto
            -26 -25 6 9 -22 hvcurveto
            -17 -52 rlineto
            0 58 -34 73 return
          </CharString>
          <CharString index="25">
            rmoveto
            153 161 rlineto
            22 -92 vlineto
            -92 -160 rlineto
            return
          </CharString>
          <CharString index="26">
            rmoveto
            -75 callgsubr
            183 hlineto
            14 -88 -66 -20 -23 callgsubr
            267 hlineto
            9 45 -63 24 -92 558 -70 callsubr
            rlineto
            222 168 -38 callsubr
          </CharString>
          <CharString index="27">
            282 hlineto
            239 121 193 210 128 -78 83 -175 hvcurveto
            -39 callgsubr
            -93 -477 3 callgsubr
            -27 callsubr
            rlineto
            3 11 15 3 25 hhcurveto
            82 40 -42 -106 -159 -62 -185 -133 hvcurveto
            return
          </CharString>
          <CharString index="28">
            rmoveto
            61 -21 -147 -346 -41 366 -126 -21 -148 -342 -31 344 65 20 8 45 rlineto
            -262 hlineto
            -8 -45 62 -24 53 -557 94 15 178 397 45 -412 90 15 242 543 72 24 8 -2 callsubr
          </CharString>
          <CharString index="29">
            rmoveto
            29 59 8 20 58 hvcurveto
            48 -77 vlineto
            107 613 rlineto
            3 18 1 12 4 vvcurveto
            14 -8 11 -17 -44 -84 -17 -20 -58 -24 callsubr
            0 -117 -577 -25 vvcurveto
            -43 27 -16 39 vhcurveto
            return
          </CharString>
          <CharString index="30">
            rmoveto
            98 74 47 166 32 hvcurveto
            94 483 85 23 8 45 rlineto
            -292 hlineto
            -8 -45 75 -23 -98 -505 rlineto
            -70 -14 -21 -52 -57 hhcurveto
            -62 hlineto
            -11 -37 rlineto
            -16 19 29 -16 49 hhcurveto
            endchar
          </CharString>
          <CharString index="31">
            -93 -71 callsubr
            return
          </CharString>
          <CharString index="32">
            31 162 rlineto
            -53 hlineto
            -42 -93 rlineto
            -148 hlineto
            -27 callsubr
            -93 callgsubr
            -93 -477 -29 callsubr
            return
          </CharString>
          <CharString index="33">
            rmoveto
            41 35 34 40 41 -36 34 -40 -40 -35 -34 -41 -40 35 -34 40 hvcurveto
            return
          </CharString>
          <CharString index="34">
            3 16 7 42 10 vvcurveto
            15 -10 11 -18 -44 -84 -18 -19 -60 vhcurveto
            10 -41 71 -9 return
          </CharString>
          <CharString index="35">
            -13 callsubr
            35 31 63 40 26 hhcurveto
            13 8 -4 -19 hvcurveto
            -37 -69 -275 -32 vvcurveto
            -60 37 -6 36 39 57 11 17 38 -13 callgsubr
            224 34 vvcurveto
            48 -20 15 -39 -67 -83 -48 -49 -55 vhcurveto
            return
          </CharString>
          <CharString index="36">
            -477 -84 -24 return
          </CharString>
          <CharString index="37">
            -77 -13 -288 -545 -69 -25 return
          </CharString>
          <CharString index="38">
            178 118 137 234 return
          </CharString>
          <CharString index="39">
            rmoveto
            -38 -7 34 52 113 20 192 111 37 8 -34 -52 -135 -26 -170 -105 hvcurveto
            endchar
          </CharString>
          <CharString index="40">
            34 28 46 58 24 hvcurveto
            return
          </CharString>
          <CharString index="41">
            -63 vvcurveto
            -49 24 -26 48 73 68 25 68 53 vhcurveto
            return
          </CharString>
          <CharString index="42">
            134 90 120 183 108 -58 39 -78 -140 -88 -138 -163 -109 61 -40 79 hvcurveto
            return
          </CharString>
          <CharString index="43">
            -103 callgsubr
            127 return
          </CharString>
          <CharString index="44">
            rmoveto
            -29 callgsubr
            -93 -477 -27 callgsubr
            rlineto
            105 -91 54 hlineto
            37 159 rlineto
            return
          </CharString>
          <CharString index="45">
            -138 rmoveto
            -104 callsubr
            return
          </CharString>
          <CharString index="46">
            715 rmoveto
            45 -37 39 -45 -45 -41 -39 -45 -45 41 -35 45 45 37 35 45 vhcurveto
            return
          </CharString>
          <CharString index="47">
            65 -7 -186 rmoveto
            117 18 10 114 2 22 1 38 -4 26 rlinecurve
            3 1 rlineto
            -15 4 17 -27 33 hhcurveto
            57 42 29 65 37 hvcurveto
            -1 -7 -8 -35 -5 vvcurveto
            -27 11 -18 37 30 46 9 19 62 vhcurveto
            47 -68 vlineto
            1 2 54 85 16 hvcurveto
            57 310 -125 -15 -45 -265 rlineto
            -93 -16 -59 -68 -39 hhcurveto
            -23 -12 10 32 hvcurveto
            59 67 292 21 vvcurveto
            14 -7 11 -17 -42 -78 -14 -20 -56 vhcurveto
            9 -41 62 -7 rlineto
            endchar
          </CharString>
          <CharString index="48">
            3 208 -12 rmoveto
            162 79 95 95 60 -32 50 -65 45 hvcurveto
            109 65 34 61 49 vvcurveto
            74 -52 47 -104 -160 -72 -91 -89 -60 29 -47 44 -30 vhcurveto
            -73 -39 -75 -86 -76 vvcurveto
            -71 33 -52 143 vhcurveto
            86 384 rmoveto
            -64 46 -12 25 36 vvcurveto
            55 45 32 56 54 20 -27 -39 -50 -33 -41 -66 -37 vhcurveto
            -69 -319 rmoveto
            -52 -28 19 57 42 24 59 64 44 hvcurveto
            64 -45 36 -34 -47 vvcurveto
            -63 -50 -32 -58 vhcurveto
            endchar
          </CharString>
          <CharString index="49">
            -80 371 428 rmoveto
            41 227 -50 9 -25 -21 rlineto
            0 -28 12 -46 -134 -83 -122 -149 -87 49 -27 53 33 42 23 48 29 vhcurveto
            -1 -12 -2 -10 -9 vvcurveto
            -26 10 -14 48 20 37 7 15 43 vhcurveto
            38 -51 vlineto
            0 4 39 11 59 vhcurveto
            -185 -93 rmoveto
            -19 -11 7 64 64 20 136 86 13 10 -3 -5 11 hvcurveto
            -14 -71 -22 -126 0 vvcurveto
            -41 -20 -35 -25 -19 hhcurveto
            endchar
          </CharString>
          <CharString index="50">
            257 612 80 rmoveto
            -68 -3 rlineto
            82 41 57 123 90 vvcurveto
            155 -81 142 -215 -193 -114 -118 -186 -138 69 -70 71 -40 vhcurveto
            -68 4 rlineto
            -48 hlineto
            -20 74 rlineto
            -49 -154 275 51 hlineto
            -46 56 -39 71 134 vvcurveto
            123 26 123 129 134 25 -144 -91 -175 -41 -48 -42 -49 vhcurveto
            -51 273 154 -47 vlineto
            -21 -74 rlineto
            endchar
          </CharString>
          <CharString index="51">
            137 -10 hmoveto
            282 hlineto
            239 121 193 210 128 -78 83 -175 hvcurveto
            -39 callgsubr
            -42 -216 rlineto
            -61 hlineto
            -11 -56 rlineto
            61 hlineto
            -40 -205 3 callgsubr
            40 204 rlineto
            84 hlineto
            11 56 rlineto
            -84 hlineto
            42 217 rlineto
            3 11 15 3 25 hhcurveto
            82 40 -42 -106 -159 -62 -185 -133 hvcurveto
            endchar
          </CharString>
          <CharString index="52">
            rmoveto
            -82 -14 54 91 95 29 262 164 75 20 -48 -90 -153 -45 -211 -147 hvcurveto
            endchar
          </CharString>
          <CharString index="53">
            hhcurveto
            153 186 rmoveto
            -42 -8 23 38 50 23 43 43 26 19 -15 -39 -21 -1 -33 -9 -28 hvcurveto
            -13 -19 -19 -5 -13 hhcurveto
            endchar
          </CharString>
          <CharString index="54">
            -37 -41 18 72 157 74 31 53 51 31 -26 -66 -148 -68 -38 -63 hvcurveto
            return
          </CharString>
          <CharString index="55">
            -118 61 -34 71 return
          </CharString>
          <CharString index="56">
            -87 callsubr
            -44 return
          </CharString>
          <CharString index="57">
            558 rmoveto
            76 54 48 74 50 -31 40 -69 -83 -47 -60 -67 -49 33 -36 67 hvcurveto
            7 52 rmoveto
            -26 -7 12 19 38 8 38 41 27 6 -15 -20 -39 -9 -33 -40 hvcurveto
            return
          </CharString>
          <CharString index="58">
            -236 rmoveto
            76 42 62 0 hvcurveto
            -20 22 rlineto
            -14 -22 -20 -8 -22 hhcurveto
            return
          </CharString>
          <CharString index="59">
            137 14 63 344 rlineto
            return
          </CharString>
          <CharString index="60">
            198 -15 hmoveto
            295 hlineto
            8 45 -75 24 40 203 rlineto
            212 hlineto
            -40 -203 -27 callgsubr
            -93 callgsubr
            -40 -208 rlineto
            -212 hlineto
            40 208 -32 callsubr
            return
          </CharString>
          <CharString index="61">
            697 rmoveto
            -11 -79 rlineto
            241 hlineto
            11 79 rlineto
            return
          </CharString>
          <CharString index="62">
            vvcurveto
            -38 21 -38 71 76 42 62 0 vhcurveto
            -20 22 rlineto
            -14 -22 -20 -8 -22 hhcurveto
            return
          </CharString>
          <CharString index="63">
            631 -82 callsubr
            return
          </CharString>
          <CharString index="64">
            -42 callgsubr
            vhcurveto
            return
          </CharString>
          <CharString index="65">
            -67 callsubr
            -44 19 rlineto
            0 -17 -31 -25 vhcurveto
            -39 -88 37 -49 hhcurveto
            -33 -34 -46 -58 -20 hvcurveto
            47 -19 rlineto
            0 16 31 24 vhcurveto
            return
          </CharString>
          <CharString index="66">
            rmoveto
            178 179 -7 22 rlineto
            -105 hlineto
            -103 -177 rlineto
            return
          </CharString>
          <CharString index="67">
            85 -44 69 -109 return
          </CharString>
          <CharString index="68">
            575 rmoveto
            124 78 87 -78 39 23 -70 143 rlineto
            -85 hlineto
            -124 -135 rlineto
            return
          </CharString>
          <CharString index="69">
            rmoveto
            111 211 32 -211 rlineto
            endchar
          </CharString>
          <CharString index="70">
            -105 callsubr
            -10 return
          </CharString>
          <CharString index="71">
            vmoveto
            -35 callsubr
          </CharString>
          <CharString index="72">
            -104 callsubr
            endchar
          </CharString>
          <CharString index="73">
            -127 271 655 rmoveto
            -135 -90 -100 -174 -65 37 -46 83 137 90 100 172 62 -35 51 -87 hvcurveto
            -83 -337 rmoveto
            -28 -5 25 38 83 15 141 81 27 6 -25 -38 -99 -19 -125 -77 hvcurveto
            endchar
          </CharString>
          <CharString index="74">
            rmoveto
            40 17 -52 184 rlineto
            -79 hlineto
            -17 -17 rlineto
            return
          </CharString>
          <CharString index="75">
            -93 callgsubr
            -76 callsubr
            rlineto
            return
          </CharString>
          <CharString index="76">
            34 188 63 323 6 vvcurveto
            return
          </CharString>
          <CharString index="77">
            rmoveto
            167 41 117 73 50 -33 47 -71 -41 -32 -10 -21 -28 hvcurveto
            return
          </CharString>
          <CharString index="78">
            -84 -17 callsubr
            return
          </CharString>
          <CharString index="79">
            630 rmoveto
            4 callsubr
            -82 callgsubr
            return
          </CharString>
          <CharString index="80">
            93 477 return
          </CharString>
          <CharString index="81">
            427 -45 callgsubr
            return
          </CharString>
          <CharString index="82">
            122 57 55 101 15 hvcurveto
            70 450 rlineto
            return
          </CharString>
          <CharString index="83">
            vhcurveto
            10 -41 72 -9 rlineto
            return
          </CharString>
          <CharString index="84">
            rlineto
            81 hlineto
            12 70 rlineto
            -81 hlineto
            72 408 -100 10 -387 -439 7 -49 rlineto
            272 hlineto
            -159 70 rmoveto
            214 245 -43 -245 rlineto
            endchar
          </CharString>
          <CharString index="85">
            527 rmoveto
            41 hlineto
            46 192 -70 20 rlineto
            -32 hlineto
            return
          </CharString>
          <CharString index="86">
            48 -74 vlineto
            1 1 70 79 15 hvcurveto
            -12 callgsubr
            return
          </CharString>
          <CharString index="87">
            rmoveto
            138 226 -24 28 -108 -23 -55 -222 rlineto
            222 -9 rmoveto
            138 226 -23 28 -108 -23 -56 -222 rlineto
            endchar
          </CharString>
          <CharString index="88">
            -4 callgsubr
            -95 -19 -36 -187 -1 hhcurveto
            -31 -20 -50 -51 -33 hhcurveto
            endchar
          </CharString>
          <CharString index="89">
            rmoveto
            23 vlineto
            -99 34 -156 -131 27 -35 rlineto
            return
          </CharString>
          <CharString index="90">
            -24 -8 -45 rlineto
            return
          </CharString>
          <CharString index="91">
            131 -20 21 109 -138 -18 45 138 rlineto
            -121 hlineto
            -8 -138 -129 18 -21 -109 138 20 return
          </CharString>
          <CharString index="92">
            59 308 return
          </CharString>
          <CharString index="93">
            vvcurveto
            -109 61 -40 79 vhcurveto
            6 callgsubr
            return
          </CharString>
          <CharString index="94">
            rmoveto
            -48 callsubr
            return
          </CharString>
          <CharString index="95">
            135 108 111 133 135 -108 109 -135 -133 -110 -109 -135 return
          </CharString>
          <CharString index="96">
            30 26 -82 130 rlineto
            -85 hlineto
            -128 -126 return
          </CharString>
          <CharString index="97">
            -22 -11 -55 rlineto
            73 hlineto
            -69 -358 -84 -19 -10 -45 rlineto
            284 hlineto
            10 45 -75 19 return
          </CharString>
          <CharString index="98">
            94 rmoveto
            79 168 168 79 -168 167 -79 -167 -167 -79 167 hlineto
            return
          </CharString>
          <CharString index="99">
            vvcurveto
            11 -6 8 -12 -32 -72 -13 -14 -42 vhcurveto
            7 -30 18 -2 17 -3 18 -2 rlinecurve
            return
          </CharString>
          <CharString index="100">
            114 95 97 112 115 92 -97 -114 -114 -92 -97 -115 return
          </CharString>
          <CharString index="101">
            rmoveto
            101 hlineto
            15 79 rlineto
            57 hlineto
            12 61 rlineto
            -57 hlineto
            57 292 -80 10 return
          </CharString>
          <CharString index="102">
            vhcurveto
            48 -74 vlineto
            1 1 return
          </CharString>
          <CharString index="103">
            hlineto
            13 72 12 72 13 18 62 1 rlinecurve
            return
          </CharString>
          <CharString index="104">
            60 35 -49 143 105 145 -46 34 return
          </CharString>
          <CharString index="105">
            44 rlineto
            -207 hlineto
            endchar
          </CharString>
          <CharString index="106">
            rmoveto
            138 228 -23 28 -107 -22 -57 -225 rlineto
            endchar
          </CharString>
          <CharString index="107">
            13 -8 12 -17 -46 -82 -17 -20 -59 vhcurveto
            10 -41 72 -8 return
          </CharString>
          <CharString index="108">
            -184 rmoveto
            -25 callsubr
            return
          </CharString>
          <CharString index="109">
            hhcurveto
            23 13 -13 -53 -155 -16 callgsubr
            -81 hvcurveto
            endchar
          </CharString>
          <CharString index="110">
            -33 -43 vhcurveto
            188 hmoveto
            -40 32 -30 39 41 return
          </CharString>
          <CharString index="111">
            -21 callgsubr
            -67 callsubr
            return
          </CharString>
          <CharString index="112">
            -152 -28 -9 -49 rlineto
            426 hlineto
            endchar
          </CharString>
          <CharString index="113">
            32 70 9 19 65 return
          </CharString>
          <CharString index="114">
            vhcurveto
            48 -78 vlineto
            return
          </CharString>
        <CharString name=".notdef">
          -347 endchar
        </CharString>
        <CharString name="A">
          53 331 153 -103 callsubr
          endchar
        </CharString>
        <CharString name="AE">
          155 418 315 -60 callgsubr
        </CharString>
        <CharString name="AEacute">
          155 377 634 -98 callgsubr
          68 -354 -60 callgsubr
        </CharString>
        <CharString name="Aacute">
          53 269 634 -98 callgsubr
          -294 -669 -81 callsubr
        </CharString>
        <CharString name="Abreve">
          53 344 651 -103 callgsubr
          -396 -651 -81 callsubr
        </CharString>
        <CharString name="Acircumflex">
          53 467 -80 callgsubr
          -28 -554 -103 callsubr
          endchar
        </CharString>
        <CharString name="Adieresis">
          53 246 647 -76 callgsubr
          -530 -647 -81 callsubr
        </CharString>
        <CharString name="Agrave">
          53 434 634 -77 callgsubr
          -254 -743 -81 callsubr
        </CharString>
        <CharString name="Amacron">
          53 219 -10 callgsubr
          -282 -758 -81 callsubr
        </CharString>
        <CharString name="Aogonek">
          53 292 -49 callsubr
          -27 -11 15 31 47 52 81 60 hvcurveto
          137 hlineto
          9 45 -63 24 -92 558 -9 callgsubr
          184 hlineto
          11 -76 rlineto
          1 -6 1 -8 -5 -54 -145 -53 -111 vvcurveto
          -38 21 -38 71 vhcurveto
          -113 448 -38 callsubr
        </CharString>
        <CharString name="Aring">
          53 347 -66 callgsubr
          -407 -674 -81 callsubr
        </CharString>
        <CharString name="Aringacute">
          53 492 980 rmoveto
          -156 -131 25 -33 rlineto
          -71 -12 -30 -50 -56 vvcurveto
          -45 36 -26 61 76 55 45 67 vhcurveto
          -2 callgsubr
          23 vlineto
          -176 -206 rmoveto
          -29 -9 -37 -41 -29 -3 14 18 29 8 36 39 24 11 -14 -17 vhcurveto
          -24 -113 rmoveto
          -9 callgsubr
          183 hlineto
          14 -88 -66 -20 -23 callgsubr
          267 hlineto
          9 45 -63 24 rlineto
          -304 143 -38 callsubr
        </CharString>
        <CharString name="Atilde">
          53 537 758 -96 callgsubr
          -206 -605 -103 callsubr
          endchar
        </CharString>
        <CharString name="B">
          57 389 324 rmoveto
          90 16 76 62 96 vvcurveto
          70 -54 46 -130 vhcurveto
          -266 -91 callgsubr
          -93 -477 -29 callsubr
          253 hlineto
          171 102 84 119 63 -39 44 -85 14 hvcurveto
          -94 19 rmoveto
          -27 hlineto
          41 206 rlineto
          0 19 4 22 43 24 -19 -44 -120 -79 -27 -43 vhcurveto
          -80 -274 rmoveto
          43 220 rlineto
          25 hlineto
          51 40 -27 -59 -97 -52 -45 -62 -16 -18 4 4 -11 hvcurveto
          endchar
        </CharString>
        <CharString name="C">
          16 452 21 -85 callgsubr
        </CharString>
        <CharString name="Cacute">
          16 301 634 -98 callgsubr
          178 -648 -85 callgsubr
        </CharString>
        <CharString name="Cacute.loclPLK">
          16 366 -44 callsubr
          117 -633 -85 callgsubr
        </CharString>
        <CharString name="Ccaron">
          16 290 795 -83 callgsubr
          54 -706 -85 callgsubr
        </CharString>
        <CharString name="Ccedilla">
          16 452 21 rmoveto
          22 136 rlineto
          -56 hlineto
          -37 -87 rlineto
          -9 -31 -24 -2 -26 hhcurveto
          -85 -31 43 106 160 44 192 152 35 26 -4 -8 26 hvcurveto
          4 -102 rlineto
          54 hlineto
          40 157 rlineto
          14 -43 -56 11 -73 hhcurveto
          -242 -115 -202 -210 -136 53 -76 138 -12 hvcurveto
          -35 -65 -73 callgsubr
          -32 callgsubr
          17 36 71 1 51 10 57 20 rlinecurve
          endchar
        </CharString>
        <CharString name="Ccircumflex">
          16 510 -80 callgsubr
          50 -686 -85 callgsubr
        </CharString>
        <CharString name="Cdotaccent">
          16 488 -61 callsubr
          -36 -694 -85 callgsubr
        </CharString>
        <CharString name="D">
          134 -13 hmoveto
          -80 callsubr
          endchar
        </CharString>
        <CharString name="Dcaron">
          134 332 639 rmoveto
          85 hlineto
          128 126 -23 30 -134 -68 -108 68 -30 -26 rlineto
          -263 -769 rmoveto
          -80 callsubr
          endchar
        </CharString>
        <CharString name="Dcroat">
          -56 callsubr
        </CharString>
        <CharString name="E">
          29 399 403 -105 callgsubr
          endchar
        </CharString>
        <CharString name="Eacute">
          29 278 634 -98 callgsubr
          148 -266 -105 callgsubr
          endchar
        </CharString>
        <CharString name="Ebreve">
          29 338 651 -103 callgsubr
          61 -248 -105 callgsubr
          endchar
        </CharString>
        <CharString name="Ecaron">
          29 256 795 -83 callgsubr
          35 -324 -105 callgsubr
          endchar
        </CharString>
        <CharString name="Ecircumflex">
          29 466 -80 callgsubr
          41 -304 -105 callgsubr
          endchar
        </CharString>
        <CharString name="Edieresis">
          29 316 719 -101 callsubr
          -148 -316 -105 callgsubr
          endchar
        </CharString>
        <CharString name="Edotaccent">
          29 443 -61 callsubr
          -44 -312 -105 callgsubr
          endchar
        </CharString>
        <CharString name="Egrave">
          29 411 634 -77 callgsubr
          220 -340 -105 callgsubr
          endchar
        </CharString>
        <CharString name="Emacron">
          29 235 758 -37 callgsubr
          -97 -355 -105 callgsubr
          endchar
        </CharString>
        <CharString name="Eng">
          162 486 614 rmoveto
          -8 -45 75 -23 -71 -374 -192 442 rlineto
          -185 hlineto
          -8 -45 75 -23 -92 -71 callsubr
          -23 callgsubr
          231 hlineto
          9 45 -75 24 71 368 172 -399 rlineto
          -99 -11 -30 -52 -65 hhcurveto
          -21 -33 4 11 -21 hvcurveto
          -17 -52 rlineto
          -16 30 50 -18 46 hhcurveto
          100 76 55 192 33 hvcurveto
          94 483 85 23 8 45 rlineto
          endchar
        </CharString>
        <CharString name="Eogonek">
          29 383 -49 callsubr
          -27 -11 15 26 33 39 69 34 31 hvcurveto
          31 162 rlineto
          -53 hlineto
          -42 -93 rlineto
          -173 hlineto
          41 212 rlineto
          101 hlineto
          5 -69 rlineto
          50 hlineto
          37 191 rlineto
          -50 hlineto
          -29 -66 rlineto
          -103 hlineto
          41 209 rlineto
          158 hlineto
          5 -78 rlineto
          53 hlineto
          28 146 rlineto
          -447 -91 callgsubr
          -93 -477 -29 callsubr
          416 hlineto
          -79 -58 -33 -62 -40 vvcurveto
          -38 21 -38 71 vhcurveto
          endchar
        </CharString>
        <CharString name="Eth">
          -56 callsubr
        </CharString>
        <CharString name="Euro">
          3 276 -5 rmoveto
          54 39 8 15 43 hvcurveto
          1 54 rlineto
          -6 -34 -35 -6 -29 hhcurveto
          -87 -28 50 75 8 0 9 1 10 hvcurveto
          155 hlineto
          19 58 rlineto
          -167 hlineto
          11 61 rlineto
          160 hlineto
          19 58 rlineto
          -164 hlineto
          135 39 58 31 52 hhcurveto
          24 16 -3 -6 17 hvcurveto
          4 -89 rlineto
          44 hlineto
          39 137 rlineto
          15 -40 -56 13 -51 hhcurveto
          -107 -108 -52 -181 -56 hvcurveto
          -77 hlineto
          -19 -58 rlineto
          80 hlineto
          -7 -32 -2 -18 -2 -11 rrcurveto
          -73 hlineto
          -19 -58 rlineto
          87 hlineto
          -1 -11 0 -10 -10 vvcurveto
          -164 98 -22 102 vhcurveto
          endchar
        </CharString>
        <CharString name="F">
          0 557 614 rmoveto
          -452 -91 callgsubr
          -93 -477 -29 callsubr
          305 hlineto
          9 47 -86 22 38 195 rlineto
          105 hlineto
          5 -69 rlineto
          50 hlineto
          37 191 rlineto
          -50 hlineto
          -29 -66 rlineto
          -107 hlineto
          44 226 rlineto
          163 hlineto
          5 -78 rlineto
          53 hlineto
          endchar
        </CharString>
        <CharString name="G">
          85 479 545 -97 callsubr
          endchar
        </CharString>
        <CharString name="G_tilde.loclGUA">
          85 569 759 -96 callgsubr
          -90 -214 -97 callsubr
          endchar
        </CharString>
        <CharString name="Gbreve">
          85 381 651 -103 callgsubr
          98 -106 -97 callsubr
          endchar
        </CharString>
        <CharString name="Gcaron">
          85 271 795 -83 callgsubr
          100 -182 -97 callsubr
          endchar
        </CharString>
        <CharString name="Gcircumflex">
          85 494 -80 callgsubr
          93 -162 -97 callsubr
          endchar
        </CharString>
        <CharString name="Gcommaaccent">
          85 479 545 -97 callsubr
          -253 -781 -71 callgsubr
        </CharString>
        <CharString name="Gdotaccent">
          85 472 -61 callsubr
          7 -170 -97 callsubr
          endchar
        </CharString>
        <CharString name="H">
          -47 callsubr
          endchar
        </CharString>
        <CharString name="Hbar">
          198 738 569 rmoveto
          -90 callsubr
          -20 -101 rlineto
          -212 hlineto
          20 101 -93 callgsubr
          -20 -101 rlineto
          -76 hlineto
          -11 -55 rlineto
          77 hlineto
          -63 -321 -29 callsubr
          295 hlineto
          8 45 -75 24 34 172 rlineto
          212 hlineto
          -34 -172 -29 callsubr
          295 hlineto
          8 45 -75 24 63 321 rlineto
          75 hlineto
          11 55 rlineto
          -76 hlineto
          20 101 rlineto
          -183 -239 rmoveto
          -212 hlineto
          17 83 rlineto
          212 hlineto
          endchar
        </CharString>
        <CharString name="Hcircumflex">
          198 551 -80 callgsubr
          -458 -707 rmoveto
          295 hlineto
          8 45 -75 24 40 203 rlineto
          212 hlineto
          -40 -203 -27 callgsubr
          -93 callgsubr
          -40 -208 rlineto
          -212 hlineto
          40 208 -32 callsubr
          endchar
        </CharString>
        <CharString name="I">
          -150 -13 hmoveto
          -89 callgsubr
          endchar
        </CharString>
        <CharString name="IJ">
          200 -13 hmoveto
          -89 callgsubr
          376 -195 -77 callsubr
        </CharString>
        <CharString name="Iacute">
          -150 183 634 -98 callgsubr
          -169 -669 rmoveto
          -89 callgsubr
          endchar
        </CharString>
        <CharString name="Iacute_J.loclNLD">
          200 225 634 -98 callgsubr
          380 -35 -98 callgsubr
          -564 -669 rmoveto
          -89 callgsubr
          376 -195 -77 callsubr
        </CharString>
        <CharString name="Ibreve">
          -150 249 651 -103 callgsubr
          -262 -651 rmoveto
          -89 callgsubr
          endchar
        </CharString>
        <CharString name="Icircumflex">
          -150 138 -28 callgsubr
          -128 -669 rmoveto
          -89 callgsubr
          endchar
        </CharString>
        <CharString name="Idieresis">
          -150 158 647 -76 callgsubr
          -403 -647 rmoveto
          -89 callgsubr
          endchar
        </CharString>
        <CharString name="Idotaccent">
          -150 273 635 rmoveto
          45 37 35 45 45 -37 39 -45 -45 -41 -39 -45 -45 41 -35 45 hvcurveto
          -286 -635 rmoveto
          -89 callgsubr
          endchar
        </CharString>
        <CharString name="Igrave">
          -150 347 634 -77 callgsubr
          -128 -743 rmoveto
          -89 callgsubr
          endchar
        </CharString>
        <CharString name="Imacron">
          -150 146 -10 callgsubr
          -170 -758 rmoveto
          -89 callgsubr
          endchar
        </CharString>
        <CharString name="Iogonek">
          -150 147 -49 callsubr
          -27 -11 18 26 60 77 67 63 3 hvcurveto
          8 45 -76 24 -27 callsubr
          -93 callgsubr
          -93 -477 -29 callsubr
          184 hlineto
          -70 -43 -46 -65 -49 vvcurveto
          -38 21 -41 71 vhcurveto
          endchar
        </CharString>
        <CharString name="Itilde">
          -150 352 -50 callgsubr
          -365 -655 rmoveto
          -89 callgsubr
          endchar
        </CharString>
        <CharString name="J">
          -157 14 -150 -77 callsubr
        </CharString>
        <CharString name="Jcircumflex">
          -157 373 -80 callgsubr
          -251 -857 -77 callsubr
        </CharString>
        <CharString name="K">
          69 556 -44 callgsubr
          endchar
        </CharString>
        <CharString name="Kcommaaccent">
          69 555 -44 callgsubr
          -148 -236 -71 callgsubr
        </CharString>
        <CharString name="L">
          -39 -26 callsubr
          endchar
        </CharString>
        <CharString name="Lacute">
          -39 169 634 -98 callgsubr
          284 -669 rmoveto
          -75 callsubr
          endchar
        </CharString>
        <CharString name="Lcaron">
          -39 158 795 -83 callgsubr
          160 -727 rmoveto
          -75 callsubr
          endchar
        </CharString>
        <CharString name="Lcommaaccent">
          -39 426 -45 callgsubr
          181 -236 -71 callgsubr
        </CharString>
        <CharString name="Ldot">
          -39 -26 callsubr
          528 411 rmoveto
          -40 callgsubr
          45 36 33 44 vhcurveto
          endchar
        </CharString>
        <CharString name="Lslash">
          -43 426 hmoveto
          31 162 rlineto
          -53 hlineto
          -42 -93 rlineto
          -148 hlineto
          46 236 129 58 -26 59 -88 -40 32 164 -93 callgsubr
          -45 -231 -113 -50 25 -59 73 32 -33 -169 -29 callsubr
          endchar
        </CharString>
        <CharString name="M">
          283 199 hmoveto
          9 45 -75 24 85 346 60 -425 88 14 217 417 -50 -352 -84 -24 -23 callgsubr
          291 hlineto
          9 45 -74 24 69 477 85 23 8 45 rlineto
          -219 hlineto
          -228 -451 -59 451 rlineto
          -210 hlineto
          -8 -45 74 -23 -115 -477 -83 -24 -23 callgsubr
          endchar
        </CharString>
        <CharString name="N">
          162 -36 callgsubr
          endchar
        </CharString>
        <CharString name="Nacute">
          162 367 634 -98 callgsubr
          146 -55 -90 callgsubr
          endchar
        </CharString>
        <CharString name="Nacute.loclPLK">
          162 389 -44 callsubr
          128 -40 -90 callgsubr
          endchar
        </CharString>
        <CharString name="Ncaron">
          162 327 795 -83 callgsubr
          51 -113 -90 callgsubr
          endchar
        </CharString>
        <CharString name="Ncommaaccent">
          162 -36 callgsubr
          -455 -850 -71 callgsubr
        </CharString>
        <CharString name="Ntilde">
          162 607 759 -96 callgsubr
          -121 -145 -90 callgsubr
          endchar
        </CharString>
        <CharString name="O">
          265 -10 -104 callgsubr
          endchar
        </CharString>
        <CharString name="OE">
          330 290 hmoveto
          462 -3 callgsubr
          -161 hlineto
          41 212 rlineto
          99 hlineto
          5 -69 rlineto
          48 hlineto
          37 191 rlineto
          -50 hlineto
          -29 -66 rlineto
          -99 hlineto
          41 209 rlineto
          146 hlineto
          5 -78 rlineto
          53 hlineto
          28 146 rlineto
          -418 hlineto
          -247 -151 -170 -236 -143 85 -65 169 hvcurveto
          12 63 rmoveto
          -86 -39 49 105 87 33 246 200 19 27 -2 -6 27 hvcurveto
          -91 -469 rlineto
          -7 -29 -31 -3 -30 hhcurveto
          endchar
        </CharString>
        <CharString name="Oacute">
          361 634 -98 callgsubr
          -69 -679 -104 callgsubr
          endchar
        </CharString>
        <CharString name="Oacute.loclPLK">
          369 -44 callsubr
          -73 -664 -104 callgsubr
          endchar
        </CharString>
        <CharString name="Obreve">
          385 651 -103 callgsubr
          -120 -661 -104 callgsubr
          endchar
        </CharString>
        <CharString name="Ocircumflex">
          263 -28 callgsubr
          25 -679 -104 callgsubr
          endchar
        </CharString>
        <CharString name="Odieresis">
          287 647 -76 callgsubr
          -254 -657 -104 callgsubr
          endchar
        </CharString>
        <CharString name="Ograve">
          473 634 -77 callgsubr
          24 -753 -104 callgsubr
          endchar
        </CharString>
        <CharString name="Ohorn">
          706 644 -88 callgsubr
        </CharString>
        <CharString name="Ohungarumlaut">
          290 -44 callsubr
          192 -23 -82 callsubr
          -155 -664 -104 callgsubr
          endchar
        </CharString>
        <CharString name="Omacron">
          267 -10 callgsubr
          -13 -768 -104 callgsubr
          endchar
        </CharString>
        <CharString name="Oslash">
          160 -92 -55 callgsubr
        </CharString>
        <CharString name="Oslashacute">
          251 634 -98 callgsubr
          -64 -761 -55 callgsubr
        </CharString>
        <CharString name="Otilde">
          476 -50 callgsubr
          -211 -665 -104 callgsubr
          endchar
        </CharString>
        <CharString name="P">
          24 383 614 rmoveto
          -278 -91 callgsubr
          -93 -477 -29 callsubr
          314 hlineto
          9 46 -95 23 35 178 rlineto
          -3 7 40 -1 2 hhcurveto
          109 150 63 165 95 -55 48 -120 hvcurveto
          -124 -318 rmoveto
          49 250 rlineto
          4 13 13 1 14 hhcurveto
          56 22 -32 -50 -102 -57 -74 -82 -12 -10 1 2 -6 hvcurveto
          endchar
        </CharString>
        <CharString name="Q">
          122 453 -157 rmoveto
          37 53 19 16 27 hvcurveto
          3 37 rlineto
          -64 hlineto
          -28 -107 48 37 -67 hvcurveto
          7 vlineto
          188 122 196 212 121 -49 92 -175 -239 -116 -212 -193 -111 47 -59 83 -54 hvcurveto
          149 -96 rlineto
          -44 68 35 -16 33 hhcurveto
          -183 217 rmoveto
          -66 -20 75 70 121 36 234 158 75 18 -54 -91 -119 -37 -236 -164 hvcurveto
          endchar
        </CharString>
        <CharString name="R">
          -57 callgsubr
          endchar
        </CharString>
        <CharString name="Racute">
          73 286 634 -98 callgsubr
          102 -669 rmoveto
          -96 callsubr
          endchar
        </CharString>
        <CharString name="Rcaron">
          73 256 795 -83 callgsubr
          -3 -727 rmoveto
          -96 callsubr
          endchar
        </CharString>
        <CharString name="Rcommaaccent">
          -57 callgsubr
          -74 -559 -71 callgsubr
        </CharString>
        <CharString name="S">
          -37 156 -58 callgsubr
          endchar
        </CharString>
        <CharString name="Sacute">
          -37 234 634 -98 callgsubr
          -51 -679 -98 callsubr
          endchar
        </CharString>
        <CharString name="Sacute.loclPLK">
          -37 289 -44 callsubr
          -102 -664 -98 callsubr
          endchar
        </CharString>
        <CharString name="Scaron">
          -37 209 795 -83 callgsubr
          -161 -737 -98 callsubr
          endchar
        </CharString>
        <CharString name="Scedilla">
          -37 421 215 rmoveto
          67 -32 44 -63 30 vhcurveto
          -67 34 rlineto
          -40 19 -23 19 44 vvcurveto
          59 44 28 65 34 28 -8 -7 16 vhcurveto
          10 -89 rlineto
          52 hlineto
          31 142 rlineto
          18 -49 -53 13 -56 hhcurveto
          -160 -86 -79 -133 -82 58 -46 35 -16 hvcurveto
          62 -31 rlineto
          43 -20 21 -23 -43 vvcurveto
          -59 -47 -37 -74 -44 -32 10 6 -19 vhcurveto
          -8 87 rlineto
          -53 hlineto
          -30 -141 42 -19 57 -9 49 -2 rlinecurve
          -34 -64 -73 callgsubr
          -32 callgsubr
          17 37 rlineto
          170 9 72 94 121 vvcurveto
          endchar
        </CharString>
        <CharString name="Scircumflex">
          -37 433 -80 callgsubr
          -169 -717 -98 callsubr
          endchar
        </CharString>
        <CharString name="Scommaaccent">
          -37 152 -58 callgsubr
          -33 -226 -71 callgsubr
        </CharString>
        <CharString name="T">
          -17 67 614 -63 callsubr
          endchar
        </CharString>
        <CharString name="Tbar">
          -17 532 455 rmoveto
          37 159 rlineto
          -502 hlineto
          -29 callgsubr
          -40 -203 rlineto
          -153 hlineto
          -10 -55 rlineto
          153 hlineto
          -43 -219 -29 callsubr
          295 hlineto
          8 45 -75 24 43 219 rlineto
          155 hlineto
          10 55 rlineto
          -155 hlineto
          40 203 rlineto
          105 -91 hlineto
          endchar
        </CharString>
        <CharString name="Tcaron">
          -17 220 795 -83 callgsubr
          -261 -113 -63 callsubr
          endchar
        </CharString>
        <CharString name="Thorn">
          0 -13 hmoveto
          295 hlineto
          8 45 -75 24 13 67 rlineto
          -2 13 22 -2 12 hhcurveto
          102 140 66 154 89 -51 45 -112 hvcurveto
          -58 hlineto
          12 60 -32 callsubr
          269 141 rmoveto
          -11 -9 1 2 -6 hvcurveto
          46 233 rlineto
          4 16 6 1 16 hhcurveto
          49 23 -30 -47 -107 -53 -57 -77 hvcurveto
          endchar
        </CharString>
        <CharString name="U">
          103 537 236 rmoveto
          -42 callgsubr
          204 53 162 84 16 vhcurveto
          endchar
        </CharString>
        <CharString name="Uacute">
          103 343 634 -98 callgsubr
          221 -433 rmoveto
          -42 callgsubr
          204 53 162 84 16 vhcurveto
          endchar
        </CharString>
        <CharString name="Ubreve">
          103 375 651 -103 callgsubr
          162 -415 rmoveto
          -42 callgsubr
          204 53 162 84 16 vhcurveto
          endchar
        </CharString>
        <CharString name="Ucircumflex">
          103 521 -80 callgsubr
          124 -471 rmoveto
          -42 callgsubr
          204 53 162 84 16 vhcurveto
          endchar
        </CharString>
        <CharString name="Udieresis">
          103 374 719 -101 callsubr
          -68 -483 rmoveto
          -42 callgsubr
          204 53 162 84 16 vhcurveto
          endchar
        </CharString>
        <CharString name="Ugrave">
          103 482 634 -77 callgsubr
          287 -507 rmoveto
          -42 callgsubr
          204 53 162 84 16 vhcurveto
          endchar
        </CharString>
        <CharString name="Uhorn">
          103 723 678 rmoveto
          -51 callsubr
          -28 -9 -41 vhcurveto
          -99 -106 callgsubr
          63 324 44 22 rlineto
          45 19 34 33 44 vvcurveto
          endchar
        </CharString>
        <CharString name="Uhungarumlaut">
          103 311 -44 callsubr
          192 -23 -82 callsubr
          96 -418 rmoveto
          -42 callgsubr
          204 53 162 84 16 vhcurveto
          endchar
        </CharString>
        <CharString name="Umacron">
          103 294 758 -37 callgsubr
          -18 -522 rmoveto
          -42 callgsubr
          204 53 162 84 16 vhcurveto
          endchar
        </CharString>
        <CharString name="Uogonek">
          103 537 236 rmoveto
          -43 callsubr
          9 9 1 9 hhcurveto
          -66 -43 -40 -66 -42 -45 callsubr
          -27 -11 15 26 22 23 84 84 39 hvcurveto
          110 47 34 112 13 65 rrcurveto
          endchar
        </CharString>
        <CharString name="Uring">
          103 407 -66 callgsubr
          -151 -684 rmoveto
          204 53 162 84 16 hvcurveto
          -43 callsubr
          endchar
        </CharString>
        <CharString name="Utilde">
          103 582 759 -96 callgsubr
          -45 -523 rmoveto
          -42 callgsubr
          204 53 162 84 16 vhcurveto
          endchar
        </CharString>
        <CharString name="V">
          10 400 569 rmoveto
          61 -21 -186 -364 -42 365 66 20 9 45 rlineto
          -264 hlineto
          -9 -45 63 -24 73 -552 86 10 277 542 72 22 8 47 rlineto
          -206 hlineto
          endchar
        </CharString>
        <CharString name="W">
          293 676 569 -79 callsubr
        </CharString>
        <CharString name="Wacute">
          293 446 634 -98 callgsubr
          257 -100 -79 callsubr
        </CharString>
        <CharString name="Wcircumflex">
          293 598 -80 callgsubr
          186 -138 -79 callsubr
        </CharString>
        <CharString name="Wdieresis">
          293 453 719 -101 callsubr
          -8 -150 -79 callsubr
        </CharString>
        <CharString name="Wgrave">
          293 516 634 -77 callgsubr
          392 -174 -79 callsubr
        </CharString>
        <CharString name="X">
          43 -55 hmoveto
          212 hlineto
          9 46 -64 19 139 166 67 -166 -62 -16 -9 -49 rlineto
          274 hlineto
          8 45 -69 20 -105 262 199 222 67 20 9 45 rlineto
          -215 hlineto
          -10 -49 65 -16 -141 -156 -62 156 70 16 10 49 rlineto
          -272 hlineto
          -9 -45 59 -20 100 -252 -197 -232 -65 -20 rlineto
          endchar
        </CharString>
        <CharString name="Y">
          -17 367 568 -89 callsubr
          endchar
        </CharString>
        <CharString name="Y.loclGUA">
          164 237 -167 -102 callsubr
        </CharString>
        <CharString name="Yacute">
          -17 273 634 -98 callgsubr
          124 -101 -89 callsubr
          endchar
        </CharString>
        <CharString name="Yacute.loclGUA">
          164 343 634 -98 callgsubr
          -79 -836 -102 callsubr
        </CharString>
        <CharString name="Ycircumflex">
          -17 459 -80 callgsubr
          19 -139 -89 callsubr
          endchar
        </CharString>
        <CharString name="Ycircumflex.loclGUA">
          164 296 -28 callgsubr
          -36 -836 -102 callsubr
        </CharString>
        <CharString name="Ydieresis">
          -17 318 719 -101 callsubr
          -179 -151 -89 callsubr
          endchar
        </CharString>
        <CharString name="Ydieresis.loclGUA">
          164 307 647 -76 callgsubr
          -302 -814 -102 callsubr
        </CharString>
        <CharString name="Ygrave">
          -17 413 634 -77 callgsubr
          -128 -743 rmoveto
          296 hlineto
          8 45 -75 24 36 187 188 289 71 25 9 44 rlineto
          -207 hlineto
          -9 -46 62 -20 -136 -211 -57 209 68 21 9 47 -265 -1 -9 -45 62 -24 81 -275 -39 -200 -85 -24 rlineto
          endchar
        </CharString>
        <CharString name="Ygrave.loclGUA">
          164 484 634 -77 callgsubr
          -15 -910 -102 callsubr
        </CharString>
        <CharString name="Z">
          -37 441 162 -81 callgsubr
          endchar
        </CharString>
        <CharString name="Zacute">
          -37 232 634 -98 callgsubr
          236 -507 -81 callgsubr
          endchar
        </CharString>
        <CharString name="Zacute.loclPLK">
          -37 289 -44 callsubr
          183 -492 -81 callgsubr
          endchar
        </CharString>
        <CharString name="Zcaron">
          -37 214 795 -83 callgsubr
          119 -565 -81 callgsubr
          endchar
        </CharString>
        <CharString name="Zdotaccent">
          -37 391 -61 callsubr
          50 -553 -81 callgsubr
          endchar
        </CharString>
        <CharString name="a">
          39 446 215 -107 callgsubr
          endchar
        </CharString>
        <CharString name="aacute">
          39 258 576 -98 callgsubr
          215 -396 -107 callgsubr
          endchar
        </CharString>
        <CharString name="abreve">
          39 319 591 -64 callsubr
          -376 -107 callgsubr
          endchar
        </CharString>
        <CharString name="acircumflex">
          39 432 575 -86 callgsubr
          101 -438 -107 callgsubr
          endchar
        </CharString>
        <CharString name="acute">
          -252 105 576 -98 callgsubr
          endchar
        </CharString>
        <CharString name="acute.case">
          -252 116 634 -98 callgsubr
          endchar
        </CharString>
        <CharString name="acute.loclPLK">
          -252 155 -43 callgsubr
          endchar
        </CharString>
        <CharString name="acute.loclPLK.case">
          -252 146 -44 callsubr
          endchar
        </CharString>
        <CharString name="acutecomb">
          -507 -139 634 -98 callgsubr
          endchar
        </CharString>
        <CharString name="adieresis">
          39 278 657 -101 callsubr
          -63 -442 -107 callgsubr
          endchar
        </CharString>
        <CharString name="ae">
          209 474 -10 -67 callgsubr
        </CharString>
        <CharString name="aeacute">
          209 343 576 -98 callgsubr
          158 -621 -67 callgsubr
        </CharString>
        <CharString name="agrave">
          39 412 578 -77 callgsubr
          266 -472 -107 callgsubr
          endchar
        </CharString>
        <CharString name="amacron">
          39 216 -46 callsubr
          -11 -482 -107 callgsubr
          endchar
        </CharString>
        <CharString name="ampersand">
          93 500 195 rmoveto
          88 -4 rlineto
          82 -271 vlineto
          7 -68 64 -4 -24 -122 rlineto
          -7 -21 -33 -10 -44 hhcurveto
          -63 -49 27 66 125 72 30 130 7 hvcurveto
          63 vlineto
          -61 14 -20 24 51 vvcurveto
          46 25 34 53 31 23 -5 -9 25 vhcurveto
          4 -87 rlineto
          64 hlineto
          34 149 rlineto
          19 -52 -61 13 -59 hhcurveto
          -102 -117 -42 -111 -56 35 -35 41 -20 hvcurveto
          -119 -25 -80 -88 -99 vvcurveto
          -108 84 -57 127 100 82 22 26 57 vhcurveto
          endchar
        </CharString>
        <CharString name="aogonek">
          39 387 -49 callsubr
          -24 -14 15 26 16 10 77 110 58 hvcurveto
          -21 callsubr
          -47 callgsubr
          vhcurveto
          0 -4 -33 -11 vvcurveto
          -37 27 -16 40 10 11 1 1 11 vhcurveto
          -97 -77 -2 -58 -17 vvcurveto
          -38 21 -38 71 vhcurveto
          -186 309 -19 callsubr
        </CharString>
        <CharString name="approxequal">
          3 79 313 -22 callgsubr
          49 -182 -22 callgsubr
          endchar
        </CharString>
        <CharString name="aring">
          39 318 -50 callsubr
          -161 -619 rmoveto
          -47 callgsubr
          hvcurveto
          0 -4 -33 -11 vvcurveto
          -37 27 -16 40 41 46 6 22 54 vhcurveto
          -21 callsubr
          vhcurveto
          37 82 -19 callsubr
        </CharString>
        <CharString name="aringacute">
          39 560 824 rmoveto
          -99 34 -156 -131 25 -33 rlineto
          -71 -12 -30 -50 -56 vvcurveto
          -31 17 -22 30 -10 vhcurveto
          -135 -21 -109 -141 -208 vvcurveto
          -52 callsubr
          -47 callgsubr
          vhcurveto
          -94 callgsubr
          -15 callsubr
          -68 10 -33 -33 rlineto
          0 -16 5 -22 4 vhcurveto
          54 13 37 40 55 vvcurveto
          -2 callgsubr
          -176 -183 rmoveto
          -29 -9 -37 -41 -29 -3 14 18 29 8 36 39 24 11 -14 -17 vhcurveto
          -80 -463 rmoveto
          -31 -20 -50 -51 -33 hhcurveto
          -21 -13 17 55 167 52 136 90 18 14 -3 -8 19 hvcurveto
          -95 -19 -36 -187 -1 hhcurveto
          endchar
        </CharString>
        <CharString name="arrowdown">
          51 61 325 rmoveto
          216 -297 rlineto
          16 hlineto
          202 297 -38 41 -132 -156 14 294 rlineto
          -106 hlineto
          11 -296 -142 157 rlineto
          endchar
        </CharString>
        <CharString name="arrowleft">
          51 220 308 rmoveto
          157 132 -41 37 -296 -201 rlineto
          -17 vlineto
          296 -215 40 39 -158 144 298 -11 rlineto
          106 vlineto
          endchar
        </CharString>
        <CharString name="arrowright">
          51 220 44 rmoveto
          298 215 rlineto
          17 vlineto
          -298 201 -40 -37 157 -132 -295 14 rlineto
          -106 vlineto
          296 11 -157 -144 rlineto
          endchar
        </CharString>
        <CharString name="arrowup">
          51 496 199 rmoveto
          -215 294 rlineto
          -19 hlineto
          -200 -294 37 -41 134 156 -13 -295 rlineto
          105 hlineto
          -11 297 142 -157 rlineto
          endchar
        </CharString>
        <CharString name="asciicircum">
          -55 19 249 rmoveto
          90 hlineto
          117 240 116 -240 rlineto
          90 hlineto
          -181 365 rlineto
          -50 hlineto
          endchar
        </CharString>
        <CharString name="asciitilde">
          10 163 249 rmoveto
          66 45 -54 65 hhcurveto
          50 44 34 69 38 hvcurveto
          -52 27 rlineto
          -39 -25 -16 -13 -35 -53 -60 52 -63 hhcurveto
          -43 -42 -29 -69 -33 hvcurveto
          48 -26 rlineto
          34 25 18 14 23 hhcurveto
          endchar
        </CharString>
        <CharString name="asterisk">
          -155 144 416 rmoveto
          69 100 rlineto
          11 hlineto
          32 -100 96 61 -63 81 5 10 115 18 -11 99 -113 -52 -8 6 38 114 rlineto
          -102 hlineto
          -5 -114 -7 -6 -96 52 -48 -99 106 -18 1 -10 -94 -81 rlineto
          endchar
        </CharString>
        <CharString name="at">
          229 421 555 rmoveto
          -248 -167 -165 -201 -161 116 -106 176 86 92 24 43 77 hvcurveto
          -21 49 rlineto
          -28 -64 -79 -17 -62 hhcurveto
          -135 -81 73 121 163 123 142 186 131 64 -71 -117 -88 -39 -60 -56 -16 -5 6 17 hvcurveto
          53 55 184 7 vvcurveto
          4 -15 3 -18 vhcurveto
          -28 -1 -15 -24 rlineto
          5 -21 -54 6 -24 hhcurveto
          -113 -89 -102 -129 -83 33 -43 64 54 45 29 54 33 hvcurveto
          -2 -7 -1 -12 -11 vvcurveto
          -36 26 -17 56 135 99 104 140 151 -109 101 -189 vhcurveto
          -108 -419 rmoveto
          -22 -2 17 28 95 41 78 53 16 6 -1 -5 13 hvcurveto
          -117 -19 -27 -95 -59 hhcurveto
          endchar
        </CharString>
        <CharString name="atilde">
          39 516 697 rmoveto
          -82 callgsubr
          4 callsubr
          -70 -482 -107 callgsubr
          endchar
        </CharString>
        <CharString name="b">
          17 208 -9 rmoveto
          4 callgsubr
          -51 -44 -29 -56 -47 hvcurveto
          -1 4 49 257 1 22 rrcurveto
          0 callsubr
          -124 -625 rlineto
          -15 29 62 -21 94 hhcurveto
          23 69 rmoveto
          -34 -19 8 15 -13 hvcurveto
          93 19 32 177 1 hhcurveto
          41 33 42 38 32 2 callsubr
        </CharString>
        <CharString name="backslash">
          -131 102 698 rmoveto
          -99 hlineto
          274 -837 rlineto
          96 hlineto
          endchar
        </CharString>
        <CharString name="bar">
          -134 244 698 rmoveto
          -115 -837 115 hlineto
          endchar
        </CharString>
        <CharString name="braceleft">
          -172 194 678 rmoveto
          -52 -374 -80 -37 -3 -15 67 -34 -95 -376 180 -35 19 41 -84 37 94 344 -72 31 84 31 40 344 98 37 -3 43 rlineto
          endchar
        </CharString>
        <CharString name="braceright">
          -172 -48 -193 rmoveto
          191 35 53 376 79 34 3 15 -66 37 94 374 -179 37 -19 -43 84 -37 -94 -344 72 -31 -84 -31 -40 -344 -97 -37 rlineto
          endchar
        </CharString>
        <CharString name="bracketleft">
          -172 238 -167 rmoveto
          10 48 -118 9 147 753 120 8 9 47 rlineto
          -235 hlineto
          -168 -865 rlineto
          endchar
        </CharString>
        <CharString name="bracketright">
          -172 96 698 rmoveto
          -9 -47 118 -8 -147 -753 -119 -9 -10 -48 rlineto
          233 hlineto
          168 865 rlineto
          endchar
        </CharString>
        <CharString name="breve">
          -252 194 591 -103 callgsubr
          endchar
        </CharString>
        <CharString name="breve.case">
          -252 206 651 -103 callgsubr
          endchar
        </CharString>
        <CharString name="brokenbar">
          -102 244 698 rmoveto
          -115 -323 115 hlineto
          -190 vmoveto
          -115 -324 115 hlineto
          endchar
        </CharString>
        <CharString name="bullet">
          -40 402 349 rmoveto
          81 -66 64 -80 -80 -67 -64 -81 -81 67 -64 80 80 66 64 81 vhcurveto
          endchar
        </CharString>
        <CharString name="c">
          -100 341 439 -84 callsubr
        </CharString>
        <CharString name="cacute">
          -100 231 576 -98 callgsubr
          137 -172 -84 callsubr
        </CharString>
        <CharString name="cacute.loclPLK">
          -100 279 -43 callgsubr
          93 -148 -84 callsubr
        </CharString>
        <CharString name="caron">
          -252 117 -78 callgsubr
          endchar
        </CharString>
        <CharString name="caron.case">
          -252 111 795 -83 callgsubr
          endchar
        </CharString>
        <CharString name="ccaron">
          -100 220 -78 callgsubr
          31 -228 -84 callsubr
        </CharString>
        <CharString name="ccedilla">
          -100 341 439 rmoveto
          10 -89 rlineto
          54 hlineto
          33 143 rlineto
          16 -34 -40 6 -40 hhcurveto
          -199 -95 -165 -199 -100 54 -47 74 -11 hvcurveto
          -35 -66 -73 callgsubr
          -32 callgsubr
          17 36 47 1 55 12 47 33 rlinecurve
          -12 49 rlineto
          -12 -38 -31 -6 -26 hhcurveto
          -61 -19 39 68 133 29 137 104 14 15 -1 -4 13 hvcurveto
          endchar
        </CharString>
        <CharString name="ccircumflex">
          -100 411 575 -86 callgsubr
          17 -214 -84 callsubr
        </CharString>
        <CharString name="cdotaccent">
          -100 324 585 -74 callsubr
          17 -146 -84 callsubr
        </CharString>
        <CharString name="cedilla">
          -252 21 -220 rmoveto
          -32 callgsubr
          25 52 rlineto
          -46 hlineto
          -43 -79 -73 callgsubr
          endchar
        </CharString>
        <CharString name="cent">
          31 224 36 rmoveto
          -25 -122 rlineto
          72 hlineto
          25 120 42 5 47 13 41 29 rlinecurve
          -12 50 rlineto
          -12 -40 -32 -6 -27 hhcurveto
          -63 -20 40 71 139 30 142 108 15 16 -1 -4 13 hvcurveto
          10 -93 rlineto
          57 hlineto
          34 149 -30 14 -34 7 -35 1 rlinecurve
          25 122 rlineto
          -72 hlineto
          -26 -126 rlineto
          -171 -27 -82 -159 -188 vvcurveto
          -104 56 -49 78 -11 vhcurveto
          endchar
        </CharString>
        <CharString name="circumflex">
          -252 297 575 -86 callgsubr
          endchar
        </CharString>
        <CharString name="circumflex.case">
          -252 326 -80 callgsubr
          endchar
        </CharString>
        <CharString name="colon">
          -287 148 340 rmoveto
          45 36 33 44 -40 callgsubr
          hvcurveto
          -61 -348 rmoveto
          45 36 33 44 -40 callgsubr
          hvcurveto
          endchar
        </CharString>
        <CharString name="comma">
          -300 12 -115 -1 callsubr
        </CharString>
        <CharString name="commaaccentInverted">
          -337 32 1 callgsubr
          endchar
        </CharString>
        <CharString name="copyright">
          -12 5 454 rmoveto
          -133 110 -111 133 -12 callsubr
          vhcurveto
          37 hmoveto
          -7 callsubr
          -112 -95 97 114 vhcurveto
          306 -141 rmoveto
          -4 66 rlineto
          -33 hlineto
          -13 -45 rlineto
          -5 -17 -10 -1 -13 hhcurveto
          -61 -19 63 61 63 15 63 67 12 10 -2 -4 16 hvcurveto
          7 -50 rlineto
          33 hlineto
          10 76 rlineto
          9 -30 -34 6 -33 hhcurveto
          -110 -43 -72 -89 -87 44 -72 109 39 29 7 13 29 hvcurveto
          endchar
        </CharString>
        <CharString name="currency">
          31 41 79 rmoveto
          37 -50 66 54 rlineto
          -23 28 38 -13 44 hhcurveto
          43 43 12 24 38 hvcurveto
          43 -53 57 50 -43 51 rlineto
          39 42 25 58 54 vvcurveto
          29 -7 27 -11 25 vhcurveto
          63 53 -39 48 -63 -53 rlineto
          24 -28 -39 14 -43 hhcurveto
          -44 -42 -14 -24 -38 hvcurveto
          -42 54 -59 -49 43 -53 rlineto
          -39 -44 -25 -55 -58 vvcurveto
          -28 6 -27 12 -23 vhcurveto
          70 118 rmoveto
          66 13 63 54 65 hhcurveto
          58 41 -42 -55 -75 -72 -66 -73 -57 -40 41 54 7 0 8 2 8 hvcurveto
          endchar
        </CharString>
        <CharString name="d">
          32 152 -10 -85 callsubr
          50 82 -69 callgsubr
          endchar
        </CharString>
        <CharString name="dagger">
          -57 239 hmoveto
          63 440 -16 callsubr
          -111 -440 rlineto
          endchar
        </CharString>
        <CharString name="daggerdbl">
          -51 133 hmoveto
          121 hlineto
          7 140 131 -18 21 108 -139 -20 47 115 rlineto
          115 vlineto
          -16 callsubr
          -48 -115 1 -115 -130 20 -21 -108 136 18 rlineto
          endchar
        </CharString>
        <CharString name="dcaron">
          71 570 -22 callsubr
          -403 -749 -85 callsubr
          50 82 -69 callgsubr
          endchar
        </CharString>
        <CharString name="dcroat">
          35 152 -10 rmoveto
          70 41 42 55 35 hvcurveto
          0 -4 -31 -13 vvcurveto
          -36 25 -17 41 38 49 6 22 55 -5 callsubr
          71 80 16 hvcurveto
          0 38 204 26 147 vhcurveto
          80 60 -69 hlineto
          8 45 5 34 7 vvcurveto
          14 -8 10 -18 -46 -61 -5 -18 -78 vhcurveto
          10 -42 73 -8 -8 -37 rlineto
          -161 -60 149 hlineto
          -12 -60 rlineto
          5 -19 -20 2 -21 hhcurveto
          -168 -117 -140 -231 -119 66 -35 57 hvcurveto
          50 82 -69 callgsubr
          endchar
        </CharString>
        <CharString name="degree">
          -64 380 559 rmoveto
          87 -71 73 -88 -86 -72 -73 -87 -88 72 -69 86 88 71 69 88 vhcurveto
          -159 108 rmoveto
          58 34 -48 -60 -60 -34 -46 -58 -58 -33 46 60 60 33 48 58 hvcurveto
          endchar
        </CharString>
        <CharString name="dieresis">
          -252 167 657 -101 callsubr
          endchar
        </CharString>
        <CharString name="dieresis.case">
          -252 179 719 -101 callsubr
          endchar
        </CharString>
        <CharString name="divide">
          3 256 389 -5 callgsubr
          -208 -127 -15 callgsubr
          208 -254 -5 callgsubr
          endchar
        </CharString>
        <CharString name="dollar">
          3 133 -118 rmoveto
          66 hlineto
          24 123 rlineto
          150 16 70 90 107 vvcurveto
          59 -28 35 -49 23 vhcurveto
          -94 44 rlineto
          -42 20 -30 19 39 vvcurveto
          80 79 20 53 22 38 -5 -5 15 vhcurveto
          3 -94 rlineto
          52 hlineto
          36 134 -44 15 -46 12 -49 3 rlinecurve
          20 101 rlineto
          -68 hlineto
          -20 -103 rlineto
          -126 -14 -85 -83 -126 vvcurveto
          -1 -62 33 -30 43 -20 92 -43 rcurveline
          48 -22 25 -16 -34 vvcurveto
          -66 -59 -37 -78 -38 -35 9 6 -21 vhcurveto
          1 82 rlineto
          -55 hlineto
          -38 -127 46 -18 60 -10 54 -2 rlinecurve
          endchar
        </CharString>
        <CharString name="dotaccent">
          -252 207 585 -74 callsubr
          endchar
        </CharString>
        <CharString name="dotaccent.case">
          -252 303 -61 callsubr
          endchar
        </CharString>
        <CharString name="dotbelowcomb">
          -507 -199 -40 -101 callgsubr
          endchar
        </CharString>
        <CharString name="dotlessi">
          -198 262 493 -95 callgsubr
          endchar
        </CharString>
        <CharString name="e">
          -68 320 515 -106 callsubr
          endchar
        </CharString>
        <CharString name="eacute">
          -74 234 576 -98 callgsubr
          113 -96 -106 callsubr
          endchar
        </CharString>
        <CharString name="ebreve">
          -68 278 591 -103 callgsubr
          42 -76 -106 callsubr
          endchar
        </CharString>
        <CharString name="ecaron">
          -74 218 -78 callgsubr
          12 -152 -106 callsubr
          endchar
        </CharString>
        <CharString name="ecircumflex">
          -74 399 575 -86 callgsubr
          8 -138 -106 callsubr
          endchar
        </CharString>
        <CharString name="edieresis">
          -74 247 657 -101 callsubr
          -158 -142 -106 callsubr
          endchar
        </CharString>
        <CharString name="edotaccent">
          -74 312 734 -101 callgsubr
          8 -219 -106 callsubr
          endchar
        </CharString>
        <CharString name="egrave">
          -74 390 576 -77 callgsubr
          162 -170 -106 callsubr
          endchar
        </CharString>
        <CharString name="eight">
          -59 callsubr
        </CharString>
        <CharString name="eight.dnom">
          -94 161 -4 -91 callsubr
          9 -6 rlineto
          24 -17 27 -22 -19 callgsubr
        </CharString>
        <CharString name="eight.numr">
          -94 161 164 -91 callsubr
          10 -7 rlineto
          24 -17 26 -21 -19 callgsubr
        </CharString>
        <CharString name="eight.osf">
          -59 callsubr
        </CharString>
        <CharString name="ellipsis">
          72 -10 62 rmoveto
          -40 33 -30 40 40 33 30 40 43 -33 33 -40 -40 -33 3 callsubr
          34 30 40 43 -34 33 -41 -39 -32 3 callsubr
          33 30 40 43 -33 33 -41 -39 -32 -33 -43 vhcurveto
          endchar
        </CharString>
        <CharString name="emacron">
          -74 190 -46 callsubr
          -111 -182 -106 callsubr
          endchar
        </CharString>
        <CharString name="emdash">
          327 833 203 rmoveto
          74 -833 -74 vlineto
          endchar
        </CharString>
        <CharString name="endash">
          213 720 203 rmoveto
          74 -720 -74 vlineto
          endchar
        </CharString>
        <CharString name="eng">
          62 452 515 rmoveto
          -45 -80 -29 -68 -77 hvcurveto
          -73 callsubr
          -86 -435 -48 callsubr
          39 35 60 36 27 hhcurveto
          18 1 -14 -11 -34 -6 -39 -67 -341 hvcurveto
          -75 -15 -41 -22 -44 hhcurveto
          -23 -26 6 9 -22 hvcurveto
          -17 -52 rlineto
          -17 31 47 -17 56 hhcurveto
          105 60 61 98 18 hvcurveto
          65 354 13 76 43 vvcurveto
          44 -12 23 -50 vhcurveto
          endchar
        </CharString>
        <CharString name="eogonek">
          -74 242 -49 callsubr
          -27 -11 15 26 53 51 69 64 39 hvcurveto
          13 8 -12 49 rlineto
          -14 -37 -37 -4 -31 hhcurveto
          -63 -22 38 67 26 1 13 3 23 hvcurveto
          181 98 69 113 67 -51 32 -76 -203 -88 -180 -168 -130 71 -47 91 20 17 1 2 16 hvcurveto
          -58 -51 -36 -49 -53 vvcurveto
          -38 21 -38 71 vhcurveto
          -67 525 rmoveto
          98 17 43 57 56 hhcurveto
          34 6 -19 -22 -71 -64 -43 -92 hvcurveto
          endchar
        </CharString>
        <CharString name="equal">
          3 40 350 -15 callgsubr
          -256 vmoveto
          414 79 -414 hlineto
          endchar
        </CharString>
        <CharString name="estimated">
          192 170 289 rmoveto
          489 14 hlineto
          176 -140 140 -176 -174 -141 -140 -176 -174 141 -141 174 103 108 53 78 49 vhcurveto
          -67 hlineto
          -51 -50 -60 -33 -82 hhcurveto
          -75 -47 29 44 -50 hvcurveto
          -3 4 -4 7 8 vvcurveto
          159 vlineto
          2 3 1 2 vhcurveto
          349 193 rmoveto
          -144 vlineto
          -2 -1 -2 -2 vhcurveto
          -346 hlineto
          -2 -3 2 2 hvcurveto
          141 vlineto
          8 4 7 4 6 vhcurveto
          38 31 58 38 82 hhcurveto
          89 44 -30 -44 35 hvcurveto
          4 -5 3 -7 -8 vvcurveto
          endchar
        </CharString>
        <CharString name="eth">
          -3 179 -10 rmoveto
          168 115 123 212 12 hvcurveto
          5 1 6 5 vvcurveto
          20 vlineto
          -1 87 -33 95 -61 84 82 53 rcurveline
          -31 48 -87 -55 -28 31 -32 29 -35 27 rlinecurve
          -44 -42 28 -31 23 -29 19 -29 rlinecurve
          -84 -53 31 -50 82 53 9 -20 8 -21 6 -23 rlinecurve
          -5 hlineto
          -176 -117 -136 -237 -89 46 -63 104 hvcurveto
          30 66 -68 callsubr
        </CharString>
        <CharString name="exclam">
          -227 82 188 rmoveto
          87 hlineto
          112 426 rlineto
          -147 hlineto
          -29 -622 -6 callgsubr
          endchar
        </CharString>
        <CharString name="exclamdown">
          -227 186 372 -6 callgsubr
          -181 -493 rmoveto
          147 hlineto
          53 428 rlineto
          -87 hlineto
          endchar
        </CharString>
        <CharString name="f">
          -201 -23 1 callsubr
          104 70 -92 5 callgsubr
          30 -4 -2 28 hvcurveto
          19 58 rlineto
          18 -34 -48 13 -41 hhcurveto
          -125 -41 -61 callgsubr
          endchar
        </CharString>
        <CharString name="f_f">
          105 634 738 rmoveto
          -125 -41 -72 -97 -17 hvcurveto
          -13 -70 -93 -26 rlineto
          19 -92 vlineto
          13 72 12 72 13 18 62 1 rlinecurve
          21 30 -4 -2 28 hvcurveto
          19 58 rlineto
          18 -34 -48 13 -41 hhcurveto
          -125 -41 -61 callgsubr
          -25 callsubr
          104 35 hlineto
          9 -35 rlineto
          67 hlineto
          -73 -443 rlineto
          -71 -13 -22 -23 -68 hhcurveto
          -26 -25 5 7 -20 hvcurveto
          -13 -53 rlineto
          -14 26 36 -14 60 hhcurveto
          -25 callsubr
          104 70 -92 hlineto
          13 72 12 72 13 -8 callgsubr
        </CharString>
        <CharString name="fi">
          82 -1 callgsubr
          163 hlineto
          -28 -135 -49 -211 -28 vvcurveto
          -47 24 -11 46 -33 callgsubr
          vhcurveto
          48 -75 vlineto
          33 147 46 242 15 vvcurveto
          13 -8 9 -13 vhcurveto
          -262 5 callgsubr
          9 -1 -2 28 hvcurveto
          17 64 rlineto
          15 -26 -33 7 -49 hhcurveto
          -114 -44 -61 callgsubr
          534 769 -74 callsubr
          endchar
        </CharString>
        <CharString name="five">
          3 494 614 7 callgsubr
          174 48 -29 -78 -100 -71 -52 -84 -75 -30 5 12 -40 hvcurveto
          -17 -75 rlineto
          -13 51 59 -5 68 hhcurveto
          178 96 103 132 93 0 callgsubr
        </CharString>
        <CharString name="five.dnom">
          -94 380 429 -74 callgsubr
          endchar
        </CharString>
        <CharString name="five.numr">
          -94 380 605 -74 callgsubr
          endchar
        </CharString>
        <CharString name="five.osf">
          3 478 528 7 callgsubr
          176 46 -29 -81 -97 -66 -52 -103 -28 -59 4 10 -44 hvcurveto
          -17 -72 rlineto
          -13 49 70 -6 47 hhcurveto
          197 89 104 133 92 0 callgsubr
        </CharString>
        <CharString name="fiveeighths">
          469 323 -56 callgsubr
          -176 -42 -74 callgsubr
          356 -546 -91 callsubr
          9 -6 rlineto
          24 -17 27 -22 -19 callgsubr
        </CharString>
        <CharString name="fl">
          93 -1 callgsubr
          92 70 -80 -4 callsubr
          19 44 -4 -6 29 hvcurveto
          -24 -116 -49 -260 -26 -135 rrcurveto
          -8 -47 -9 -33 -5 vvcurveto
          -43 27 -16 39 29 59 8 20 58 vhcurveto
          48 -77 vlineto
          0 84 465 22 142 vhcurveto
          3 22 2 14 4 vvcurveto
          14 -8 11 -17 -35 -28 -15 -15 -22 vhcurveto
          16 -37 -63 14 -37 hhcurveto
          -125 -41 -61 callgsubr
          endchar
        </CharString>
        <CharString name="florin">
          -140 -18 -183 rmoveto
          76 82 42 100 21 hvcurveto
          61 347 rlineto
          149 hlineto
          12 69 rlineto
          -148 hlineto
          145 20 34 22 51 hhcurveto
          9 11 -1 -2 6 hvcurveto
          14 -74 rlineto
          57 hlineto
          16 132 rlineto
          13 -45 -29 8 -54 hhcurveto
          -104 -62 -69 -174 -29 hvcurveto
          -96 hlineto
          -13 -69 rlineto
          97 hlineto
          -52 -287 rlineto
          -85 -16 -46 -39 -31 hhcurveto
          -82 hlineto
          -15 -52 rlineto
          -15 23 47 -11 36 hhcurveto
          endchar
        </CharString>
        <CharString name="four">
          3 237 hmoveto
          124 hlineto
          24 135 -23 callsubr
        </CharString>
        <CharString name="four.dnom">
          -94 184 hmoveto
          -63 callgsubr
        </CharString>
        <CharString name="four.numr">
          -94 184 172 rmoveto
          -63 callgsubr
        </CharString>
        <CharString name="four.osf">
          3 220 -90 rmoveto
          124 hlineto
          25 141 -23 callsubr
        </CharString>
        <CharString name="fraction">
          -327 -68 -56 callgsubr
          endchar
        </CharString>
        <CharString name="g">
          -2 134 -183 -102 callgsubr
        </CharString>
        <CharString name="g_tilde.loclGUA">
          -2 418 593 rmoveto
          -67 callsubr
          -82 callgsubr
          -21 callgsubr
          -284 -776 -102 callgsubr
        </CharString>
        <CharString name="gbreve">
          -2 306 591 -103 callgsubr
          -172 -774 -102 callgsubr
        </CharString>
        <CharString name="gcaron">
          -2 233 -78 callgsubr
          -189 -850 -102 callgsubr
        </CharString>
        <CharString name="gcircumflex">
          -2 420 575 -86 callgsubr
          -199 -836 -102 callgsubr
        </CharString>
        <CharString name="gcommaaccent">
          -2 265 1 callgsubr
          -111 -768 -102 callgsubr
        </CharString>
        <CharString name="gdotaccent">
          -2 333 585 -74 callsubr
          -199 -768 -102 callgsubr
        </CharString>
        <CharString name="germandbls">
          132 421 -9 rmoveto
          119 79 61 93 hvcurveto
          136 -173 20 79 76 162 -1 130 vvcurveto
          81 -65 43 -124 -149 -80 -62 -148 -39 vhcurveto
          -78 -10 callsubr
          84 434 rlineto
          102 20 36 36 79 hhcurveto
          54 31 -21 -36 hvcurveto
          -86 -161 -22 -127 -133 174 -15 -80 vvcurveto
          -35 -33 -21 -57 -13 -11 1 5 -19 vhcurveto
          87 -47 vlineto
          -37 -141 rlineto
          -13 29 52 -8 49 hhcurveto
          endchar
        </CharString>
        <CharString name="grave">
          -252 310 576 -77 callgsubr
          endchar
        </CharString>
        <CharString name="grave.case">
          -252 321 634 -77 callgsubr
          endchar
        </CharString>
        <CharString name="gravecomb">
          -507 66 634 -77 callgsubr
          endchar
        </CharString>
        <CharString name="greater">
          3 82 97 rmoveto
          382 204 -382 204 -42 -70 266 -134 -266 -134 rlineto
          endchar
        </CharString>
        <CharString name="greaterequal">
          3 83 107 rmoveto
          384 194 -384 194 -40 -67 266 -127 -266 -127 rlineto
          4 -174 -15 callgsubr
          endchar
        </CharString>
        <CharString name="guillemotleft">
          -107 18 239 rmoveto
          106 -178 -3 callsubr
          rlineto
          101 -357 rmoveto
          -3 callsubr
          -176 -179 rlineto
          endchar
        </CharString>
        <CharString name="guillemotright">
          -107 34 61 rmoveto
          177 178 -107 179 -59 -34 50 -145 -106 -143 rlineto
          217 -35 rmoveto
          175 178 -105 179 -59 -34 48 -145 -104 -143 rlineto
          endchar
        </CharString>
        <CharString name="guilsinglleft">
          -263 24 239 rmoveto
          106 -178 -3 callsubr
          rlineto
          endchar
        </CharString>
        <CharString name="guilsinglright">
          -263 134 418 rmoveto
          -59 -34 50 -145 -106 -143 45 -35 176 178 rlineto
          endchar
        </CharString>
        <CharString name="h">
          55 32 -10 -72 callsubr
          3 16 46 268 10 vvcurveto
          15 -8 11 -18 -45 -81 -17 -20 -59 -24 callsubr
          endchar
        </CharString>
        <CharString name="hbar">
          55 32 -10 -72 callsubr
          2 8 12 71 12 71 rrcurveto
          147 hlineto
          11 60 rlineto
          -148 hlineto
          8 45 5 34 7 vvcurveto
          14 -8 10 -18 -46 -60 -5 -18 -77 vhcurveto
          10 -42 73 -8 -8 -37 rlineto
          -84 hlineto
          -11 -60 rlineto
          84 hlineto
          endchar
        </CharString>
        <CharString name="hcircumflex">
          55 359 742 -94 callsubr
          -219 -820 -72 callsubr
          3 16 46 268 10 vvcurveto
          15 -8 11 -18 -45 -81 -17 -20 -59 -24 callsubr
          endchar
        </CharString>
        <CharString name="hookabovecomb">
          -507 -104 545 -105 callsubr
          endchar
        </CharString>
        <CharString name="hungarumlaut">
          -252 65 -43 callgsubr
          192 -23 -82 callsubr
          endchar
        </CharString>
        <CharString name="hungarumlaut.case">
          -252 78 -44 callsubr
          192 -23 -82 callsubr
          endchar
        </CharString>
        <CharString name="hyphen">
          -225 274 203 rmoveto
          74 -265 -74 vlineto
          endchar
        </CharString>
        <CharString name="i">
          -198 229 734 -101 callgsubr
          33 -241 -95 callgsubr
          endchar
        </CharString>
        <CharString name="i.loclTRK">
          -198 235 585 -74 callsubr
          27 -92 -95 callgsubr
          endchar
        </CharString>
        <CharString name="iacute">
          -198 120 576 -98 callgsubr
          25 -621 -68 callgsubr
        </CharString>
        <CharString name="iacute_j.loclNLD">
          94 140 576 -98 callgsubr
          327 -35 -98 callgsubr
          -151 -118 -95 callgsubr
          312 -1 rmoveto
          -83 callsubr
          -24 callgsubr
          vhcurveto
          -31 callsubr
          endchar
        </CharString>
        <CharString name="ibreve">
          -198 213 591 -103 callgsubr
          49 -98 -95 callgsubr
          endchar
        </CharString>
        <CharString name="icircumflex">
          -198 75 -39 callsubr
          72 -616 -68 callgsubr
        </CharString>
        <CharString name="idieresis">
          -198 154 657 rmoveto
          41 -34 32 -40 -41 -37 -32 -41 -42 37 -30 41 40 34 30 42 vhcurveto
          211 hmoveto
          41 -35 32 -38 -42 -35 -32 -41 -42 35 -30 42 38 35 30 42 vhcurveto
          -103 -164 -95 callgsubr
          endchar
        </CharString>
        <CharString name="igrave">
          -198 287 576 -77 callgsubr
          63 -695 -68 callgsubr
        </CharString>
        <CharString name="ij">
          94 229 734 -101 callgsubr
          300 -149 -74 callsubr
          -267 -92 -95 callgsubr
          29 -677 rmoveto
          -24 callgsubr
          hvcurveto
          -31 callsubr
          -83 callsubr
          vhcurveto
          endchar
        </CharString>
        <CharString name="imacron">
          -198 85 -46 callsubr
          -64 -204 -95 callgsubr
          endchar
        </CharString>
        <CharString name="infinity">
          205 356 349 rmoveto
          39 -30 -54 56 -79 hhcurveto
          -127 -27 -86 -59 -61 27 -87 127 79 54 57 39 30 hvcurveto
          -39 30 54 -57 83 hhcurveto
          120 28 83 65 63 -28 82 -120 -83 -54 -56 -39 -30 hvcurveto
          -237 -50 rmoveto
          28 10 45 62 58 44 -49 -24 22 vhcurveto
          -27 -23 -42 -49 -59 hhcurveto
          -62 -10 46 30 hvcurveto
          475 hmoveto
          -30 -10 -46 -64 -60 -43 49 27 -21 vhcurveto
          24 21 43 49 60 hhcurveto
          64 10 -45 -28 hvcurveto
          endchar
        </CharString>
        <CharString name="integral">
          -68 118 -134 rmoveto
          79 72 44 89 hvcurveto
          587 vlineto
          44 23 15 21 12 12 -3 -6 7 vhcurveto
          12 -65 rlineto
          51 hlineto
          16 106 rlineto
          14 -18 -65 10 -25 hhcurveto
          -79 -72 -44 -89 hvcurveto
          -587 vlineto
          -44 -23 -15 -21 -12 -12 3 6 -7 vhcurveto
          -12 65 rlineto
          -51 hlineto
          -16 -106 rlineto
          -14 18 65 -10 25 hhcurveto
          endchar
        </CharString>
        <CharString name="iogonek">
          -198 229 734 -101 callgsubr
          33 -241 rmoveto
          13 -8 9 -13 -29 -86 -16 -20 -75 vhcurveto
          10 -42 66 -8 rlineto
          -28 -134 -51 -218 -29 vvcurveto
          -47 24 -11 46 8 9 0 1 9 vhcurveto
          -95 -76 1 -58 -17 -45 callsubr
          -24 -14 15 26 16 5 77 110 58 hvcurveto
          48 -75 vlineto
          33 147 51 265 15 vvcurveto
          endchar
        </CharString>
        <CharString name="itilde">
          -198 276 593 rmoveto
          -67 callsubr
          -82 callgsubr
          -21 callgsubr
          -158 -603 -68 callgsubr
        </CharString>
        <CharString name="j">
          -215 220 585 -74 callsubr
          -238 -769 rmoveto
          -24 callgsubr
          hvcurveto
          -31 callsubr
          -83 callsubr
          vhcurveto
          endchar
        </CharString>
        <CharString name="jcircumflex">
          -215 313 575 -86 callgsubr
          39 -161 rmoveto
          -83 callsubr
          -24 callgsubr
          vhcurveto
          -31 callsubr
          endchar
        </CharString>
        <CharString name="k">
          21 169 4 rmoveto
          -64 callgsubr
          22 129 26 148 16 vvcurveto
          13 -7 12 -19 -42 -74 -14 -23 -69 vhcurveto
          10 -41 72 -9 -131 -661 rlineto
          endchar
        </CharString>
        <CharString name="kcommaaccent">
          16 27 -10 rmoveto
          137 14 -64 callgsubr
          22 129 26 148 16 vvcurveto
          13 -7 12 -19 -42 -74 -14 -23 -69 -24 callsubr
          16 -887 -71 callgsubr
        </CharString>
        <CharString name="kgreenlandic">
          28 176 4 rmoveto
          -64 callgsubr
          4 29 5 22 16 vvcurveto
          13 -7 12 -19 -37 -95 -18 -19 -58 -31 callgsubr
          rlineto
          endchar
        </CharString>
        <CharString name="l">
          -196 110 -10 -30 callgsubr
        </CharString>
        <CharString name="lacute">
          -196 105 724 rmoveto
          238 84 3 22 -95 47 -169 -115 rlineto
          28 -772 -30 callgsubr
        </CharString>
        <CharString name="lcaron">
          -160 326 -22 callsubr
          -201 -749 -30 callgsubr
        </CharString>
        <CharString name="lcommaaccent">
          -196 110 -10 -78 callsubr
          -39 -226 -71 callgsubr
        </CharString>
        <CharString name="ldot">
          -196 110 -10 -78 callsubr
          302 421 rmoveto
          -40 callgsubr
          45 36 33 44 vhcurveto
          endchar
        </CharString>
        <CharString name="less">
          3 409 97 rmoveto
          42 70 -266 134 266 134 -42 70 -382 -204 rlineto
          endchar
        </CharString>
        <CharString name="lessequal">
          3 427 105 rmoveto
          40 69 -266 127 266 127 -40 67 -384 -194 rlineto
          6 -301 -15 callgsubr
          endchar
        </CharString>
        <CharString name="logicalnot">
          43 407 116 rmoveto
          75 225 -415 -79 340 hlineto
          endchar
        </CharString>
        <CharString name="longs">
          -181 348 738 rmoveto
          -127 -35 -51 -188 -34 hvcurveto
          -79 -10 callsubr
          95 500 14 72 11 -8 callgsubr
        </CharString>
        <CharString name="lozenge">
          -59 201 -1 rmoveto
          50 hlineto
          191 308 -191 307 rlineto
          -50 hlineto
          -192 -307 rlineto
          217 -213 rmoveto
          -122 213 122 212 121 -212 rlineto
          endchar
        </CharString>
        <CharString name="lslash">
          -189 235 358 rmoveto
          120 54 -26 59 -81 -36 43 244 rlineto
          3 18 1 12 4 vvcurveto
          14 -8 11 -17 -44 -84 -17 -20 -58 -24 callsubr
          0 -28 -136 -28 -142 vhcurveto
          -117 -53 25 -59 77 34 rlineto
          -25 -124 -21 -111 -11 vvcurveto
          -43 27 -16 39 29 59 8 20 58 vhcurveto
          48 -77 vlineto
          endchar
        </CharString>
        <CharString name="m">
          321 39 -10 -13 callsubr
          35 35 53 40 28 hhcurveto
          20 1 -15 -21 -32 -50 -232 -25 -133 hvcurveto
          -48 callsubr
          35 32 57 40 29 hhcurveto
          17 2 -12 -18 hvcurveto
          -42 -68 -259 -32 vvcurveto
          -66 35 -4 44 36 54 11 17 38 -13 callgsubr
          222 34 vvcurveto
          46 -15 19 -51 -54 -84 -43 -54 -57 vhcurveto
          2 13 1 13 10 vvcurveto
          35 -26 26 -39 -61 -82 -43 -54 -57 vhcurveto
          3 16 7 40 11 vvcurveto
          0 1 27 -28 -41 -89 -17 -20 -59 vhcurveto
          10 -41 71 -9 rlineto
          endchar
        </CharString>
        <CharString name="macron">
          -252 92 -46 callsubr
          endchar
        </CharString>
        <CharString name="macron.case">
          -252 94 758 -37 callgsubr
          endchar
        </CharString>
        <CharString name="minus">
          3 48 262 -15 callgsubr
          endchar
        </CharString>
        <CharString name="multiply">
          3 108 113 rmoveto
          134 134 133 -132 56 57 -133 131 133 132 -58 56 -131 -131 -132 133 -58 -56 133 -134 -133 -132 rlineto
          endchar
        </CharString>
        <CharString name="n">
          62 250 418 -97 callgsubr
          endchar
        </CharString>
        <CharString name="nacute">
          62 260 576 -98 callgsubr
          17 -193 -97 callgsubr
          endchar
        </CharString>
        <CharString name="nacute.loclPLK">
          62 320 -43 callgsubr
          -39 -169 -97 callgsubr
          endchar
        </CharString>
        <CharString name="napostrophe">
          93 185 -22 callsubr
          80 -321 -97 callgsubr
          endchar
        </CharString>
        <CharString name="ncaron">
          62 253 -78 callgsubr
          -93 -249 -97 callgsubr
          endchar
        </CharString>
        <CharString name="ncommaaccent">
          62 39 -10 -13 callsubr
          39 35 60 36 27 hhcurveto
          18 1 -14 -11 hvcurveto
          -40 -69 -267 -35 vvcurveto
          -55 28 -11 46 42 54 11 17 37 -13 callgsubr
          217 37 vvcurveto
          44 -12 23 -50 -45 -80 -29 -68 -77 vhcurveto
          -73 callsubr
          rlineto
          82 -661 -71 callgsubr
        </CharString>
        <CharString name="nine">
          3 57 -17 rmoveto
          211 2 218 146 299 vvcurveto
          105 -49 94 -136 -204 -52 -172 -66 -100 35 -62 112 66 42 19 20 37 vhcurveto
          -24 -116 -135 -97 -129 -20 rrcurveto
          197 274 rmoveto
          -49 -25 31 77 85 46 56 58 68 18 -41 -61 -33 -4 -46 -8 -34 hvcurveto
          -19 -33 -27 -15 -44 hhcurveto
          endchar
        </CharString>
        <CharString name="nine.dnom">
          -94 68 -5 rmoveto
          21 22 2 5 22 hvcurveto
          104 23 104 77 29 131 rrcurveto
          5 24 3 24 27 -38 callgsubr
          -18 -60 -63 -42 -52 -19 rrcurveto
          -8 -21 -19 -4 -14 -54 callsubr
        </CharString>
        <CharString name="nine.numr">
          -94 68 167 rmoveto
          16 17 1 3 17 hvcurveto
          109 19 114 79 30 140 rrcurveto
          4 22 3 24 25 -38 callgsubr
          -20 -65 -72 -44 -54 -17 rrcurveto
          -4 -16 -14 -3 -11 -54 callsubr
        </CharString>
        <CharString name="nine.osf">
          3 41 -100 rmoveto
          212 217 162 255 114 -43 108 -154 -178 -66 -143 -96 -90 58 -71 98 57 52 24 15 27 hvcurveto
          -24 -113 -135 -94 -129 -19 rrcurveto
          201 267 rmoveto
          -53 -25 31 71 92 41 55 69 62 18 -44 -61 -29 -4 -47 -8 -34 hvcurveto
          -17 -29 -32 -17 -39 hhcurveto
          endchar
        </CharString>
        <CharString name="notequal">
          3 160 59 rmoveto
          66 114 rlineto
          236 79 -190 hlineto
          57 98 rlineto
          133 79 -87 hlineto
          43 74 -68 41 -67 -115 rlineto
          -235 -79 189 hlineto
          -56 -98 rlineto
          -133 -79 87 hlineto
          -43 -74 rlineto
          endchar
        </CharString>
        <CharString name="ntilde">
          62 518 697 rmoveto
          -82 callgsubr
          4 callsubr
          -268 -279 -97 callgsubr
          endchar
        </CharString>
        <CharString name="numbersign">
          51 411 235 rmoveto
          24 88 rlineto
          102 hlineto
          21 77 rlineto
          -102 hlineto
          46 167 rlineto
          -83 hlineto
          -45 -167 rlineto
          -113 hlineto
          49 167 rlineto
          -84 hlineto
          -47 -167 rlineto
          -115 hlineto
          -23 -77 rlineto
          118 hlineto
          -24 -88 rlineto
          -113 hlineto
          -22 -76 rlineto
          114 hlineto
          -47 -167 rlineto
          84 hlineto
          46 167 rlineto
          112 hlineto
          -48 -167 rlineto
          84 hlineto
          46 167 rlineto
          102 hlineto
          25 76 rlineto
          -301 hmoveto
          23 88 rlineto
          114 hlineto
          -25 -88 rlineto
          endchar
        </CharString>
        <CharString name="o">
          -3 322 515 -100 callgsubr
        </CharString>
        <CharString name="oacute">
          -3 237 576 -98 callgsubr
          112 -96 -100 callgsubr
        </CharString>
        <CharString name="oacute.loclPLK">
          -3 287 -43 callgsubr
          66 -72 -100 callgsubr
        </CharString>
        <CharString name="obreve">
          -3 310 591 -103 callgsubr
          12 -76 -100 callgsubr
        </CharString>
        <CharString name="ocircumflex">
          -3 411 575 -86 callgsubr
          -2 -62 callsubr
          endchar
        </CharString>
        <CharString name="odieresis">
          -3 261 657 -101 callsubr
          -170 -142 -100 callgsubr
        </CharString>
        <CharString name="oe">
          223 179 -10 rmoveto
          70 60 22 41 48 hvcurveto
          -42 29 47 -21 55 hhcurveto
          93 50 25 21 32 hvcurveto
          -12 49 rlineto
          -14 -37 -37 -4 -31 hhcurveto
          -63 -22 38 67 26 1 13 3 23 hvcurveto
          181 98 69 113 67 -51 32 -76 -69 -56 -25 -37 -43 hvcurveto
          34 -22 -38 28 -67 hhcurveto
          -176 -117 -136 -237 -89 46 -63 104 hvcurveto
          30 66 rmoveto
          -38 -7 34 52 113 20 192 111 37 8 -34 -52 -135 -26 -170 -105 hvcurveto
          263 233 rmoveto
          98 17 43 57 56 hhcurveto
          34 6 -19 -22 -71 -64 -43 -92 hvcurveto
          endchar
        </CharString>
        <CharString name="ogonek">
          -252 100 -26 callgsubr
        </CharString>
        <CharString name="ograve">
          -3 403 576 -77 callgsubr
          8 -695 rmoveto
          -69 callsubr
          -40 callsubr
          -176 -117 -136 -237 -89 46 -63 104 hvcurveto
          30 66 -68 callsubr
        </CharString>
        <CharString name="ohorn">
          -3 567 556 -87 callgsubr
        </CharString>
        <CharString name="ohungarumlaut">
          -3 204 -43 callgsubr
          192 -23 -82 callsubr
          -12 -72 -100 callgsubr
        </CharString>
        <CharString name="omacron">
          -3 197 -46 callsubr
          -116 -182 -100 callgsubr
        </CharString>
        <CharString name="one">
          3 455 49 rmoveto
          -148 27 95 543 -290 -43 -9 -48 rlineto
          157 hlineto
          -79 -451 5 callsubr
        </CharString>
        <CharString name="one.dnom">
          -94 88 360 -48 callgsubr
          endchar
        </CharString>
        <CharString name="one.numr">
          -94 88 532 -48 callgsubr
          endchar
        </CharString>
        <CharString name="one.osf">
          3 455 49 rmoveto
          -148 27 81 463 -290 -43 -9 -48 rlineto
          157 hlineto
          -65 -371 5 callsubr
        </CharString>
        <CharString name="oneeighth">
          419 281 -56 callgsubr
          -426 -115 -48 callgsubr
          579 -577 -91 callsubr
          9 -6 rlineto
          24 -17 27 -22 -19 callgsubr
        </CharString>
        <CharString name="onehalf">
          424 262 -56 callgsubr
          -382 -475 rmoveto
          107 hlineto
          84 434 -229 -33 -7 -41 rlineto
          115 hlineto
          336 -532 rmoveto
          316 hlineto
          30 123 rlineto
          -52 hlineto
          -37 -54 -149 -11 123 96 rlineto
          106 83 28 50 64 vvcurveto
          57 -36 34 -91 -58 -66 -19 -22 -40 vhcurveto
          23 -53 rlineto
          18 43 19 4 31 hhcurveto
          42 17 -14 -29 -45 -41 -50 -41 -36 hvcurveto
          -174 -152 rlineto
          endchar
        </CharString>
        <CharString name="onequarter">
          424 272 -56 callgsubr
          -382 -475 rmoveto
          107 hlineto
          84 434 -229 -33 -7 -41 rlineto
          115 hlineto
          489 -532 rmoveto
          -63 callgsubr
        </CharString>
        <CharString name="ordfeminine">
          -58 callsubr
        </CharString>
        <CharString name="ordmasculine">
          -34 callsubr
        </CharString>
        <CharString name="oslash">
          -3 107 -92 -53 callgsubr
        </CharString>
        <CharString name="oslashacute">
          -3 237 576 -98 callgsubr
          -103 -703 -53 callgsubr
        </CharString>
        <CharString name="otilde">
          -3 476 697 rmoveto
          -82 callgsubr
          4 callsubr
          -154 -182 -100 callgsubr
        </CharString>
        <CharString name="p">
          42 3 -194 rmoveto
          144 16 28 177 rlineto
          -6 20 19 -3 34 hhcurveto
          192 80 195 192 105 -48 33 -69 -64 -44 -36 -49 -41 hvcurveto
          3 14 7 37 10 vvcurveto
          14 -12 11 -18 -45 -88 -17 -21 -59 vhcurveto
          10 -40 74 -9 rlineto
          122 -369 rmoveto
          -23 -22 2 13 -14 hvcurveto
          51 275 rlineto
          40 28 44 42 40 hhcurveto
          30 3 -42 -29 -130 -27 -171 -110 hvcurveto
          endchar
        </CharString>
        <CharString name="paragraph">
          31 237 223 rmoveto
          19 hlineto
          76 392 rlineto
          1 -6 -2 0 -10 hhcurveto
          -134 -95 -114 -130 -85 50 -64 102 hvcurveto
          -72 -223 rmoveto
          285 hlineto
          8 44 -72 26 92 474 82 27 9 43 rlineto
          -193 hlineto
          -106 -543 -97 -26 rlineto
          endchar
        </CharString>
        <CharString name="parenleft">
          -172 183 265 rmoveto
          23 120 45 228 147 59 -2 43 rcurveline
          -200 -56 -70 -104 -57 -290 rrcurveto
          -17 -85 -9 -68 -57 vvcurveto
          -135 52 -65 126 -37 vhcurveto
          19 41 rlineto
          -65 32 -19 77 84 vvcurveto
          76 16 81 11 56 vhcurveto
          endchar
        </CharString>
        <CharString name="parenright">
          -172 152 265 rmoveto
          -23 -117 -44 -228 -148 -61 3 -41 rcurveline
          199 53 68 107 56 287 rrcurveto
          17 87 9 71 57 vvcurveto
          133 -51 63 -124 39 vhcurveto
          -20 -43 rlineto
          66 -31 19 -77 -83 vvcurveto
          -77 -16 -82 -11 -57 vhcurveto
          endchar
        </CharString>
        <CharString name="partialdiff">
          64 57 667 rmoveto
          29 -40 rlineto
          18 48 22 7 44 hhcurveto
          135 20 -85 -139 11 hvcurveto
          2 -44 26 -81 -118 -93 -92 -143 -131 60 -100 167 107 149 53 286 267 -97 133 -187 -66 -60 -17 -45 -46 vhcurveto
          202 -610 rmoveto
          -64 -26 48 116 84 14 84 98 37 30 -18 -20 26 hvcurveto
          1 -30 1 -8 -35 vvcurveto
          -150 -29 -71 -88 vhcurveto
          endchar
        </CharString>
        <CharString name="percent">
          424 164 164 rmoveto
          -65 callsubr
          160 -164 rmoveto
          83 hlineto
          199 614 rlineto
          -83 hlineto
          -342 -364 rmoveto
          -53 callsubr
          501 -257 rmoveto
          -65 callsubr
          17 86 rmoveto
          -53 callsubr
          endchar
        </CharString>
        <CharString name="period">
          -287 160 69 rmoveto
          -40 callgsubr
          45 36 33 44 vhcurveto
          endchar
        </CharString>
        <CharString name="periodcentered">
          -287 205 259 rmoveto
          -40 callgsubr
          45 36 33 44 vhcurveto
          endchar
        </CharString>
        <CharString name="perthousand">
          817 165 164 rmoveto
          -65 callsubr
          160 -164 rmoveto
          83 hlineto
          199 614 rlineto
          -83 hlineto
          -342 -364 rmoveto
          -53 callsubr
          501 -257 rmoveto
          -65 callsubr
          393 hmoveto
          -65 callsubr
          -376 86 rmoveto
          -53 callsubr
          393 hmoveto
          -53 callsubr
          endchar
        </CharString>
        <CharString name="pi">
          158 87 55 rmoveto
          -43 vlineto
          -12 47 21 -5 37 hhcurveto
          73 8 42 52 hvcurveto
          325 136 -259 vlineto
          -150 53 -13 71 23 45 9 20 42 vhcurveto
          -6 47 rlineto
          -45 hlineto
          -53 -23 29 44 hvcurveto
          273 27 vlineto
          62 37 41 105 hvcurveto
          16 -69 vlineto
          -40 -18 -15 -32 vhcurveto
          -376 hlineto
          -88 -37 -63 -83 hvcurveto
          52 -13 rlineto
          40 18 21 12 47 hhcurveto
          9 -331 hlineto
          endchar
        </CharString>
        <CharString name="plus">
          3 211 -9 callsubr
          endchar
        </CharString>
        <CharString name="plusminus">
          3 215 -9 callsubr
          -167 -262 -15 callgsubr
          endchar
        </CharString>
        <CharString name="product">
          193 36 hmoveto
          304 45 hlineto
          -85 24 rlineto
          477 190 -477 vlineto
          -84 -24 rlineto
          -45 304 45 vlineto
          -85 24 rlineto
          477 vlineto
          85 23 rlineto
          45 -630 -45 vlineto
          85 -23 rlineto
          -477 vlineto
          -84 -24 rlineto
          endchar
        </CharString>
        <CharString name="q">
          8 502 521 rmoveto
          -63 9 -40 -33 rlineto
          10 -30 -27 8 -46 hhcurveto
          -158 -109 -151 -230 -115 65 -29 49 61 39 25 58 42 hvcurveto
          -50 -268 138 15 12 106 rlineto
          0 116 593 1 2 vhcurveto
          -200 -361 rmoveto
          -44 -25 -50 -43 -28 hhcurveto
          -24 -11 20 44 141 29 169 106 26 22 -9 -8 9 hvcurveto
          -93 -19 -34 -177 -1 hhcurveto
          endchar
        </CharString>
        <CharString name="question">
          -127 143 159 rmoveto
          14 25 3 0 hvcurveto
          7 40 rlineto
          -15 -18 3 18 19 31 22 67 48 hvcurveto
          106 76 30 49 66 vvcurveto
          83 -62 43 -87 -81 -55 -26 -17 -29 vhcurveto
          19 -53 rlineto
          0 63 24 39 44 23 -19 -51 -24 -1 -33 -113 -97 vhcurveto
          -60 -51 -29 -31 -31 vvcurveto
          -51 29 -10 53 vhcurveto
          -50 -172 rmoveto
          39 30 28 37 39 -30 31 -39 -36 -34 -31 -39 -37 34 -28 36 hvcurveto
          endchar
        </CharString>
        <CharString name="questiondown">
          -127 313 381 rmoveto
          36 34 31 39 37 -34 28 -36 -39 -30 -28 -37 -39 30 -31 39 hvcurveto
          -148 -507 rmoveto
          81 55 26 17 29 hvcurveto
          -19 53 rlineto
          0 -63 -24 -39 -44 -23 19 51 24 1 33 113 97 vhcurveto
          60 51 29 31 31 vvcurveto
          51 -29 10 -53 -14 -25 -3 0 vhcurveto
          -7 -40 rlineto
          15 18 -3 -18 -19 -31 -22 -67 -48 hvcurveto
          -106 -76 -30 -49 -66 vvcurveto
          -83 62 -43 87 vhcurveto
          endchar
        </CharString>
        <CharString name="quotedbl">
          -207 2 callgsubr
          51 hmoveto
          -10 -233 rlineto
          38 hlineto
          81 233 rlineto
          endchar
        </CharString>
        <CharString name="quotedblbase">
          -147 12 -124 -20 callsubr
        </CharString>
        <CharString name="quotedblleft">
          -147 187 687 rmoveto
          -139 -227 24 -27 108 22 56 223 rlineto
          123 9 rmoveto
          -138 -227 25 -27 107 22 56 223 rlineto
          endchar
        </CharString>
        <CharString name="quotedblright">
          -147 105 433 -20 callsubr
        </CharString>
        <CharString name="quoteleft">
          -320 186 687 rmoveto
          -138 -227 23 -27 108 22 56 223 rlineto
          endchar
        </CharString>
        <CharString name="quoteright">
          -320 105 433 rmoveto
          138 226 -24 28 -108 -23 -55 -222 rlineto
          endchar
        </CharString>
        <CharString name="quotesinglbase">
          -312 24 -116 rmoveto
          129 214 -17 29 -102 -23 -54 -212 rlineto
          endchar
        </CharString>
        <CharString name="quotesingle">
          -367 2 callgsubr
          endchar
        </CharString>
        <CharString name="r">
          -34 callgsubr
          endchar
        </CharString>
        <CharString name="racute">
          -96 215 576 -98 callgsubr
          -149 -621 -84 callgsubr
          endchar
        </CharString>
        <CharString name="radical">
          -7 515 702 rmoveto
          103 17 rlineto
          52 -170 vlineto
          -178 -633 -98 354 rlineto
          -174 -52 hlineto
          59 -18 140 -437 104 10 rlineto
          endchar
        </CharString>
        <CharString name="rcaron">
          -96 239 577 rmoveto
          85 hlineto
          124 133 -32 33 -121 -76 -90 76 -41 -25 rlineto
          -125 -728 -84 callgsubr
          endchar
        </CharString>
        <CharString name="rcommaaccent">
          -34 callgsubr
          -75 -661 -71 callgsubr
        </CharString>
        <CharString name="registered">
          -12 248 210 rmoveto
          -12 callsubr
          -133 110 -111 133 hvcurveto
          1 33 rmoveto
          -112 -95 97 114 -7 callsubr
          hvcurveto
          -129 64 rmoveto
          139 23 hlineto
          -35 8 rlineto
          102 5 vlineto
          21 1 -1 -132 47 hvcurveto
          95 23 hlineto
          -27 7 -14 26 -8 19 -6 13 rlinecurve
          -19 40 -2 10 -20 9 rrcurveto
          41 16 18 33 35 vvcurveto
          35 -26 40 -79 vhcurveto
          -131 -24 hlineto
          33 -8 rlineto
          -243 vlineto
          -33 -8 rlineto
          104 139 rmoveto
          113 vlineto
          2 6 4 0 3 hhcurveto
          31 14 -22 -30 -37 -14 -26 -28 hvcurveto
          endchar
        </CharString>
        <CharString name="ring">
          -252 193 -50 callsubr
          endchar
        </CharString>
        <CharString name="ring.case">
          -252 203 -66 callgsubr
          endchar
        </CharString>
        <CharString name="s">
          -88 247 444 -92 callsubr
          endchar
        </CharString>
        <CharString name="sacute">
          -88 196 576 -98 callgsubr
          78 -167 -92 callsubr
          endchar
        </CharString>
        <CharString name="sacute.loclPLK">
          -88 245 -43 callgsubr
          33 -143 -92 callsubr
          endchar
        </CharString>
        <CharString name="scaron">
          -88 183 -78 callgsubr
          -26 -223 -92 callsubr
          endchar
        </CharString>
        <CharString name="scedilla">
          -88 247 444 rmoveto
          25 30 -4 -8 13 hvcurveto
          9 -81 rlineto
          51 hlineto
          34 134 rlineto
          20 -43 -51 10 -48 hhcurveto
          -134 -77 -64 -107 -59 25 -44 55 -23 hvcurveto
          79 -35 rlineto
          41 -18 4 -16 -20 vvcurveto
          -47 -34 -23 -57 -39 -24 5 8 -15 vhcurveto
          -6 90 rlineto
          -50 hlineto
          -37 -143 34 -18 46 -7 42 -3 rlinecurve
          -34 -64 -73 callgsubr
          -32 callgsubr
          17 37 rlineto
          128 5 78 66 120 vvcurveto
          52 -34 40 -48 21 vhcurveto
          -83 37 rlineto
          -30 13 -9 12 25 vvcurveto
          36 23 26 55 vhcurveto
          endchar
        </CharString>
        <CharString name="scircumflex">
          -88 377 575 -86 callgsubr
          -43 -209 -92 callsubr
          endchar
        </CharString>
        <CharString name="scommaaccent">
          -88 152 -10 rmoveto
          137 84 67 125 52 -34 40 -48 21 hvcurveto
          -83 37 rlineto
          -30 13 -9 12 25 vvcurveto
          36 23 26 55 25 30 -4 -8 13 vhcurveto
          9 -81 rlineto
          51 hlineto
          34 134 rlineto
          20 -43 -51 10 -48 hhcurveto
          -134 -77 -64 -107 -59 25 -44 55 -23 hvcurveto
          79 -35 rlineto
          41 -18 4 -16 -20 vvcurveto
          -47 -34 -23 -57 -39 -24 5 8 -15 vhcurveto
          -6 90 rlineto
          -50 hlineto
          -37 -143 rlineto
          -22 43 63 -7 48 hhcurveto
          -47 -226 -71 callgsubr
        </CharString>
        <CharString name="section">
          -107 352 599 rmoveto
          2 -91 rlineto
          56 hlineto
          39 140 rlineto
          0 -48 19 -84 -101 -79 -55 -78 -59 63 -44 143 -223 vhcurveto
          8 9 24 32 46 98 -144 110 51 vvcurveto
          42 48 10 37 14 12 -3 -4 10 vhcurveto
          -250 -450 rmoveto
          -54 hlineto
          -40 -137 rlineto
          0 50 -20 85 99 79 46 79 58 -62 44 -142 224 vhcurveto
          -17 -21 -15 -24 -36 -96 141 -102 -55 vvcurveto
          -50 -49 -6 -32 -15 -11 3 4 -12 vhcurveto
          endchar
        </CharString>
        <CharString name="semicolon">
          -300 153 340 rmoveto
          45 36 33 44 -40 callgsubr
          hvcurveto
          -117 -455 -1 callsubr
        </CharString>
        <CharString name="seven">
          3 98 614 rmoveto
          -15 -87 rlineto
          316 hlineto
          -338 -525 112 -39 340 607 -16 44 rlineto
          endchar
        </CharString>
        <CharString name="seven.dnom">
          -94 134 -26 -41 callgsubr
          endchar
        </CharString>
        <CharString name="seven.numr">
          -94 164 150 -41 callgsubr
          endchar
        </CharString>
        <CharString name="seven.osf">
          3 83 528 rmoveto
          -15 -87 rlineto
          312 hlineto
          -130 -170 -122 -166 -76 -178 115 -30 rcurveline
          75 205 115 185 141 197 -16 44 rcurveline
          endchar
        </CharString>
        <CharString name="seveneighths">
          449 302 -56 callgsubr
          -371 -497 -41 callgsubr
          636 -188 -91 callsubr
          9 -6 rlineto
          24 -17 27 -22 -19 callgsubr
        </CharString>
        <CharString name="six">
          -49 callgsubr
        </CharString>
        <CharString name="six.dnom">
          -94 159 -7 -30 callsubr
          37 82 57 38 42 19 15 7 13 4 10 3 -8 49 rcurveline
          -16 -2 -17 -4 -17 -5 -104 -33 -111 -91 -26 -134 rrcurveto
          -4 -22 -3 -23 -20 vvcurveto
          -73 32 -51 -54 callgsubr
        </CharString>
        <CharString name="six.numr">
          -94 159 164 -30 callsubr
          35 78 52 38 42 20 18 8 15 5 12 4 -8 49 rcurveline
          -18 -2 -19 -5 -20 -6 -99 -34 -106 -88 -29 -128 rrcurveto
          -5 -22 -3 -23 -25 vvcurveto
          -73 33 -52 -54 callgsubr
        </CharString>
        <CharString name="six.osf">
          -49 callgsubr
        </CharString>
        <CharString name="slash">
          -131 375 698 rmoveto
          -99 hlineto
          -271 -837 rlineto
          96 hlineto
          endchar
        </CharString>
        <CharString name="space">
          -352 endchar
        </CharString>
        <CharString name="sterling">
          3 221 179 rmoveto
          17 84 rlineto
          177 hlineto
          21 60 rlineto
          -185 hlineto
          9 44 rlineto
          110 22 20 81 78 hhcurveto
          16 20 -2 -7 16 hvcurveto
          4 -89 rlineto
          53 hlineto
          36 135 rlineto
          15 -42 -52 12 -60 hhcurveto
          -138 -70 -98 -201 -39 hvcurveto
          -89 hlineto
          -22 -60 rlineto
          99 hlineto
          -17 -87 rlineto
          -18 -90 -97 -39 0 vvcurveto
          4 -47 rlineto
          426 hlineto
          56 115 -29 17 -61 -57 -261 -12 44 24 50 32 12 60 rlinecurve
          endchar
        </CharString>
        <CharString name="summation">
          15 424 449 rmoveto
          58 165 -480 -45 hlineto
          226 -325 -232 -312 rlineto
          -30 499 189 -58 vlineto
          -25 -91 rlineto
          -275 hlineto
          203 262 rlineto
          10 vlineto
          -189 272 rlineto
          249 hlineto
          endchar
        </CharString>
        <CharString name="t">
          -185 245 411 rmoveto
          -59 callgsubr
          -26 19 -16 38 6 callsubr
          vhcurveto
          47 -91 vlineto
          endchar
        </CharString>
        <CharString name="tbar">
          -185 352 411 rmoveto
          70 -94 vlineto
          20 107 rlineto
          -64 hlineto
          -70 -96 -108 -31 12 -50 rlineto
          71 hlineto
          -6 -31 -8 -37 -8 -40 rrcurveto
          -73 hlineto
          -10 -55 rlineto
          72 hlineto
          -21 -106 -19 -104 -16 vvcurveto
          -26 19 -16 38 6 callsubr
          vhcurveto
          47 -91 vlineto
          36 193 rlineto
          104 55 -94 hlineto
          20 108 rlineto
          endchar
        </CharString>
        <CharString name="tcaron">
          -185 313 739 rmoveto
          15 -212 rlineto
          41 hlineto
          46 192 -70 20 rlineto
          -100 -328 rmoveto
          -59 callgsubr
          -26 19 -16 38 6 callsubr
          vhcurveto
          47 -91 vlineto
          endchar
        </CharString>
        <CharString name="thorn">
          21 -195 vmoveto
          136 17 5 27 11 63 12 81 rlinecurve
          -1 15 15 -1 18 hhcurveto
          4 callgsubr
          -57 -45 -33 -45 -39 hvcurveto
          13 81 13 75 10 55 rrcurveto
          6 33 4 26 6 vvcurveto
          0 callsubr
          rlineto
          86 -592 rmoveto
          -26 -19 5 8 -13 hvcurveto
          13 87 15 99 15 94 rrcurveto
          39 33 48 40 27 2 callsubr
        </CharString>
        <CharString name="three">
          3 288 629 rmoveto
          -61 -80 -28 -32 -56 hvcurveto
          17 -58 rlineto
          28 66 54 10 28 hhcurveto
          50 26 -13 -43 -65 -46 -59 -133 -21 hvcurveto
          -57 vlineto
          72 74 -9 -80 -100 -72 -40 -87 -16 -45 1 8 -58 hvcurveto
          -12 -65 rlineto
          -16 50 41 1 65 hhcurveto
          157 113 70 144 64 -42 52 -73 17 hvcurveto
          74 34 70 61 75 vvcurveto
          75 -48 46 -128 vhcurveto
          endchar
        </CharString>
        <CharString name="three.dnom">
          -94 257 442 -88 callsubr
          endchar
        </CharString>
        <CharString name="three.numr">
          -94 257 613 -88 callsubr
          endchar
        </CharString>
        <CharString name="three.osf">
          3 284 539 rmoveto
          -88 -69 -31 -29 -53 hvcurveto
          17 -58 rlineto
          26 62 51 12 40 hhcurveto
          57 14 -24 -34 -62 -46 -60 -133 -21 hvcurveto
          -57 vlineto
          90 56 -14 -82 -90 -66 -43 -105 -32 -36 4 5 -39 hvcurveto
          -12 -65 rlineto
          -11 44 52 -5 45 hhcurveto
          173 112 73 128 74 -37 43 -78 30 hvcurveto
          71 33 73 58 82 vvcurveto
          72 -56 46 -107 vhcurveto
          endchar
        </CharString>
        <CharString name="threeeighths">
          459 328 -56 callgsubr
          -304 -34 -88 callsubr
          457 -617 -91 callsubr
          9 -6 rlineto
          24 -17 27 -22 -19 callgsubr
        </CharString>
        <CharString name="threequarters">
          424 321 -56 callgsubr
          -412 -483 rmoveto
          113 99 39 112 43 -24 35 -47 15 hvcurveto
          51 25 43 49 52 vvcurveto
          53 -50 26 -67 -11 callgsubr
          vhcurveto
          14 -51 rlineto
          22 41 36 6 27 hhcurveto
          36 12 -12 -24 -37 -41 -49 -87 -9 hvcurveto
          -47 vlineto
          51 56 -7 -49 -68 -52 -23 -52 -20 -41 1 12 -37 hvcurveto
          -16 -59 rlineto
          -12 37 47 -2 34 hhcurveto
          566 -164 rmoveto
          -63 callgsubr
        </CharString>
        <CharString name="tilde">
          -252 377 697 rmoveto
          -82 callgsubr
          4 callsubr
          endchar
        </CharString>
        <CharString name="tilde.case">
          -252 393 759 -96 callgsubr
          endchar
        </CharString>
        <CharString name="tildecomb">
          -507 138 759 -96 callgsubr
          endchar
        </CharString>
        <CharString name="trademark">
          358 93 280 rmoveto
          177 27 hlineto
          -47 13 rlineto
          281 70 vlineto
          15 -48 rlineto
          39 hlineto
          3 94 rlineto
          -336 hlineto
          4 -94 rlineto
          39 hlineto
          15 49 rlineto
          68 -282 hlineto
          -47 -13 rlineto
          456 -35 rmoveto
          61 8 88 260 8 -220 -45 -13 rlineto
          -27 179 27 vlineto
          -49 13 -10 287 48 12 rlineto
          28 -149 vlineto
          -85 -252 -90 252 rlineto
          -151 -28 hlineto
          47 -12 -12 -287 -45 -13 rlineto
          -27 148 27 vlineto
          -48 13 6 212 rlineto
          endchar
        </CharString>
        <CharString name="two">
          3 -9 hmoveto
          424 hlineto
          43 168 rlineto
          -59 hlineto
          -54 -80 -237 -13 185 144 rlineto
          129 102 66 69 105 vvcurveto
          107 -78 27 -85 -118 -55 -29 -28 -62 vhcurveto
          26 -63 rlineto
          18 48 33 17 62 hhcurveto
          54 32 -30 -42 -55 -21 -47 -88 -77 hvcurveto
          -256 -223 rlineto
          endchar
        </CharString>
        <CharString name="two.dnom">
          -94 191 370 -79 callgsubr
          endchar
        </CharString>
        <CharString name="two.numr">
          -94 191 542 -79 callgsubr
          endchar
        </CharString>
        <CharString name="two.osf">
          3 -1 hmoveto
          416 hlineto
          43 168 rlineto
          -59 hlineto
          -54 -80 -226 -12 122 79 rlineto
          113 73 95 72 102 vvcurveto
          107 -104 30 -81 -77 -79 -27 -30 -57 vhcurveto
          26 -63 rlineto
          13 35 46 22 55 hhcurveto
          66 27 -31 -40 -54 -48 -47 -86 -69 hvcurveto
          -183 -146 rlineto
          endchar
        </CharString>
        <CharString name="u">
          65 129 -10 -107 callsubr
          endchar
        </CharString>
        <CharString name="uacute">
          65 270 576 -98 callgsubr
          -114 -621 -107 callsubr
          endchar
        </CharString>
        <CharString name="ubreve">
          65 344 591 -103 callgsubr
          -215 -601 -107 callsubr
          endchar
        </CharString>
        <CharString name="ucircumflex">
          65 230 -39 callsubr
          -72 -616 -107 callsubr
          endchar
        </CharString>
        <CharString name="udieresis">
          65 232 585 -76 callgsubr
          -335 -595 -107 callsubr
          endchar
        </CharString>
        <CharString name="ugrave">
          65 419 576 -77 callgsubr
          -58 -695 -107 callsubr
          endchar
        </CharString>
        <CharString name="uhorn">
          65 468 205 -99 callsubr
          endchar
        </CharString>
        <CharString name="uhungarumlaut">
          65 233 -43 callgsubr
          192 -23 -82 callsubr
          -234 -597 -107 callsubr
          endchar
        </CharString>
        <CharString name="umacron">
          65 221 618 rmoveto
          241 hlineto
          11 79 rlineto
          -241 hlineto
          -103 -707 -107 callsubr
          endchar
        </CharString>
        <CharString name="underscore">
          -65 442 -79 rmoveto
          61 -442 -61 vlineto
          endchar
        </CharString>
        <CharString name="uni00A0">
          -327 endchar
        </CharString>
        <CharString name="uni00AD">
          -225 274 203 rmoveto
          60 -265 -60 vlineto
          endchar
        </CharString>
        <CharString name="uni00B2">
          -94 191 648 -79 callgsubr
          endchar
        </CharString>
        <CharString name="uni00B3">
          -94 257 721 -88 callsubr
          endchar
        </CharString>
        <CharString name="uni00B5">
          -60 callsubr
        </CharString>
        <CharString name="uni00B9">
          -94 88 637 -48 callgsubr
          endchar
        </CharString>
        <CharString name="uni0162">
          -17 67 614 rmoveto
          -29 callgsubr
          -93 -477 -29 callsubr
          125 hlineto
          -39 -73 -73 callgsubr
          -32 callgsubr
          22 46 rlineto
          123 hlineto
          8 45 -75 24 -27 callsubr
          rlineto
          105 -91 54 hlineto
          37 159 rlineto
          endchar
        </CharString>
        <CharString name="uni0163">
          -185 245 411 rmoveto
          -59 callgsubr
          -24 16 -16 34 -2 vhcurveto
          -29 -53 -73 callgsubr
          -32 callgsubr
          14 29 35 4 46 8 44 13 rlinecurve
          47 -91 vlineto
          endchar
        </CharString>
        <CharString name="uni018F">
          113 265 -10 rmoveto
          193 150 175 235 161 -69 68 -176 -83 -63 -14 -26 -68 hvcurveto
          -22 -136 rlineto
          56 hlineto
          37 87 rlineto
          16 44 35 4 32 hhcurveto
          103 27 -46 -114 -20 -1 -21 -2 -21 hvcurveto
          -406 hlineto
          -11 -42 -5 -44 -44 vvcurveto
          -143 60 -75 169 vhcurveto
          14 68 rmoveto
          -82 -14 54 91 18 1 24 3 27 hvcurveto
          262 hlineto
          -114 -22 -53 -100 -95 hhcurveto
          endchar
        </CharString>
        <CharString name="uni019D">
          162 486 614 rmoveto
          -8 -45 75 -23 -71 -374 -192 442 rlineto
          -185 hlineto
          -8 -45 75 -23 -109 -562 rlineto
          -72 -14 -38 -25 -48 hhcurveto
          -23 -26 6 9 -22 hvcurveto
          -17 -52 rlineto
          -15 22 34 -19 48 hhcurveto
          88 49 62 97 19 hvcurveto
          26 132 43 227 19 104 194 -450 rcurveline
          103 12 106 546 85 23 8 45 rlineto
          endchar
        </CharString>
        <CharString name="uni01C4">
          604 851 795 -83 callgsubr
          -972 -727 rmoveto
          282 hlineto
          239 121 193 210 128 -78 83 -175 hvcurveto
          -39 callgsubr
          -76 callsubr
          rlineto
          1087 117 -81 callgsubr
          -757 61 rmoveto
          -25 -27 2 7 -19 hvcurveto
          -27 callsubr
          rlineto
          3 11 15 3 25 hhcurveto
          82 40 -42 -106 -159 -62 -185 -133 hvcurveto
          endchar
        </CharString>
        <CharString name="uni01C5">
          519 814 -78 callgsubr
          -917 -667 rmoveto
          -80 callsubr
          632 -127 -93 callsubr
          endchar
        </CharString>
        <CharString name="uni01C6">
          417 712 -78 callgsubr
          -650 -677 -85 callsubr
          664 -56 -93 callsubr
          -614 138 -69 callgsubr
          endchar
        </CharString>
        <CharString name="uni01C7">
          311 -26 callsubr
          495 -150 -77 callsubr
        </CharString>
        <CharString name="uni01C8">
          253 688 585 -74 callsubr
          -261 -585 rmoveto
          -75 callsubr
          463 -184 rmoveto
          -24 callgsubr
          hvcurveto
          -31 callsubr
          -83 callsubr
          vhcurveto
          endchar
        </CharString>
        <CharString name="uni01C9">
          96 110 -10 -78 callsubr
          421 595 -74 callsubr
          -238 -769 rmoveto
          -24 callgsubr
          hvcurveto
          -31 callsubr
          -83 callsubr
          vhcurveto
          endchar
        </CharString>
        <CharString name="uni01CA">
          512 -36 callgsubr
          -36 -764 -77 callsubr
        </CharString>
        <CharString name="uni01CB">
          454 889 585 -74 callsubr
          -403 29 -90 callgsubr
          -68 -798 rmoveto
          -24 callgsubr
          hvcurveto
          -31 callsubr
          -83 callsubr
          vhcurveto
          endchar
        </CharString>
        <CharString name="uni01CC">
          354 789 585 -74 callsubr
          -539 -167 -97 callgsubr
          301 -602 rmoveto
          -24 callgsubr
          hvcurveto
          -31 callsubr
          -83 callsubr
          vhcurveto
          endchar
        </CharString>
        <CharString name="uni01CD">
          53 255 795 -83 callgsubr
          -32 -574 -103 callsubr
          endchar
        </CharString>
        <CharString name="uni01CE">
          39 253 -78 callgsubr
          103 -452 -107 callgsubr
          endchar
        </CharString>
        <CharString name="uni01CF">
          -150 154 795 -83 callgsubr
          -275 -727 rmoveto
          -89 callgsubr
          endchar
        </CharString>
        <CharString name="uni01D0">
          -198 135 -78 callgsubr
          37 -174 -95 callgsubr
          endchar
        </CharString>
        <CharString name="uni01D1">
          290 795 -83 callgsubr
          -133 -737 -104 callgsubr
          endchar
        </CharString>
        <CharString name="uni01D2">
          -3 232 -78 callgsubr
          -152 -36 callsubr
        </CharString>
        <CharString name="uni01D3">
          103 280 795 -83 callgsubr
          149 -491 rmoveto
          -42 callgsubr
          204 53 162 84 16 vhcurveto
          endchar
        </CharString>
        <CharString name="uni01D4">
          65 266 -78 callgsubr
          -227 -677 -107 callsubr
          endchar
        </CharString>
        <CharString name="uni01D5">
          103 309 936 -37 callgsubr
          -212 -217 -101 callsubr
          -52 -483 rmoveto
          -42 callgsubr
          204 53 162 84 16 vhcurveto
          endchar
        </CharString>
        <CharString name="uni01D6">
          65 266 814 -37 callgsubr
          -212 -217 -101 callsubr
          -417 -607 -107 callsubr
          endchar
        </CharString>
        <CharString name="uni01D7">
          103 387 812 -98 callgsubr
          -2 -128 -101 callsubr
          -52 -483 rmoveto
          -42 callgsubr
          204 53 162 84 16 vhcurveto
          endchar
        </CharString>
        <CharString name="uni01D8">
          65 344 690 -98 callgsubr
          -2 -128 -101 callsubr
          -417 -607 -107 callsubr
          endchar
        </CharString>
        <CharString name="uni01D9">
          103 316 973 -83 callgsubr
          -66 -186 -101 callsubr
          -52 -483 rmoveto
          -42 callgsubr
          204 53 162 84 16 vhcurveto
          endchar
        </CharString>
        <CharString name="uni01DA">
          65 273 851 -83 callgsubr
          -66 -186 -101 callsubr
          -417 -607 -107 callsubr
          endchar
        </CharString>
        <CharString name="uni01DB">
          103 457 812 -77 callgsubr
          133 -202 -101 callsubr
          -52 -483 rmoveto
          -42 callgsubr
          204 53 162 84 16 vhcurveto
          endchar
        </CharString>
        <CharString name="uni01DC">
          65 414 690 -77 callgsubr
          133 -202 -101 callsubr
          -417 -607 -107 callsubr
          endchar
        </CharString>
        <CharString name="uni01EA">
          413 -133 rmoveto
          -28 -11 16 22 44 47 72 41 34 hvcurveto
          102 79 54 141 143 vvcurveto
          121 -58 89 -171 -229 -124 -206 -214 -143 60 -75 169 33 30 4 8 28 vhcurveto
          -49 -45 -21 -45 -33 vvcurveto
          -36 24 -38 65 60 38 32 30 23 vhcurveto
          -20 22 rlineto
          -14 -22 -21 -8 -20 hhcurveto
          -230 336 rmoveto
          95 29 262 164 75 20 -48 -90 -153 -45 -211 -147 -82 -14 54 91 vhcurveto
          endchar
        </CharString>
        <CharString name="uni01EB">
          -3 300 -139 rmoveto
          -27 -11 15 26 33 54 81 37 32 hvcurveto
          77 61 45 107 145 vvcurveto
          -40 callsubr
          -176 -117 -136 -237 -89 46 -63 104 24 23 2 5 21 vhcurveto
          -51 -46 -22 -45 -31 -45 callsubr
          -136 281 rmoveto
          113 20 192 111 37 8 -34 -52 -135 -26 -170 -105 -38 -7 34 52 vhcurveto
          endchar
        </CharString>
        <CharString name="uni01F1">
          604 -13 hmoveto
          282 hlineto
          239 121 193 210 128 -78 83 -175 hvcurveto
          -39 callgsubr
          -76 callsubr
          rlineto
          1087 117 -81 callgsubr
          -757 61 rmoveto
          -25 -27 2 7 -19 hvcurveto
          -27 callsubr
          rlineto
          3 11 15 3 25 hhcurveto
          82 40 -42 -106 -159 -62 -185 -133 hvcurveto
          endchar
        </CharString>
        <CharString name="uni01F2">
          519 -13 hmoveto
          -80 callsubr
          632 -127 -93 callsubr
          endchar
        </CharString>
        <CharString name="uni01F3">
          417 152 -10 -85 callsubr
          664 -56 -93 callsubr
          -614 138 -69 callgsubr
          endchar
        </CharString>
        <CharString name="uni01F4">
          85 342 634 -98 callgsubr
          164 -124 -97 callsubr
          endchar
        </CharString>
        <CharString name="uni01F5">
          -2 238 576 -98 callgsubr
          -77 -794 -102 callgsubr
        </CharString>
        <CharString name="uni0200">
          53 275 631 -86 callsubr
          16 -639 -103 callsubr
          endchar
        </CharString>
        <CharString name="uni0201">
          39 262 564 -86 callsubr
          144 -510 -107 callgsubr
          endchar
        </CharString>
        <CharString name="uni0202">
          53 378 798 -92 callgsubr
          -47 -645 -103 callsubr
          endchar
        </CharString>
        <CharString name="uni0203">
          39 358 733 -92 callgsubr
          88 -518 -107 callgsubr
          endchar
        </CharString>
        <CharString name="uni0204">
          29 263 631 -86 callsubr
          96 -389 -105 callgsubr
          endchar
        </CharString>
        <CharString name="uni0205">
          -68 209 564 -86 callsubr
          71 -210 -106 callsubr
          endchar
        </CharString>
        <CharString name="uni0206">
          29 366 798 -92 callgsubr
          33 -395 -105 callgsubr
          endchar
        </CharString>
        <CharString name="uni0207">
          -68 305 733 -92 callgsubr
          15 -218 -106 callsubr
          endchar
        </CharString>
        <CharString name="uni0208">
          -150 174 631 -86 callsubr
          -227 -792 rmoveto
          -89 callgsubr
          endchar
        </CharString>
        <CharString name="uni0209">
          -198 144 564 -86 callsubr
          78 -232 -95 callgsubr
          endchar
        </CharString>
        <CharString name="uni020A">
          -150 277 798 -92 callgsubr
          -290 -798 rmoveto
          -89 callgsubr
          endchar
        </CharString>
        <CharString name="uni020B">
          -198 240 733 -92 callgsubr
          22 -240 -95 callgsubr
          endchar
        </CharString>
        <CharString name="uni020C">
          310 631 -86 callsubr
          -85 -802 -104 callgsubr
          endchar
        </CharString>
        <CharString name="uni020D">
          -3 241 564 -86 callsubr
          41 -210 -100 callgsubr
        </CharString>
        <CharString name="uni020E">
          413 798 -92 callgsubr
          -148 -808 -104 callgsubr
          endchar
        </CharString>
        <CharString name="uni020F">
          -3 337 733 -92 callgsubr
          -15 -218 -100 callgsubr
        </CharString>
        <CharString name="uni0210">
          73 285 631 -86 callsubr
          36 -792 rmoveto
          -96 callsubr
          endchar
        </CharString>
        <CharString name="uni0211">
          -96 195 564 -86 callsubr
          -196 -735 -84 callgsubr
          endchar
        </CharString>
        <CharString name="uni0212">
          73 388 798 -92 callgsubr
          -27 -798 rmoveto
          -96 callsubr
          endchar
        </CharString>
        <CharString name="uni0213">
          -96 291 733 -92 callgsubr
          -252 -743 -84 callgsubr
          endchar
        </CharString>
        <CharString name="uni0214">
          103 300 631 -86 callsubr
          197 -556 rmoveto
          -42 callgsubr
          204 53 162 84 16 vhcurveto
          endchar
        </CharString>
        <CharString name="uni0215">
          65 275 564 -86 callsubr
          -186 -735 -107 callsubr
          endchar
        </CharString>
        <CharString name="uni0216">
          103 403 798 -92 callgsubr
          134 -562 rmoveto
          -42 callgsubr
          204 53 162 84 16 vhcurveto
          endchar
        </CharString>
        <CharString name="uni0217">
          65 371 733 -92 callgsubr
          -242 -743 -107 callsubr
          endchar
        </CharString>
        <CharString name="uni021A">
          -17 67 614 -63 callsubr
          -421 -850 -71 callgsubr
        </CharString>
        <CharString name="uni021B">
          -185 103 -20 rmoveto
          6 callsubr
          hvcurveto
          47 -91 vlineto
          66 356 rlineto
          -59 callgsubr
          -26 19 -16 38 vhcurveto
          -18 -216 -71 callgsubr
        </CharString>
        <CharString name="uni0232">
          -17 213 758 -37 callgsubr
          -107 -190 -89 callsubr
          endchar
        </CharString>
        <CharString name="uni0232.loclGUA">
          164 304 758 -37 callgsubr
          -328 -925 -102 callsubr
        </CharString>
        <CharString name="uni0233">
          -37 201 -46 callsubr
          -379 -891 -100 callsubr
          endchar
        </CharString>
        <CharString name="uni0233.loclGUA">
          37 238 -46 callsubr
          -312 -868 -99 callgsubr
        </CharString>
        <CharString name="uni0237">
          -215 265 492 rmoveto
          -83 callsubr
          -24 callgsubr
          vhcurveto
          -31 callsubr
          endchar
        </CharString>
        <CharString name="uni0259">
          -68 119 -23 rmoveto
          203 88 180 168 130 -71 47 -91 -93 -50 -25 -21 -32 hvcurveto
          12 -49 rlineto
          14 37 37 4 31 hhcurveto
          63 22 -38 -67 -26 -1 -13 -3 -23 hvcurveto
          -181 -98 -69 -113 -67 51 -32 76 hvcurveto
          29 71 rmoveto
          -34 -6 19 22 71 64 43 92 hvcurveto
          -98 -17 -43 -57 -56 hhcurveto
          endchar
        </CharString>
        <CharString name="uni0272">
          62 440 66 rmoveto
          28 128 46 217 37 vvcurveto
          44 -12 23 -50 -45 -80 -29 -68 -77 vhcurveto
          -73 callsubr
          -86 -441 rlineto
          -72 -13 -40 -25 -45 hhcurveto
          -26 -25 6 9 -22 hvcurveto
          -17 -52 rlineto
          0 58 -34 73 -24 callgsubr
          vhcurveto
          20 108 28 152 22 112 rrcurveto
          39 35 61 37 27 hhcurveto
          18 1 -14 -11 hvcurveto
          -40 -69 -267 -35 vvcurveto
          -55 28 -11 46 42 54 11 17 37 vhcurveto
          48 vlineto
          endchar
        </CharString>
        <CharString name="uni02B0">
          -72 44 -7 callgsubr
          -17 -18 -76 -14 -64 hvcurveto
          -9 -42 -8 -37 -10 -14 callgsubr
          -67 -22 -48 -56 vhcurveto
          -2 1 rlineto
          18 105 18 97 10 -8 callsubr
          endchar
        </CharString>
        <CharString name="uni02BC">
          -252 185 -22 callsubr
          endchar
        </CharString>
        <CharString name="uni02C9">
          -252 92 -46 callsubr
          endchar
        </CharString>
        <CharString name="uni02E1">
          -267 105 270 rmoveto
          22 50 7 14 42 hvcurveto
          35 -56 vlineto
          0 81 449 23 -8 callsubr
          0 -86 -421 -18 vvcurveto
          -32 23 -12 28 vhcurveto
          endchar
        </CharString>
        <CharString name="uni02E2">
          -177 213 600 rmoveto
          18 22 -3 -6 10 hvcurveto
          7 -60 rlineto
          37 hlineto
          25 102 rlineto
          14 -32 -37 8 -35 hhcurveto
          -101 -59 -47 -84 -51 21 -26 43 -17 hvcurveto
          58 -26 rlineto
          30 -13 3 -5 -20 vvcurveto
          -29 -25 -14 -42 -29 -17 4 6 -11 vhcurveto
          -4 66 rlineto
          -37 hlineto
          -27 -108 rlineto
          -16 31 46 -5 36 hhcurveto
          103 63 49 91 47 -26 28 -39 15 hvcurveto
          -60 27 rlineto
          -22 10 -7 6 17 vvcurveto
          24 17 16 40 vhcurveto
          endchar
        </CharString>
        <CharString name="uni0302">
          -507 71 -80 callgsubr
          endchar
        </CharString>
        <CharString name="uni0304">
          -507 -161 758 -37 callgsubr
          endchar
        </CharString>
        <CharString name="uni0306">
          -507 -49 651 -103 callgsubr
          endchar
        </CharString>
        <CharString name="uni0307">
          -507 48 -61 callsubr
          endchar
        </CharString>
        <CharString name="uni0308">
          -507 -76 719 -101 callsubr
          endchar
        </CharString>
        <CharString name="uni030A">
          -507 -52 -66 callgsubr
          endchar
        </CharString>
        <CharString name="uni030B">
          -507 -177 -44 callsubr
          192 -23 -82 callsubr
          endchar
        </CharString>
        <CharString name="uni030C">
          -507 -144 795 -83 callgsubr
          endchar
        </CharString>
        <CharString name="uni030F">
          -507 -87 564 -86 callsubr
          endchar
        </CharString>
        <CharString name="uni030F.case">
          -507 -96 631 -86 callsubr
          endchar
        </CharString>
        <CharString name="uni0311">
          -507 -34 733 -92 callgsubr
          endchar
        </CharString>
        <CharString name="uni0311.case">
          -507 -21 798 -92 callgsubr
          endchar
        </CharString>
        <CharString name="uni031B">
          -507 -174 530 rmoveto
          -6 -13 rlineto
          3 -13 2 -16 -12 vvcurveto
          -44 -28 -9 -41 vhcurveto
          -28 -52 rlineto
          17 hlineto
          84 94 42 74 15 -4 24 -9 18 hvcurveto
          endchar
        </CharString>
        <CharString name="uni0326">
          -507 -238 -236 -71 callgsubr
        </CharString>
        <CharString name="uni0327">
          -507 -234 -220 rmoveto
          -32 callgsubr
          25 52 rlineto
          -46 hlineto
          -43 -79 -73 callgsubr
          endchar
        </CharString>
        <CharString name="uni0328">
          -507 -155 -26 callgsubr
        </CharString>
        <CharString name="uni0394">
          -18 callgsubr
        </CharString>
        <CharString name="uni03A9">
          -57 callsubr
        </CharString>
        <CharString name="uni03BC">
          -60 callsubr
        </CharString>
        <CharString name="uni1E0C">
          134 -13 hmoveto
          -80 callsubr
          -36 -101 -101 callgsubr
          endchar
        </CharString>
        <CharString name="uni1E0D">
          32 152 -10 -85 callsubr
          50 82 -69 callgsubr
          -3 -112 -101 callgsubr
          endchar
        </CharString>
        <CharString name="uni1E24">
          -47 callsubr
          289 -85 -101 callgsubr
          endchar
        </CharString>
        <CharString name="uni1E25">
          55 32 -10 -72 callsubr
          3 16 46 268 10 vvcurveto
          15 -8 11 -18 -45 -81 -17 -20 -59 -24 callsubr
          47 -691 -101 callgsubr
          endchar
        </CharString>
        <CharString name="uni1E44">
          162 511 -61 callsubr
          -25 -101 -90 callgsubr
          endchar
        </CharString>
        <CharString name="uni1E45">
          62 365 585 -74 callsubr
          -115 -167 -97 callgsubr
          endchar
        </CharString>
        <CharString name="uni1E5A">
          -57 callgsubr
          -80 -363 -101 callgsubr
          endchar
        </CharString>
        <CharString name="uni1E5B">
          -34 callgsubr
          -39 -465 -101 callgsubr
          endchar
        </CharString>
        <CharString name="uni1E62">
          -37 156 -58 callgsubr
          8 -30 -101 callgsubr
          endchar
        </CharString>
        <CharString name="uni1E63">
          -88 247 444 -92 callsubr
          -108 -484 -101 callgsubr
          endchar
        </CharString>
        <CharString name="uni1E6C">
          -17 67 614 -63 callsubr
          -395 -654 -101 callgsubr
          endchar
        </CharString>
        <CharString name="uni1E6D">
          -185 245 411 rmoveto
          -59 callgsubr
          -26 19 -16 38 6 callsubr
          vhcurveto
          47 -91 vlineto
          -89 -95 -101 callgsubr
          endchar
        </CharString>
        <CharString name="uni1E92">
          -37 441 162 -81 callgsubr
          -238 -40 -101 callgsubr
          endchar
        </CharString>
        <CharString name="uni1E93">
          -122 277 -66 -93 callsubr
          -155 26 -101 callgsubr
          endchar
        </CharString>
        <CharString name="uni1E9E">
          79 345 -9 rmoveto
          127 103 88 99 88 -58 35 -90 14 hvcurveto
          171 222 2 33 rlineto
          31 -47 -74 27 -81 hhcurveto
          -164 -103 -112 -130 -25 hvcurveto
          -62 -317 -89 -24 -23 callgsubr
          220 hlineto
          14 70 64 330 rlineto
          88 17 35 65 99 hhcurveto
          24 30 -4 -6 21 hvcurveto
          -197 -250 11 -33 rlineto
          110 55 -24 -67 -51 -31 -59 -62 -20 -17 6 6 -12 hvcurveto
          -11 94 rlineto
          -56 hlineto
          -31 -143 rlineto
          -21 38 55 -10 43 hhcurveto
          endchar
        </CharString>
        <CharString name="uni1EA0">
          53 331 153 -103 callsubr
          -113 -252 -101 callgsubr
          endchar
        </CharString>
        <CharString name="uni1EA1">
          39 446 215 -107 callgsubr
          1 -113 -101 callgsubr
          endchar
        </CharString>
        <CharString name="uni1EA2">
          53 341 667 -37 callsubr
          -514 -103 callsubr
          endchar
        </CharString>
        <CharString name="uni1EA3">
          39 310 545 -105 callsubr
          136 -330 -107 callgsubr
          endchar
        </CharString>
        <CharString name="uni1EA4">
          53 495 683 -41 callsubr
          -10 -68 -94 callsubr
          -9 -554 -103 callsubr
          endchar
        </CharString>
        <CharString name="uni1EA5">
          39 508 629 -41 callsubr
          -31 -78 -86 callgsubr
          93 -438 -107 callgsubr
          endchar
        </CharString>
        <CharString name="uni1EA6">
          53 490 683 -33 callsubr
          66 -228 -94 callsubr
          -9 -554 -103 callsubr
          endchar
        </CharString>
        <CharString name="uni1EA7">
          39 493 629 -33 callsubr
          45 -238 -86 callgsubr
          103 -438 -107 callgsubr
          endchar
        </CharString>
        <CharString name="uni1EA8">
          53 496 753 -105 callsubr
          -18 -114 -94 callsubr
          -39 -554 -103 callsubr
          endchar
        </CharString>
        <CharString name="uni1EA9">
          39 470 699 -105 callsubr
          -30 -124 -86 callgsubr
          93 -438 -107 callgsubr
          endchar
        </CharString>
        <CharString name="uni1EAA">
          53 574 900 -65 callgsubr
          -39 -554 -103 callsubr
          endchar
        </CharString>
        <CharString name="uni1EAB">
          39 281 711 -46 callgsubr
          165 -496 rmoveto
          -15 callsubr
          -44 6 16 14 -82 130 rlineto
          -85 hlineto
          -128 -126 23 -30 134 68 92 -58 -27 -27 rlineto
          0 -46 15 -16 callgsubr
          -127 -147 -225 -52 callsubr
          -47 callgsubr
          vhcurveto
          -94 callgsubr
          -142 -60 rmoveto
          -31 -20 -50 -51 -33 hhcurveto
          -21 -13 17 55 167 52 136 90 18 14 -3 -8 19 hvcurveto
          -95 -19 -36 -187 -1 hhcurveto
          endchar
        </CharString>
        <CharString name="uni1EAC">
          53 478 -80 callgsubr
          -39 -554 -103 callsubr
          -113 -252 -101 callgsubr
          endchar
        </CharString>
        <CharString name="uni1EAD">
          39 440 575 -86 callgsubr
          93 -438 -107 callgsubr
          1 -113 -101 callgsubr
          endchar
        </CharString>
        <CharString name="uni1EAE">
          53 345 780 -98 callgsubr
          32 -164 -103 callgsubr
          -19 -498 -103 callsubr
          endchar
        </CharString>
        <CharString name="uni1EAF">
          39 314 658 -98 callgsubr
          32 -164 -64 callsubr
          -314 -107 callgsubr
          endchar
        </CharString>
        <CharString name="uni1EB0">
          53 415 780 -77 callgsubr
          167 -238 -103 callgsubr
          -19 -498 -103 callsubr
          endchar
        </CharString>
        <CharString name="uni1EB1">
          39 384 658 -77 callgsubr
          167 -238 -64 callsubr
          -314 -107 callgsubr
          endchar
        </CharString>
        <CharString name="uni1EB2">
          53 360 813 -37 callsubr
          -162 -103 callgsubr
          -19 -498 -103 callsubr
          endchar
        </CharString>
        <CharString name="uni1EB3">
          39 329 691 -37 callsubr
          -162 -64 callsubr
          -314 -107 callgsubr
          endchar
        </CharString>
        <CharString name="uni1EB4">
          53 566 905 -96 callgsubr
          -216 -254 -103 callgsubr
          -19 -498 -103 callsubr
          endchar
        </CharString>
        <CharString name="uni1EB5">
          39 535 783 -96 callgsubr
          -216 -254 -64 callsubr
          -314 -107 callgsubr
          endchar
        </CharString>
        <CharString name="uni1EB6">
          53 350 651 -103 callgsubr
          -19 -498 -103 callsubr
          -113 -252 -101 callgsubr
          endchar
        </CharString>
        <CharString name="uni1EB7">
          39 331 591 -103 callgsubr
          115 -376 -107 callgsubr
          1 -113 -101 callgsubr
          endchar
        </CharString>
        <CharString name="uni1EB8">
          29 399 403 -105 callgsubr
          -252 -443 -101 callgsubr
          endchar
        </CharString>
        <CharString name="uni1EB9">
          -68 320 515 -106 callsubr
          -142 -484 -101 callgsubr
          endchar
        </CharString>
        <CharString name="uni1EBA">
          29 329 667 -105 callsubr
          70 -264 -105 callgsubr
          endchar
        </CharString>
        <CharString name="uni1EBB">
          -68 257 545 -105 callsubr
          63 -30 -106 callsubr
          endchar
        </CharString>
        <CharString name="uni1EBC">
          29 543 759 -96 callgsubr
          -145 -356 -105 callgsubr
          endchar
        </CharString>
        <CharString name="uni1EBD">
          -74 485 697 rmoveto
          -82 callgsubr
          4 callsubr
          -165 -182 -106 callsubr
          endchar
        </CharString>
        <CharString name="uni1EBE">
          29 483 683 -41 callsubr
          -10 -68 -94 callsubr
          71 -304 -105 callgsubr
          endchar
        </CharString>
        <CharString name="uni1EBF">
          -68 455 629 -41 callsubr
          -31 -78 -86 callgsubr
          20 -138 -106 callsubr
          endchar
        </CharString>
        <CharString name="uni1EC0">
          29 478 683 -33 callsubr
          66 -228 -94 callsubr
          71 -304 -105 callgsubr
          endchar
        </CharString>
        <CharString name="uni1EC1">
          -68 440 629 -33 callsubr
          45 -238 -86 callgsubr
          30 -138 -106 callsubr
          endchar
        </CharString>
        <CharString name="uni1EC2">
          29 484 753 -105 callsubr
          -18 -114 -94 callsubr
          41 -304 -105 callgsubr
          endchar
        </CharString>
        <CharString name="uni1EC3">
          -68 417 699 -105 callsubr
          -30 -124 -86 callgsubr
          20 -138 -106 callsubr
          endchar
        </CharString>
        <CharString name="uni1EC4">
          29 562 900 -65 callgsubr
          41 -304 -105 callgsubr
          endchar
        </CharString>
        <CharString name="uni1EC5">
          -68 490 778 -65 callgsubr
          34 -70 -106 callsubr
          endchar
        </CharString>
        <CharString name="uni1EC6">
          29 466 -80 callgsubr
          41 -304 -105 callgsubr
          -252 -443 -101 callgsubr
          endchar
        </CharString>
        <CharString name="uni1EC7">
          -68 387 575 -86 callgsubr
          20 -138 -106 callsubr
          -142 -484 -101 callgsubr
          endchar
        </CharString>
        <CharString name="uni1EC8">
          -150 240 667 -105 callsubr
          -253 -667 rmoveto
          -89 callgsubr
          endchar
        </CharString>
        <CharString name="uni1EC9">
          -198 192 545 -105 callsubr
          70 -52 -95 callgsubr
          endchar
        </CharString>
        <CharString name="uni1ECA">
          -150 -13 hmoveto
          -89 callgsubr
          113 -85 -101 callgsubr
          endchar
        </CharString>
        <CharString name="uni1ECB">
          -198 229 734 -101 callgsubr
          33 -241 -95 callgsubr
          -178 -533 -101 callgsubr
          endchar
        </CharString>
        <CharString name="uni1ECC">
          265 -10 -104 callgsubr
          -35 -98 -101 callgsubr
          endchar
        </CharString>
        <CharString name="uni1ECD">
          -3 322 515 rmoveto
          -104 callsubr
          -28 -96 -101 callgsubr
          endchar
        </CharString>
        <CharString name="uni1ECE">
          376 667 -105 callsubr
          -111 -677 -104 callgsubr
          endchar
        </CharString>
        <CharString name="uni1ECF">
          -3 289 545 -105 callsubr
          33 -30 -100 callgsubr
        </CharString>
        <CharString name="uni1ED0">
          530 683 -41 callsubr
          -10 -68 -94 callsubr
          -110 -717 -104 callgsubr
          endchar
        </CharString>
        <CharString name="uni1ED1">
          -3 487 629 -41 callsubr
          -31 -78 -86 callgsubr
          -10 -62 callsubr
          endchar
        </CharString>
        <CharString name="uni1ED2">
          525 683 -33 callsubr
          66 -228 -94 callsubr
          -110 -717 -104 callgsubr
          endchar
        </CharString>
        <CharString name="uni1ED3">
          -3 472 629 -33 callsubr
          45 -238 -86 callgsubr
          -138 -36 callsubr
        </CharString>
        <CharString name="uni1ED4">
          531 753 -105 callsubr
          -18 -114 -94 callsubr
          -140 -717 -104 callgsubr
          endchar
        </CharString>
        <CharString name="uni1ED5">
          -3 449 699 -105 callsubr
          -30 -124 -86 callgsubr
          -10 -62 callsubr
          endchar
        </CharString>
        <CharString name="uni1ED6">
          609 900 -65 callgsubr
          -140 -717 -104 callgsubr
          endchar
        </CharString>
        <CharString name="uni1ED7">
          -3 522 778 -65 callgsubr
          4 -70 -100 callgsubr
        </CharString>
        <CharString name="uni1ED8">
          513 -80 callgsubr
          -140 -717 -104 callgsubr
          -35 -98 -101 callgsubr
          endchar
        </CharString>
        <CharString name="uni1ED9">
          -3 419 575 -86 callgsubr
          -10 -62 callsubr
          -28 -96 -101 callgsubr
          endchar
        </CharString>
        <CharString name="uni1EDA">
          589 743 -18 callsubr
          345 10 -88 callgsubr
        </CharString>
        <CharString name="uni1EDB">
          -3 465 685 -18 callsubr
          330 -20 -87 callgsubr
        </CharString>
        <CharString name="uni1EDC">
          454 669 -25 callgsubr
          275 10 -88 callgsubr
        </CharString>
        <CharString name="uni1EDD">
          -3 420 611 -25 callgsubr
          170 -20 -87 callgsubr
        </CharString>
        <CharString name="uni1EDE">
          385 761 -70 callgsubr
          333 -90 -88 callgsubr
        </CharString>
        <CharString name="uni1EDF">
          -3 298 639 -70 callgsubr
          281 -56 -87 callgsubr
        </CharString>
        <CharString name="uni1EE0">
          320 692 -46 callgsubr
          386 -48 -88 callgsubr
        </CharString>
        <CharString name="uni1EE1">
          -3 249 -28 callsubr
          318 -74 -87 callgsubr
        </CharString>
        <CharString name="uni1EE2">
          706 644 rmoveto
          -87 callsubr
          -38 -21 -12 -32 -2 vhcurveto
          30 -37 -53 17 -76 hhcurveto
          -229 -124 -206 -214 -143 60 -75 169 229 124 211 217 45 -8 40 -18 33 hvcurveto
          61 15 53 38 55 vvcurveto
          -427 -586 rmoveto
          -82 -14 54 91 95 29 262 164 75 20 -48 -90 -153 -45 -211 -147 hvcurveto
          -35 -98 -101 callgsubr
          endchar
        </CharString>
        <CharString name="uni1EE3">
          -3 567 556 rmoveto
          -87 callsubr
          -39 -22 -12 -34 -2 vhcurveto
          15 -23 -30 8 -38 hhcurveto
          -176 -117 -136 -237 -89 46 -63 104 -69 callsubr
          32 -6 31 -14 24 hvcurveto
          60 16 52 37 55 vvcurveto
          -358 -500 rmoveto
          -38 -7 34 52 113 20 192 111 37 8 -34 -52 -135 -26 -170 -105 hvcurveto
          -28 -96 -101 callgsubr
          endchar
        </CharString>
        <CharString name="uni1EE4">
          103 537 236 rmoveto
          -42 callgsubr
          204 53 162 84 16 vhcurveto
          -303 -276 -101 callgsubr
          endchar
        </CharString>
        <CharString name="uni1EE5">
          65 129 -10 -107 callsubr
          86 -30 -101 callgsubr
          endchar
        </CharString>
        <CharString name="uni1EE6">
          103 366 667 -105 callsubr
          171 -431 rmoveto
          -42 callgsubr
          204 53 162 84 16 vhcurveto
          endchar
        </CharString>
        <CharString name="uni1EE7">
          65 323 545 -105 callsubr
          -194 -555 -107 callsubr
          endchar
        </CharString>
        <CharString name="uni1EE8">
          103 579 743 -18 callsubr
          372 44 rmoveto
          -51 callsubr
          -28 -9 -41 vhcurveto
          -99 -106 callgsubr
          63 324 44 22 rlineto
          45 19 34 33 44 vvcurveto
          endchar
        </CharString>
        <CharString name="uni1EE9">
          65 499 685 -18 callsubr
          197 -371 -99 callsubr
          endchar
        </CharString>
        <CharString name="uni1EEA">
          103 444 669 -25 callgsubr
          302 44 rmoveto
          -51 callsubr
          -28 -9 -41 vhcurveto
          -99 -106 callgsubr
          63 324 44 22 rlineto
          45 19 34 33 44 vvcurveto
          endchar
        </CharString>
        <CharString name="uni1EEB">
          65 454 611 -25 callgsubr
          37 -371 -99 callsubr
          endchar
        </CharString>
        <CharString name="uni1EEC">
          103 375 761 -70 callgsubr
          360 -56 rmoveto
          -51 callsubr
          -28 -9 -41 vhcurveto
          -99 -106 callgsubr
          63 324 44 22 rlineto
          45 19 34 33 44 vvcurveto
          endchar
        </CharString>
        <CharString name="uni1EED">
          65 332 639 -70 callgsubr
          148 -407 -99 callsubr
          endchar
        </CharString>
        <CharString name="uni1EEE">
          103 310 692 -46 callgsubr
          413 -14 rmoveto
          -51 callsubr
          -28 -9 -41 vhcurveto
          -99 -106 callgsubr
          63 324 44 22 rlineto
          45 19 34 33 44 vvcurveto
          endchar
        </CharString>
        <CharString name="uni1EEF">
          65 283 -28 callsubr
          185 -425 -99 callsubr
          endchar
        </CharString>
        <CharString name="uni1EF0">
          103 723 678 rmoveto
          -51 callsubr
          -28 -9 -41 vhcurveto
          -99 -106 callgsubr
          63 324 44 22 rlineto
          45 19 34 33 44 vvcurveto
          -489 -718 -101 callgsubr
          endchar
        </CharString>
        <CharString name="uni1EF1">
          65 468 205 -99 callsubr
          -253 -245 -101 callgsubr
          endchar
        </CharString>
        <CharString name="uni1EF4">
          -17 367 568 -89 callsubr
          -202 -654 -101 callgsubr
          endchar
        </CharString>
        <CharString name="uni1EF5">
          -37 63 -194 -100 callsubr
          251 -34 -101 callgsubr
          endchar
        </CharString>
        <CharString name="uni1EF6">
          -17 306 667 -105 callsubr
          61 -99 -89 callsubr
          endchar
        </CharString>
        <CharString name="uni1EF7">
          -37 272 545 -105 callsubr
          -209 -739 -100 callsubr
          endchar
        </CharString>
        <CharString name="uni1EF8">
          -17 527 759 -96 callgsubr
          -157 -191 -89 callsubr
          endchar
        </CharString>
        <CharString name="uni1EF8.loclGUA">
          164 518 -50 callgsubr
          -281 -822 -102 callsubr
        </CharString>
        <CharString name="uni1EF9">
          -37 351 593 rmoveto
          -67 callsubr
          -82 callgsubr
          -21 callgsubr
          -288 -787 -100 callsubr
          endchar
        </CharString>
        <CharString name="uni1EF9.loclGUA">
          37 437 593 rmoveto
          -67 callsubr
          -82 callgsubr
          -21 callgsubr
          -270 -764 -99 callgsubr
        </CharString>
        <CharString name="uni2070">
          -93 165 271 rmoveto
          -65 callsubr
          17 86 rmoveto
          -53 callsubr
          endchar
        </CharString>
        <CharString name="uni2074">
          -94 184 277 -17 callgsubr
          147 161 -31 -161 rlineto
          endchar
        </CharString>
        <CharString name="uni2075">
          -94 380 710 -74 callgsubr
          endchar
        </CharString>
        <CharString name="uni2076">
          -94 159 269 -30 callsubr
          35 78 53 38 42 20 17 8 16 5 11 4 -8 49 rcurveline
          -15 -2 -16 -3 -15 -5 -102 -31 -114 -91 -30 -133 rrcurveto
          -4 -22 -3 -22 -24 vvcurveto
          -73 33 -52 -54 callgsubr
        </CharString>
        <CharString name="uni2077">
          -141 134 255 rmoveto
          235 410 -17 45 rlineto
          -293 hlineto
          -8 -78 rlineto
          211 hlineto
          -224 -343 rlineto
          endchar
        </CharString>
        <CharString name="uni2078">
          -107 161 273 -51 callgsubr
          8 -6 rlineto
          25 -17 27 -21 -39 vvcurveto
          -36 -26 -19 -40 vhcurveto
          endchar
        </CharString>
        <CharString name="uni2079">
          -94 68 272 rmoveto
          16 17 1 3 16 hvcurveto
          111 19 115 80 29 142 rrcurveto
          4 21 2 23 24 -38 callgsubr
          -21 -67 -76 -45 -54 -15 rrcurveto
          -4 -14 -12 -2 -10 -54 callsubr
        </CharString>
        <CharString name="uni207D">
          -227 219 164 rmoveto
          17 37 rlineto
          -47 22 -13 55 60 vvcurveto
          42 5 58 11 59 vhcurveto
          23 124 49 134 86 31 -3 38 rcurveline
          -134 -6 -81 -156 -33 -158 rrcurveto
          -12 -57 -6 -56 -50 vvcurveto
          -101 41 -63 97 -13 vhcurveto
          endchar
        </CharString>
        <CharString name="uni207E">
          -227 -5 164 rmoveto
          135 6 82 161 32 160 rrcurveto
          12 54 5 54 48 vvcurveto
          101 -40 63 -98 13 vhcurveto
          -17 -37 rlineto
          47 -22 13 -55 -60 vvcurveto
          -41 -5 -54 -10 -57 vhcurveto
          -22 -126 -50 -138 -87 -32 rrcurveto
          endchar
        </CharString>
        <CharString name="uni207F">
          -57 59 -7 callgsubr
          -14 -11 -51 -12 -52 hvcurveto
          -13 -57 -13 -58 -14 -14 callgsubr
          -68 -22 -49 -57 vhcurveto
          2 11 6 31 7 vvcurveto
          11 -8 8 -13 -32 -72 -13 -14 -44 vhcurveto
          8 -30 52 -6 rlineto
          endchar
        </CharString>
        <CharString name="uni2080">
          -93 165 -120 rmoveto
          113 81 85 136 23 hvcurveto
          5 26 2 27 29 vvcurveto
          108 -58 39 -78 -115 -80 -93 -124 -25 vhcurveto
          -5 -27 -3 -28 -29 -14 callsubr
          20 1 18 2 16 hvcurveto
          110 16 62 24 46 hhcurveto
          51 31 -26 -66 -21 -1 -18 -3 -17 hvcurveto
          -102 -15 -58 -28 -54 hhcurveto
          endchar
        </CharString>
        <CharString name="uni2081">
          -94 88 248 -48 callgsubr
          endchar
        </CharString>
        <CharString name="uni2082">
          -94 191 259 -79 callgsubr
          endchar
        </CharString>
        <CharString name="uni2083">
          -94 257 330 rmoveto
          -11 callgsubr
          hvcurveto
          14 -51 rlineto
          22 41 36 6 27 hhcurveto
          36 12 -12 -24 -37 -41 -50 -87 -9 hvcurveto
          -47 vlineto
          51 56 -7 -49 -68 -52 -23 -52 -20 -41 1 12 -37 hvcurveto
          -16 -59 rlineto
          -12 37 47 -2 34 hhcurveto
          113 99 39 112 43 -24 35 -47 15 hvcurveto
          51 25 43 50 52 vvcurveto
          53 -50 26 -67 vhcurveto
          endchar
        </CharString>
        <CharString name="uni2084">
          -94 184 -111 -17 callgsubr
          152 167 -36 -167 rlineto
          endchar
        </CharString>
        <CharString name="uni2085">
          -94 380 321 -74 callgsubr
          endchar
        </CharString>
        <CharString name="uni2086">
          -94 159 -120 -30 callsubr
          36 79 53 38 41 20 18 8 15 5 11 3 -8 49 rcurveline
          -19 -2 -20 -5 -21 -7 -101 -36 -108 -92 -25 -133 rrcurveto
          -3 -19 -2 -19 -20 vvcurveto
          -73 33 -52 -54 callgsubr
        </CharString>
        <CharString name="uni2087">
          -141 134 -134 -41 callgsubr
          endchar
        </CharString>
        <CharString name="uni2088">
          -107 161 -120 -51 callgsubr
          11 -7 rlineto
          23 -17 26 -22 -37 vvcurveto
          -36 -26 -19 -40 vhcurveto
          endchar
        </CharString>
        <CharString name="uni2089">
          -94 68 -117 rmoveto
          22 22 3 5 23 hvcurveto
          104 23 106 79 26 134 rrcurveto
          5 22 2 23 24 -38 callgsubr
          -19 -61 -64 -42 -52 -19 rrcurveto
          -7 -20 -19 -4 -13 -54 callsubr
        </CharString>
        <CharString name="uni208D">
          -189 180 94 rmoveto
          17 86 32 162 106 44 -3 38 rcurveline
          -149 -41 -53 -79 -41 -210 rrcurveto
          -12 -62 -7 -50 -41 vvcurveto
          -101 39 -46 95 -30 vhcurveto
          17 37 rlineto
          -47 22 -13 55 60 vvcurveto
          56 11 59 8 41 vhcurveto
          endchar
        </CharString>
        <CharString name="uni208E">
          -190 155 94 rmoveto
          -17 -86 -32 -165 -108 -42 2 -37 rcurveline
          151 42 50 75 42 213 rrcurveto
          12 62 6 51 42 vvcurveto
          98 -37 48 -95 29 vhcurveto
          -18 -38 rlineto
          49 -23 14 -57 -60 vvcurveto
          -54 -12 -58 -7 -40 vhcurveto
          endchar
        </CharString>
        <CharString name="uni20B2">
          85 314 304 rmoveto
          -9 -45 74 -23 -30 -155 rlineto
          -7 -23 -23 0 -15 hhcurveto
          -70 -34 48 97 200 67 118 113 33 37 -9 -6 20 hvcurveto
          7 -101 rlineto
          55 hlineto
          39 154 -30 13 -59 12 -57 4 rlinecurve
          18 97 rlineto
          -65 hlineto
          -18 -97 rlineto
          -210 -18 -98 -181 -183 vvcurveto
          -131 61 -71 123 -13 vhcurveto
          -17 -93 rlineto
          67 hlineto
          18 92 74 3 67 19 39 21 rlinecurve
          37 189 61 19 9 47 rlineto
          endchar
        </CharString>
        <CharString name="uni20BA">
          3 72 363 rmoveto
          -11 -60 86 31 -11 -54 -86 -31 -12 -61 86 31 -29 -150 -29 callsubr
          182 hlineto
          228 58 157 154 13 hvcurveto
          -68 -25 rlineto
          -153 -17 -76 -64 -101 hhcurveto
          39 199 106 39 12 60 -107 -39 11 55 107 39 11 60 -106 -39 20 103 -52 callgsubr
          -286 hlineto
          -9 -45 75 -23 -30 -152 rlineto
          endchar
        </CharString>
        <CharString name="uni20BD">
          3 39 296 rmoveto
          -9 -49 rlineto
          79 hlineto
          -9 -46 rlineto
          -79 hlineto
          -10 -49 rlineto
          79 hlineto
          -16 -83 -29 callsubr
          305 hlineto
          9 46 -95 23 16 83 rlineto
          161 hlineto
          10 49 rlineto
          -161 hlineto
          9 46 rlineto
          50 hlineto
          102 155 58 166 95 -64 48 -110 hvcurveto
          -269 -91 callgsubr
          -49 -250 rlineto
          127 hmoveto
          49 250 rlineto
          4 17 14 1 14 hhcurveto
          50 24 -32 -63 -90 -48 -70 -82 hvcurveto
          endchar
        </CharString>
        <CharString name="uni2113">
          -29 484 507 rmoveto
          69 -43 34 -80 -159 -50 -100 -139 -26 vhcurveto
          -34 -178 -23 -13 -22 -14 -24 -15 rlinecurve
          18 -53 10 5 13 6 13 7 rlinecurve
          -2 -14 -2 -13 -11 vvcurveto
          -59 37 -29 101 67 76 30 25 33 vhcurveto
          1 44 rlineto
          -1 -2 -63 -17 -54 hhcurveto
          -52 -20 14 44 15 3 18 4 23 hvcurveto
          143 83 137 107 132 vvcurveto
          -236 -97 rmoveto
          92 17 21 36 47 hhcurveto
          26 16 -11 -33 -83 -56 -64 -96 -68 hvcurveto
          endchar
        </CharString>
        <CharString name="uni2126">
          -57 callsubr
        </CharString>
        <CharString name="uni2153">
          409 262 -56 callgsubr
          -407 -115 -48 callgsubr
          665 -131 -88 callsubr
          endchar
        </CharString>
        <CharString name="uni2154">
          469 351 -56 callgsubr
          -393 -105 -79 callgsubr
          629 -100 -88 callsubr
          endchar
        </CharString>
        <CharString name="uni2196">
          51 462 374 rmoveto
          -360 56 -14 -14 69 -351 55 -2 -15 203 196 -217 74 77 -217 200 212 -10 rlineto
          endchar
        </CharString>
        <CharString name="uni2197">
          51 399 65 rmoveto
          68 349 -12 12 -363 -53 rlineto
          -57 vlineto
          215 8 -219 -201 76 -76 198 217 -19 -202 rlineto
          endchar
        </CharString>
        <CharString name="uni2198">
          51 307 161 rmoveto
          -215 8 rlineto
          -56 vlineto
          363 -56 12 12 -68 350 -56 2 19 -201 -198 217 -76 -74 rlineto
          endchar
        </CharString>
        <CharString name="uni2199">
          51 197 221 rmoveto
          15 204 -55 -2 -69 -351 14 -13 360 59 rlineto
          55 vlineto
          -212 -10 217 202 -74 74 rlineto
          endchar
        </CharString>
        <CharString name="uni2206">
          -18 callgsubr
        </CharString>
        <CharString name="uni2215">
          -327 -68 -56 callgsubr
          endchar
        </CharString>
        <CharString name="uni2219">
          3 334 304 rmoveto
          47 -37 37 -47 -44 -40 -37 -47 -46 40 -34 44 47 37 34 46 vhcurveto
          endchar
        </CharString>
        <CharString name="uniA78B">
          -369 78 262 rmoveto
          143 324 -25 28 -97 -1 -70 -342 rlineto
          endchar
        </CharString>
        <CharString name="uniA78C">
          -353 89 343 rmoveto
          149 346 -25 28 -108 -23 -66 -342 rlineto
          endchar
        </CharString>
        <CharString name="uniF6E9">
          -58 callsubr
        </CharString>
        <CharString name="uniF6EA">
          -103 196 270 rmoveto
          156 65 157 126 74 -43 28 -50 -46 -32 -21 -42 -35 hvcurveto
          20 115 rlineto
          8 44 8 42 7 vvcurveto
          10 -6 8 -12 -34 -70 -12 -15 -44 vhcurveto
          8 -30 53 -6 -92 -458 rlineto
          -11 22 55 -16 69 hhcurveto
          16 54 rmoveto
          -25 -14 6 8 -8 hvcurveto
          68 14 23 130 1 hhcurveto
          30 24 30 23 24 hhcurveto
          17 9 -10 -34 -132 -35 -89 -60 hvcurveto
          endchar
        </CharString>
        <CharString name="uniF6EB">
          -94 148 270 rmoveto
          51 30 30 41 26 hvcurveto
          0 -3 -23 -9 vvcurveto
          -27 18 -12 30 28 46 4 16 41 vhcurveto
          35 -55 vlineto
          1 1 53 58 12 hvcurveto
          0 64 343 22 vvcurveto
          10 -6 8 -13 -34 -70 -11 -16 -44 vhcurveto
          7 -31 54 -5 -21 -106 rlineto
          4 -14 -15 1 -15 hhcurveto
          -130 -91 -103 -169 -88 55 -25 47 hvcurveto
          36 65 rmoveto
          -21 -7 14 43 131 45 81 58 18 14 -3 -5 9 hvcurveto
          -41 -205 rlineto
          -27 -17 -33 -29 -25 hhcurveto
          endchar
        </CharString>
        <CharString name="uniF6EC">
          -169 268 655 rmoveto
          -156 -68 -132 -124 -95 56 -34 73 69 36 18 15 24 hvcurveto
          -9 36 rlineto
          -10 -27 -27 -3 -23 hhcurveto
          -46 -17 28 49 19 1 10 2 17 hvcurveto
          161 49 50 77 49 -39 30 -59 hvcurveto
          -21 -52 rmoveto
          25 4 -14 -16 -53 -32 -31 -82 hvcurveto
          72 12 32 42 41 hhcurveto
          endchar
        </CharString>
        <CharString name="uniF6ED">
          -262 200 704 rmoveto
          34 30 27 36 35 -30 28 -34 -35 -30 -28 -35 -36 30 -27 35 hvcurveto
          -82 -434 rmoveto
          28 47 6 14 35 hvcurveto
          39 -55 vlineto
          10 46 13 60 11 55 rrcurveto
          14 74 12 64 6 vvcurveto
          9 -5 12 -20 -31 -53 -12 -14 -55 vhcurveto
          7 -31 48 -6 -6 -31 -8 -36 -8 -37 rlinecurve
          -18 -81 -18 -80 -15 vvcurveto
          -34 18 -8 34 vhcurveto
          endchar
        </CharString>
        <CharString name="uniF6EF">
          143 59 270 rmoveto
          110 10 46 252 rlineto
          26 26 38 24 20 hhcurveto
          15 1 -11 -15 -24 -36 -165 -18 -97 hvcurveto
          110 10 46 252 rlineto
          26 24 41 24 21 hhcurveto
          12 2 -9 -13 -15 -12 -53 -12 -52 hvcurveto
          -12 -54 -13 -53 -12 vvcurveto
          -48 36 -3 32 26 40 8 12 28 vhcurveto
          35 -58 vlineto
          21 94 34 163 25 vvcurveto
          34 -12 14 -42 -38 -69 -32 -39 -41 vhcurveto
          2 9 1 10 7 vvcurveto
          26 -22 19 -31 -44 -67 -32 -39 -41 vhcurveto
          2 11 6 30 8 vvcurveto
          0 0 19 -20 -30 -75 -12 -15 -44 vhcurveto
          8 -30 52 -6 rlineto
          endchar
        </CharString>
        <CharString name="uniF6F0">
          -34 callsubr
        </CharString>
        <CharString name="uniF6F1">
          -200 59 270 rmoveto
          102 10 28 168 38 93 29 33 23 14 rlinecurve
          8 -62 rlineto
          49 hlineto
          24 133 rlineto
          -76 -39 -29 -61 -35 hvcurveto
          4 20 rlineto
          3 19 5 24 3 vvcurveto
          12 -8 8 -13 -32 -66 -14 -13 -41 vhcurveto
          8 -31 52 -6 rlineto
          endchar
        </CharString>
        <CharString name="uniF6F3">
          -227 120 270 rmoveto
          25 53 7 14 49 hvcurveto
          36 -69 vlineto
          50 270 rlineto
          81 53 -71 hlineto
          15 82 rlineto
          -48 hlineto
          -64 -73 -82 -24 9 -38 rlineto
          54 hlineto
          -8 -38 rlineto
          -19 -99 -28 -141 -17 vvcurveto
          -20 12 -12 41 vhcurveto
          endchar
        </CharString>
        <CharString name="uogonek">
          65 405 -49 callsubr
          -24 -14 15 26 16 10 77 110 58 hvcurveto
          47 -74 vlineto
          1 5 66 74 15 hvcurveto
          62 312 -136 -15 -58 -316 rlineto
          -75 -40 -56 -38 -34 hhcurveto
          -17 0 11 21 hvcurveto
          46 77 318 21 vvcurveto
          14 -8 11 -18 -46 -85 -14 -20 -61 vhcurveto
          10 -41 67 -8 rlineto
          -21 -103 -47 -201 -66 callsubr
          -72 callgsubr
          12 15 2 2 17 vhcurveto
          -100 -78 -2 -58 -18 vvcurveto
          -38 21 -38 71 vhcurveto
          endchar
        </CharString>
        <CharString name="uring">
          65 335 -50 callsubr
          -213 -620 -107 callsubr
          endchar
        </CharString>
        <CharString name="utilde">
          65 425 593 rmoveto
          -67 callsubr
          -82 callgsubr
          -21 callgsubr
          -296 -603 -107 callsubr
          endchar
        </CharString>
        <CharString name="v">
          -43 82 -13 rmoveto
          123 18 rlineto
          140 94 119 171 207 vvcurveto
          13 -2 16 -3 12 vhcurveto
          -45 -6 -58 -10 -66 -21 10 -42 rcurveline
          56 -7 rlineto
          2 -7 2 -8 -16 vvcurveto
          -78 -32 -133 -115 -100 vhcurveto
          1 36 3 59 40 vvcurveto
          128 -10 163 -10 -58 -84 -16 -22 -66 vhcurveto
          10 -42 71 -9 rlineto
          0 19 -88 -171 vvcurveto
          -53 -2 -85 -5 -43 vhcurveto
          endchar
        </CharString>
        <CharString name="w">
          218 79 -13 -95 callsubr
        </CharString>
        <CharString name="wacute">
          218 348 576 -98 callgsubr
          -242 -624 -95 callsubr
        </CharString>
        <CharString name="wcircumflex">
          218 530 575 -86 callgsubr
          -364 -666 -95 callsubr
        </CharString>
        <CharString name="wdieresis">
          218 404 657 -101 callsubr
          -556 -670 -95 callsubr
        </CharString>
        <CharString name="wgrave">
          218 508 576 -77 callgsubr
          -197 -698 -95 callsubr
        </CharString>
        <CharString name="x">
          -78 27 -28 rmoveto
          138 182 rlineto
          -145 32 14 -19 55 hhcurveto
          48 45 9 20 51 hvcurveto
          47 -84 vlineto
          -54 202 196 201 -68 54 -146 -174 -7 30 rlineto
          88 -20 -11 50 -13 hhcurveto
          -33 -96 -16 -20 -64 hvcurveto
          10 -40 75 -8 6 -1 2 -7 2 -8 rlinecurve
          40 -181 -186 -211 rlineto
          endchar
        </CharString>
        <CharString name="y">
          -37 63 -194 -100 callsubr
          endchar
        </CharString>
        <CharString name="y.loclGUA">
          37 167 -171 -99 callgsubr
        </CharString>
        <CharString name="yacute">
          -37 194 576 -98 callgsubr
          -104 -805 -100 callsubr
          endchar
        </CharString>
        <CharString name="yacute.loclGUA">
          37 266 576 -98 callgsubr
          -72 -782 -99 callgsubr
        </CharString>
        <CharString name="ycircumflex">
          -37 153 -39 callsubr
          -61 -800 -100 callsubr
          endchar
        </CharString>
        <CharString name="ycircumflex.loclGUA">
          37 229 -39 callsubr
          -33 -777 -99 callgsubr
        </CharString>
        <CharString name="ydieresis">
          -37 141 585 -76 callgsubr
          -310 -779 -100 callsubr
          endchar
        </CharString>
        <CharString name="ydieresis.loclGUA">
          37 226 585 -76 callgsubr
          -291 -756 -99 callgsubr
        </CharString>
        <CharString name="yen">
          3 40 336 rmoveto
          119 hlineto
          20 -63 rlineto
          -151 hlineto
          -11 -57 rlineto
          157 hlineto
          -28 -142 -91 -28 -9 -46 rlineto
          289 hlineto
          9 46 -81 28 28 142 rlineto
          155 hlineto
          11 57 rlineto
          -150 hlineto
          41 63 rlineto
          121 hlineto
          11 58 rlineto
          -94 hlineto
          98 146 80 28 9 46 rlineto
          -217 hlineto
          -9 -46 60 -28 -127 -196 -51 196 70 28 9 46 rlineto
          -266 hlineto
          -9 -46 64 -28 45 -146 rlineto
          -91 hlineto
          endchar
        </CharString>
        <CharString name="ygrave">
          -37 358 576 -77 callgsubr
          -63 -879 -100 callsubr
          endchar
        </CharString>
        <CharString name="ygrave.loclGUA">
          37 418 576 -77 callgsubr
          -19 -856 -99 callgsubr
        </CharString>
        <CharString name="z">
          -122 277 -66 -93 callsubr
          endchar
        </CharString>
        <CharString name="zacute">
          -118 150 576 -98 callgsubr
          153 -677 -93 callsubr
          endchar
        </CharString>
        <CharString name="zacute.loclPLK">
          -122 228 -43 callgsubr
          80 -653 -93 callsubr
          endchar
        </CharString>
        <CharString name="zcaron">
          -118 143 -78 callgsubr
          43 -733 -93 callsubr
          endchar
        </CharString>
        <CharString name="zdotaccent">
          -118 229 585 -74 callsubr
          47 -651 -93 callsubr
          endchar
        </CharString>
        <CharString name="zero">
          3 322 629 rmoveto
          -171 -122 -173 -255 -156 74 -55 102 182 109 192 256 137 -67 54 -107 hvcurveto
          -86 -532 rmoveto
          -60 -48 27 129 148 63 122 101 76 31 -33 -112 -178 -79 -103 -84 hvcurveto
          endchar
        </CharString>
        <CharString name="zero.dnom">
          -94 165 -7 rmoveto
          114 82 87 139 22 hvcurveto
          4 24 2 26 27 vvcurveto
          108 -58 39 -78 -118 -80 -97 -128 -23 vhcurveto
          -5 -24 -2 -26 -26 -14 callsubr
          20 1 18 2 16 hvcurveto
          110 15 63 24 46 hhcurveto
          51 31 -26 -66 -14 -1 -12 -1 -12 hvcurveto
          -117 -10 -62 -31 -57 hhcurveto
          endchar
        </CharString>
        <CharString name="zero.numr">
          -94 165 164 rmoveto
          112 81 84 134 24 hvcurveto
          5 27 2 28 30 vvcurveto
          108 -58 39 -78 -119 -81 -99 -130 -22 vhcurveto
          -4 -23 -2 -24 -25 -14 callsubr
          17 1 16 2 14 hvcurveto
          116 13 64 25 47 hhcurveto
          51 31 -26 -66 -20 -1 -17 -2 -16 hvcurveto
          -104 -15 -58 -29 -55 hhcurveto
          endchar
        </CharString>
        <CharString name="zero.osf">
          3 220 -11 rmoveto
          183 86 189 158 145 -77 58 -111 -188 -84 -180 -157 -152 82 -61 109 hvcurveto
          8 108 rmoveto
          -54 -51 22 105 94 41 115 125 84 22 -51 -69 -99 -42 -117 -125 hvcurveto
          endchar
        </CharString>
      <CharString index="0">
        rmoveto
        -12 callgsubr
        -47 callgsubr
        vhcurveto
        -94 callgsubr
        -245 -142 -4 callgsubr
        -95 -19 -36 -187 -1 hhcurveto
        -31 -20 -50 -51 -33 hhcurveto
        return
      </CharString>
      <CharString index="1">
        -91 callgsubr
        -58 -301 rlineto
        -92 -18 -49 -97 -102 hhcurveto
        -72 -23 38 58 36 5 36 8 40 hvcurveto
        55 282 -93 callgsubr
        -55 -281 rlineto
        -7 -37 -6 -37 -32 vvcurveto
        -98 52 -71 146 204 53 162 84 16 vhcurveto
        return
      </CharString>
      <CharString index="2">
        rmoveto
        -29 -66 rlineto
        -103 hlineto
        41 209 rlineto
        158 hlineto
        5 -78 rlineto
        53 hlineto
        28 146 rlineto
        -447 -91 callgsubr
        -93 -477 -29 callsubr
        465 -3 callgsubr
        -173 hlineto
        41 212 rlineto
        101 hlineto
        5 -69 rlineto
        50 hlineto
        37 191 rlineto
        return
      </CharString>
      <CharString index="3">
        rmoveto
        229 124 211 217 121 -58 89 -171 -229 -124 -206 -214 -143 60 -75 169 hvcurveto
        14 68 rmoveto
        -82 -14 54 91 95 29 262 164 75 20 -48 -90 -153 -45 -211 -147 hvcurveto
        return
      </CharString>
      <CharString index="4">
        rmoveto
        103 31 67 70 14 hvcurveto
        -54 hlineto
        -30 -8 -10 -31 -64 hhcurveto
        -47 -5 20 23 5 1 8 1 5 hvcurveto
        -56 hlineto
        -5 -14 -4 -19 -15 vvcurveto
        -49 25 -40 78 vhcurveto
        return
      </CharString>
      <CharString index="5">
        rmoveto
        94 130 30 171 35 hvcurveto
        100 508 -64 8 -38 -34 rlineto
        8 -20 -32 7 -43 hhcurveto
        -158 -114 -147 -204 -110 69 -34 52 65 45 36 36 30 hvcurveto
        -177 -30 -70 -28 -73 hhcurveto
        -53 -28 10 13 -37 hvcurveto
        -23 -58 rlineto
        -21 37 51 -14 75 hhcurveto
        60 280 rmoveto
        -20 -15 15 55 134 43 146 92 17 22 -4 -6 15 hvcurveto
        -19 -88 -34 -180 -1 -6 rrcurveto
        -28 -19 -47 -38 -34 hhcurveto
        endchar
      </CharString>
      <CharString index="6">
        rmoveto
        -40 -35 -34 -41 -40 35 -34 40 41 35 34 40 41 -36 34 -40 hvcurveto
        return
      </CharString>
      <CharString index="7">
        rmoveto
        -35 callsubr
      </CharString>
      <CharString index="8">
        rmoveto
        197 61 149 187 36 hvcurveto
        70 352 -136 -15 -52 -287 rlineto
        -75 -40 -56 -38 -34 hhcurveto
        -17 0 11 21 hvcurveto
        46 71 289 21 vvcurveto
        14 -8 11 -18 -46 -85 -14 -20 -61 vhcurveto
        10 -41 67 -8 rlineto
        -21 -103 -41 -172 -66 callsubr
        -149 -36 -29 -49 -94 hhcurveto
        -30 -18 3 11 -25 hvcurveto
        -8 65 rlineto
        -46 hlineto
        -41 -135 rlineto
        -21 56 45 -8 63 hhcurveto
        endchar
      </CharString>
      <CharString index="9">
        rmoveto
        228 109 rlineto
        23 vlineto
        -99 34 -156 -131 rlineto
        return
      </CharString>
      <CharString index="10">
        rmoveto
        -73 callsubr
        -86 -435 -48 callsubr
        39 35 60 36 27 hhcurveto
        18 1 -14 -11 hvcurveto
        -40 -69 -267 -35 vvcurveto
        -55 28 -11 46 42 54 11 17 37 -13 callgsubr
        217 37 vvcurveto
        44 -12 23 -50 -45 -80 -29 -68 -77 vhcurveto
        return
      </CharString>
      <CharString index="11">
        rmoveto
        -44 19 rlineto
        0 -17 -31 -25 vhcurveto
        -39 -88 37 -49 hhcurveto
        -33 -34 -46 -58 -20 hvcurveto
        47 -19 rlineto
        0 16 31 24 vhcurveto
        38 89 -20 callgsubr
        -67 callsubr
        return
      </CharString>
      <CharString index="12">
        rmoveto
        13 -8 9 -13 -29 -86 -16 -20 -75 vhcurveto
        10 -42 66 -8 rlineto
        -28 -134 -51 -218 -29 vvcurveto
        -47 24 -11 46 -33 callgsubr
        vhcurveto
        48 -75 vlineto
        33 147 51 265 15 vvcurveto
        return
      </CharString>
      <CharString index="13">
        0 -4 -33 -11 vvcurveto
        -37 27 -16 40 41 46 6 22 54 -5 callsubr
        70 79 15 hvcurveto
        return
      </CharString>
      <CharString index="14">
        84 23 -90 callsubr
        return
      </CharString>
      <CharString index="15">
        rmoveto
        -103 -31 -67 -70 -14 hvcurveto
        54 hlineto
        30 8 10 31 64 hhcurveto
        47 5 -20 -23 -5 -1 -8 -1 -5 hvcurveto
        56 hlineto
        5 14 4 19 15 vvcurveto
        49 -25 40 -78 vhcurveto
        return
      </CharString>
      <CharString index="16">
        hlineto
        -9 -45 76 -23 return
      </CharString>
      <CharString index="17">
        rmoveto
        -8 -45 75 -23 -71 -374 -192 442 rlineto
        -185 hlineto
        -8 -45 75 -23 -92 -71 callsubr
        -23 callgsubr
        231 hlineto
        9 45 -75 24 71 368 194 -449 103 12 106 546 85 23 8 45 rlineto
        return
      </CharString>
      <CharString index="18">
        295 hlineto
        8 45 -75 24 -27 callsubr
        -32 callsubr
        return
      </CharString>
      <CharString index="19">
        rmoveto
        -87 callsubr
        -38 -21 -12 -32 -2 vhcurveto
        30 -37 -53 17 -76 hhcurveto
        -229 -124 -206 -214 -143 60 -75 169 229 124 211 217 45 -8 40 -18 33 hvcurveto
        61 15 53 38 55 vvcurveto
        -427 -586 -55 callsubr
      </CharString>
      <CharString index="20">
        rmoveto
        -87 callsubr
        -39 -22 -12 -34 -2 vhcurveto
        15 -23 -30 8 -38 hhcurveto
        -176 -117 -136 -237 -89 46 -63 104 -69 callsubr
        32 -6 31 -14 24 hvcurveto
        60 16 52 37 55 vvcurveto
        -358 -500 -68 callsubr
      </CharString>
      <CharString index="21">
        rmoveto
        39 23 -70 143 rlineto
        -85 hlineto
        -124 -135 29 -31 124 78 rlineto
        return
      </CharString>
      <CharString index="22">
        rmoveto
        22 136 rlineto
        -56 hlineto
        -37 -87 rlineto
        -9 -31 -24 -2 -26 hhcurveto
        -85 -31 43 106 160 44 192 152 35 26 -4 -8 26 hvcurveto
        4 -102 rlineto
        54 hlineto
        40 157 rlineto
        14 -43 -56 11 -73 hhcurveto
        -242 -115 -202 -210 -148 64 -78 168 74 52 11 20 58 hvcurveto
        endchar
      </CharString>
      <CharString index="23">
        rmoveto
        138 14 39 227 51 127 39 44 32 20 rlinecurve
        11 -85 rlineto
        66 hlineto
        32 180 rlineto
        -103 -52 -39 -82 -48 hvcurveto
        3 19 13 63 7 vvcurveto
        16 -10 11 -18 -44 -89 -19 -18 -55 vhcurveto
        10 -41 71 -9 rlineto
        return
      </CharString>
      <CharString index="24">
        rmoveto
        -30 -26 82 -130 rlineto
        85 hlineto
        128 126 -23 30 -134 -68 rlineto
        return
      </CharString>
      <CharString index="25">
        -44 19 rlineto
        0 -17 -31 -25 vhcurveto
        -39 -79 37 -49 hhcurveto
        -33 -30 -47 -57 -24 hvcurveto
        47 -19 rlineto
        0 16 31 24 vhcurveto
        return
      </CharString>
      <CharString index="26">
        rmoveto
        -53 hlineto
        -54 -93 rlineto
        -200 hlineto
        388 512 rlineto
        33 -433 vlineto
        -19 -146 rlineto
        55 hlineto
        37 78 rlineto
        187 hlineto
        -388 -513 10 -33 rlineto
        431 hlineto
        return
      </CharString>
      <CharString index="27">
        639 -94 callsubr
        return
      </CharString>
      <CharString index="28">
        rmoveto
        42 17 -14 -29 -45 -41 -50 -41 -36 hvcurveto
        -174 -152 7 -44 rlineto
        316 hlineto
        30 123 rlineto
        -52 hlineto
        -37 -54 -149 -11 123 96 rlineto
        106 83 28 50 64 vvcurveto
        57 -36 34 -91 -58 -66 -19 -22 -40 vhcurveto
        23 -53 rlineto
        18 43 19 4 31 hhcurveto
        return
      </CharString>
      <CharString index="29">
        743 rmoveto
        -41 -25 75 -141 rlineto
        85 hlineto
        124 133 -32 33 -121 -76 rlineto
        return
      </CharString>
      <CharString index="30">
        rmoveto
        23 35 -154 131 -97 -34 -4 -23 rlineto
        return
      </CharString>
      <CharString index="31">
        rmoveto
        40 34 30 42 41 -34 32 -40 -41 -37 -32 -41 -42 37 -30 41 hvcurveto
        232 hmoveto
        38 35 30 42 41 -35 32 -38 -42 -35 -32 -41 -42 35 -30 42 hvcurveto
        return
      </CharString>
      <CharString index="32">
        206 hlineto
        9 45 -60 23 45 85 rlineto
        return
      </CharString>
      <CharString index="33">
        rmoveto
        -257 hlineto
        -54 -194 18 -23 rlineto
        94 53 -15 -59 -58 -48 -35 -62 -51 -22 10 5 -25 hvcurveto
        -15 -53 rlineto
        -15 42 31 -4 49 hhcurveto
        135 80 71 99 49 -29 59 -153 hvcurveto
        26 100 rlineto
        176 hlineto
        return
      </CharString>
      <CharString index="34">
        4 -19 rlineto
        37 -1 12 -15 -17 vvcurveto
        -33 -34 -18 -25 -17 -9 2 5 -8 vhcurveto
        -16 -35 rlineto
        -8 16 18 -8 43 hhcurveto
        return
      </CharString>
      <CharString index="35">
        0 -7 -45 -6 vvcurveto
        -27 14 -15 41 return
      </CharString>
      <CharString index="36">
        rmoveto
        110 188 -22 24 -92 -20 -36 -181 rlineto
        endchar
      </CharString>
      <CharString index="37">
        rmoveto
        1 11 9 1 8 hhcurveto
        24 10 -7 -11 hvcurveto
        -31 -72 3 -32 vvcurveto
        -3 0 -6 1 -9 vhcurveto
        49 hlineto
        22 32 6 22 7 vhcurveto
        22 7 22 15 25 vvcurveto
        31 -33 18 -59 -28 -33 -4 -7 -33 vhcurveto
        -4 -53 rlineto
        40 hlineto
        return
      </CharString>
      <CharString index="38">
        rmoveto
        -22 -16 15 59 115 29 185 107 23 21 -3 -5 15 hvcurveto
        -19 -96 -31 -159 -5 -28 rrcurveto
        -37 -24 -45 -46 -33 hhcurveto
        return
      </CharString>
      <CharString index="39">
        rmoveto
        -33 callgsubr
        hvcurveto
        48 -75 vlineto
        33 147 51 265 15 vvcurveto
        13 -8 9 -13 -29 -86 -16 -20 -75 vhcurveto
        10 -42 66 -8 rlineto
        -28 -134 -51 -218 -29 vvcurveto
        -47 24 -11 46 vhcurveto
        endchar
      </CharString>
      <CharString index="40">
        rmoveto
        93 50 25 21 32 hvcurveto
        -12 49 rlineto
        -14 -37 -37 -4 -31 hhcurveto
        -63 -22 38 67 26 1 13 3 23 hvcurveto
        181 98 69 113 67 -51 32 -76 -41 -59 -18 -20 -25 hvcurveto
        10 43 -53 13 -35 callgsubr
        48 51 34 73 61 vhcurveto
        -79 20 59 -29 73 hhcurveto
        -275 83 -4 callgsubr
        -2 -6 -54 -282 3 vvcurveto
        -31 -20 -50 -48 -33 hhcurveto
        259 216 rmoveto
        98 17 43 57 56 hhcurveto
        34 6 -19 -22 -71 -64 -43 -92 hvcurveto
        endchar
      </CharString>
      <CharString index="41">
        627 rmoveto
        76 55 45 67 hvcurveto
        44 -1 -26 36 -66 hhcurveto
        -96 -39 -57 -64 -45 36 -26 61 hvcurveto
        8 47 rmoveto
        -29 -3 14 18 29 8 36 39 24 11 -14 -17 -29 -9 -37 -41 hvcurveto
        return
      </CharString>
      <CharString index="42">
        -96 callgsubr
        -96 -261 -94 callsubr
        return
      </CharString>
      <CharString index="43">
        63 344 rlineto
        43 34 65 38 37 hhcurveto
        18 11 -8 -21 -57 -41 -38 -116 -32 hvcurveto
        -5 -18 rlineto
        0 41 -265 58 43 48 5 23 64 7 callsubr
        -60 192 rlineto
        125 43 47 77 68 vvcurveto
        47 -25 22 -50 -81 -88 -56 -39 -35 vhcurveto
        return
      </CharString>
      <CharString index="44">
        101 hlineto
        15 79 rlineto
        57 hlineto
        12 61 rlineto
        -57 hlineto
        57 292 -80 10 -294 -322 6 -41 rlineto
        198 hlineto
        -100 61 rmoveto
        148 167 -36 -167 rlineto
        endchar
      </CharString>
      <CharString index="45">
        -72 callgsubr
        33 50 9 19 67 vhcurveto
        47 -74 vlineto
        1 5 66 74 15 hvcurveto
        return
      </CharString>
      <CharString index="46">
        -72 -97 -17 hvcurveto
        -13 -70 -97 -27 13 -50 rlineto
        67 hlineto
        -73 -443 rlineto
        -71 -13 -22 -23 -68 hhcurveto
        -26 -25 5 7 -20 hvcurveto
        -13 -53 rlineto
        -14 26 36 -14 60 hhcurveto
        return
      </CharString>
      <CharString index="47">
        rmoveto
        31 231 rlineto
        135 hlineto
        5 -78 rlineto
        53 hlineto
        28 146 rlineto
        -428 hlineto
        -9 -45 56 -17 -352 -483 -69 -25 -9 -44 rlineto
        213 hlineto
        9 45 -60 23 136 191 rlineto
        114 hlineto
        -25 -190 -29 callsubr
        446 -3 callgsubr
        -150 hlineto
        25 190 rlineto
        83 hlineto
        9 -69 rlineto
        46 hlineto
        37 191 rlineto
        -46 hlineto
        -33 -66 rlineto
        -229 hmoveto
        -81 hlineto
        100 139 rlineto
        endchar
      </CharString>
      <CharString index="48">
        107 70 -94 hlineto
        20 107 rlineto
        -64 hlineto
        -70 -96 -108 -31 12 -50 rlineto
        71 hlineto
        -26 -125 -47 -239 -25 vvcurveto
        return
      </CharString>
      <CharString index="49">
        -10 -98 callsubr
        return
      </CharString>
      <CharString index="50">
        73 361 hmoveto
        -96 callsubr
        return
      </CharString>
      <CharString index="51">
        -70 rmoveto
        83 hlineto
        233 717 rlineto
        -83 hlineto
        return
      </CharString>
      <CharString index="52">
        rmoveto
        71 hlineto
        26 82 rlineto
        8 hlineto
        229 124 211 217 101 -41 79 -114 23 hvcurveto
        29 88 rlineto
        -71 hlineto
        -27 -81 rlineto
        -5 hlineto
        -229 -124 -206 -214 -119 41 -72 112 -20 hvcurveto
        26 80 rmoveto
        -26 23 -6 44 59 vvcurveto
        94 28 259 161 4 vhcurveto
        -93 -502 rmoveto
        158 483 rlineto
        26 -21 8 -41 -57 vvcurveto
        -153 -45 -211 -147 vhcurveto
        endchar
      </CharString>
      <CharString index="53">
        97 vhcurveto
        23 59 rmoveto
        -32 -13 20 37 15 2 17 2 18 hvcurveto
        26 22 36 25 30 hhcurveto
        22 8 -17 -25 -65 -28 -51 -49 hvcurveto
        endchar
      </CharString>
      <CharString index="54">
        rmoveto
        64 hlineto
        27 83 rlineto
        167 9 110 135 226 vvcurveto
        72 -32 60 -76 17 vhcurveto
        26 79 rlineto
        -64 hlineto
        -25 -75 rlineto
        -166 -9 -109 -134 -229 vvcurveto
        -76 33 -57 73 -15 vhcurveto
        32 100 rmoveto
        -3 13 0 16 19 vvcurveto
        108 18 182 100 14 vhcurveto
        -63 -390 rmoveto
        116 356 rlineto
        4 -14 1 -17 -20 vvcurveto
        -131 -25 -163 -96 -11 vhcurveto
        endchar
      </CharString>
      <CharString index="55">
        84 23 9 45 rlineto
        return
      </CharString>
</ttFont>
